<svg xmlns="http://www.w3.org/2000/svg" width="60" height="32" fill="none"><path fill="#fff" d="M22.191 20.74c0 5.977-4.845 10.822-10.823 10.822-5.977 0-10.822-4.846-10.822-10.823S5.39 9.917 11.368 9.917c5.978 0 10.823 4.845 10.823 10.822Zm-14.528 0a3.706 3.706 0 1 0 7.411 0 3.706 3.706 0 0 0-7.411 0Z"/><path fill="#fff" d="M15.473 9.917h7.464v21.645h-7.464V9.917ZM26.67 4.692 34.132.96v30.602H26.67V4.692ZM53.877 5.423a.746.746 0 0 1 1.056.02l4.138 4.305a.746.746 0 0 1-.02 1.056L42.466 26.746a.746.746 0 0 1-1.056-.02l-4.138-4.305a.746.746 0 0 1 .02-1.055L53.878 5.423Z"/><path fill="#fff" d="M58.938 21.591a.747.747 0 0 1 0 1.056l-4.228 4.218a.746.746 0 0 1-1.055-.002L37.405 10.58a.746.746 0 0 1 .002-1.056l4.227-4.217a.746.746 0 0 1 1.055 0l16.25 16.285Z"/></svg>