<svg xmlns="http://www.w3.org/2000/svg" width="60" height="32" fill="none"><path fill="#262626" d="M22.191 20.74c0 5.977-4.845 10.822-10.823 10.822C5.391 31.562.546 26.717.546 20.74c0-5.977 4.845-10.822 10.822-10.822 5.978 0 10.823 4.845 10.823 10.822Zm-14.528 0a3.706 3.706 0 1 0 7.411 0 3.706 3.706 0 0 0-7.411 0Z"/><path fill="#262626" d="M15.473 9.917h7.464v21.645h-7.464V9.917ZM26.67 4.692 34.132.96v30.602H26.67V4.692ZM53.877 5.423a.746.746 0 0 1 1.056.02l4.138 4.305a.746.746 0 0 1-.02 1.056L42.466 26.748a.746.746 0 0 1-1.056-.021l-4.138-4.305a.746.746 0 0 1 .02-1.055L53.878 5.423Z"/><path fill="#262626" d="M58.938 21.592a.746.746 0 0 1 0 1.055l-4.228 4.218a.746.746 0 0 1-1.055-.001l-16.25-16.285a.746.746 0 0 1 .002-1.055l4.227-4.218a.746.746 0 0 1 1.055.001l16.25 16.285Z"/></svg>