<svg xmlns="http://www.w3.org/2000/svg" width="61" height="84" fill="none"><path fill="#616161" d="M27.844 23.469h2.125a.531.531 0 0 0 .531-.532V19.75a.532.532 0 0 0-.531-.531h-2.125a.531.531 0 0 0-.532.531v3.188a.532.532 0 0 0 .532.53Zm.531-3.188h1.063v2.125h-1.063v-2.125ZM32.094 23.469h2.125a.531.531 0 0 0 .531-.532V19.75a.532.532 0 0 0-.531-.531h-2.125a.531.531 0 0 0-.532.531v3.188a.532.532 0 0 0 .532.53Zm.531-3.188h1.063v2.125h-1.063v-2.125ZM36.344 23.469h2.125a.531.531 0 0 0 .531-.532V19.75a.532.532 0 0 0-.531-.531h-2.125a.531.531 0 0 0-.532.531v3.188a.532.532 0 0 0 .532.53Zm.531-3.188h1.063v2.125h-1.063v-2.125ZM27.844 28.781h2.125a.531.531 0 0 0 .531-.531v-3.188a.532.532 0 0 0-.531-.53h-2.125a.531.531 0 0 0-.532.53v3.188a.532.532 0 0 0 .532.531Zm.531-3.187h1.063v2.125h-1.063v-2.125ZM32.094 28.781h2.125a.531.531 0 0 0 .531-.531v-3.188a.532.532 0 0 0-.531-.53h-2.125a.531.531 0 0 0-.532.53v3.188a.532.532 0 0 0 .532.531Zm.531-3.187h1.063v2.125h-1.063v-2.125ZM36.344 28.781h2.125A.531.531 0 0 0 39 28.25v-3.188a.532.532 0 0 0-.531-.53h-2.125a.531.531 0 0 0-.532.53v3.188a.532.532 0 0 0 .532.531Zm.531-3.187h1.063v2.125h-1.063v-2.125ZM23.594 23.469h2.125a.531.531 0 0 0 .531-.532V19.75a.532.532 0 0 0-.531-.531h-2.125a.531.531 0 0 0-.532.531v3.188a.532.532 0 0 0 .532.53Zm.531-3.188h1.063v2.125h-1.063v-2.125ZM23.594 28.781h2.125a.531.531 0 0 0 .531-.531v-3.188a.532.532 0 0 0-.531-.53h-2.125a.531.531 0 0 0-.532.53v3.188a.532.532 0 0 0 .532.531Zm.531-3.187h1.063v2.125h-1.063v-2.125ZM27.844 34.094h2.125a.531.531 0 0 0 .531-.532v-3.187a.532.532 0 0 0-.531-.531h-2.125a.531.531 0 0 0-.532.531v3.188a.532.532 0 0 0 .532.53Zm.531-3.188h1.063v2.125h-1.063v-2.125ZM23.594 34.094h2.125a.531.531 0 0 0 .531-.532v-3.187a.532.532 0 0 0-.531-.531h-2.125a.531.531 0 0 0-.532.531v3.188a.532.532 0 0 0 .532.53Zm.531-3.188h1.063v2.125h-1.063v-2.125ZM32.094 34.094h2.125a.531.531 0 0 0 .531-.532v-3.187a.532.532 0 0 0-.531-.531h-2.125a.531.531 0 0 0-.532.531v3.188a.532.532 0 0 0 .532.53Zm.531-3.188h1.063v2.125h-1.063v-2.125ZM36.344 34.094h2.125a.531.531 0 0 0 .531-.532v-3.187a.532.532 0 0 0-.531-.531h-2.125a.531.531 0 0 0-.532.531v3.188a.532.532 0 0 0 .532.53Zm.531-3.188h1.063v2.125h-1.063v-2.125ZM27.844 39.406h2.125a.531.531 0 0 0 .531-.531v-3.188a.532.532 0 0 0-.531-.53h-2.125a.531.531 0 0 0-.532.53v3.188a.532.532 0 0 0 .532.531Zm.531-3.187h1.063v2.125h-1.063v-2.125ZM23.594 39.406h2.125a.531.531 0 0 0 .531-.531v-3.188a.532.532 0 0 0-.531-.53h-2.125a.531.531 0 0 0-.532.53v3.188a.532.532 0 0 0 .532.531Zm.531-3.187h1.063v2.125h-1.063v-2.125ZM32.094 39.406h2.125a.531.531 0 0 0 .531-.531v-3.188a.532.532 0 0 0-.531-.53h-2.125a.531.531 0 0 0-.532.53v3.188a.532.532 0 0 0 .532.531Zm.531-3.187h1.063v2.125h-1.063v-2.125ZM36.344 39.406h2.125a.531.531 0 0 0 .531-.531v-3.188a.532.532 0 0 0-.531-.53h-2.125a.531.531 0 0 0-.532.53v3.188a.532.532 0 0 0 .532.531Zm.531-3.187h1.063v2.125h-1.063v-2.125Z"/><path fill="#616161" d="M45.906 36.219h-4.781V17.625a.531.531 0 0 0-.531-.531H21.469a.532.532 0 0 0-.532.531v19.063a2.954 2.954 0 0 0-4.417 3.36 2.954 2.954 0 0 0 1.002 5.733c.449-.002.89-.109 1.29-.311v1.905a.532.532 0 0 0 1.063 0V45.47c.332.164.693.263 1.063.292v1.613a.532.532 0 0 0 .53.531h23.376a.531.531 0 0 0 .531-.531v-7.969h.531a.531.531 0 0 0 .532-.531V36.75a.531.531 0 0 0-.532-.531Zm-26.562 6.375a.532.532 0 0 0-.532.531v1.063c-.344.338-.807.529-1.29.53a1.89 1.89 0 0 1-.197-3.771.532.532 0 0 0 .4-.8 1.867 1.867 0 0 1-.276-.969 1.897 1.897 0 0 1 3.794 0 1.865 1.865 0 0 1-.275.968.531.531 0 0 0 .4.8 1.89 1.89 0 0 1-.2 3.773 1.853 1.853 0 0 1-1.293-.532v-1.062a.531.531 0 0 0-.531-.531Zm14.343 4.25h-5.312V41.53h5.313v5.313Zm6.376 0H34.75V41a.531.531 0 0 0-.531-.531h-6.375a.532.532 0 0 0-.532.531v5.844H22V45.66a2.951 2.951 0 0 0 .168-5.612A2.897 2.897 0 0 0 22 37.882V18.156h18.063v28.688Zm4.25 0h-3.188v-7.438h3.188v7.438Zm1.062-8.5h-4.25V37.28h4.25v1.063ZM3.96 59.348l-2.82 6.864a.44.44 0 0 1-.168.228.433.433 0 0 1-.252.084c-.152 0-.264-.04-.336-.12a.416.416 0 0 1-.108-.288.363.363 0 0 1 .024-.18l3.108-7.56c.04-.112.1-.192.18-.24a.458.458 0 0 1 .288-.072.47.47 0 0 1 .276.084.422.422 0 0 1 .18.228l3.096 7.488a.544.544 0 0 1 .036.192.45.45 0 0 1-.144.348.493.493 0 0 1-.324.12.45.45 0 0 1-.264-.084.504.504 0 0 1-.18-.24l-2.856-6.864.264.012Zm-2.22 4.908.408-.936h3.564l.18.936H1.74Zm9.93-4.056a2.69 2.69 0 0 1 1.465.408c.432.272.772.648 1.02 1.128.256.48.384 1.032.384 1.656 0 .616-.128 1.168-.384 1.656-.248.48-.588.86-1.02 1.14a2.61 2.61 0 0 1-1.44.408 2.64 2.64 0 0 1-.84-.132 3.463 3.463 0 0 1-.708-.36 2.648 2.648 0 0 1-.528-.504 2.1 2.1 0 0 1-.312-.564l.264-.168v3.54a.497.497 0 0 1-.132.348.45.45 0 0 1-.348.144.474.474 0 0 1-.48-.492V60.74a.474.474 0 0 1 .48-.48.45.45 0 0 1 .348.144c.088.088.132.2.132.336v1.068l-.18-.096c.056-.2.152-.392.288-.576.144-.184.316-.344.516-.48.208-.144.436-.256.684-.336.256-.08.52-.12.792-.12Zm-.107.888c-.4 0-.756.1-1.068.3a2.1 2.1 0 0 0-.72.816c-.168.344-.252.74-.252 1.188 0 .44.084.836.252 1.188.176.352.416.628.72.828.312.2.668.3 1.068.3s.752-.1 1.056-.3c.304-.2.544-.476.72-.828a2.62 2.62 0 0 0 .264-1.188c0-.448-.088-.844-.264-1.188a2.1 2.1 0 0 0-.72-.816c-.304-.2-.656-.3-1.056-.3Zm9.53-.852c.137 0 .249.048.337.144.096.088.144.2.144.336v5.292a.474.474 0 0 1-.144.348.435.435 0 0 1-.336.144.45.45 0 0 1-.348-.144.497.497 0 0 1-.132-.348v-1.14l.228-.024c0 .176-.06.368-.18.576-.12.208-.284.404-.492.588a2.822 2.822 0 0 1-.744.444c-.28.112-.584.168-.912.168-.544 0-1.032-.14-1.464-.42a3.1 3.1 0 0 1-1.032-1.164c-.248-.488-.372-1.044-.372-1.668 0-.632.124-1.188.372-1.668.256-.488.6-.868 1.032-1.14.432-.28.912-.42 1.44-.42.344 0 .664.056.96.168.296.112.552.264.768.456.224.192.396.404.516.636.128.232.192.464.192.696l-.312-.072v-1.308c0-.136.044-.248.132-.336a.45.45 0 0 1 .348-.144Zm-2.471 5.496c.4 0 .752-.104 1.056-.312.312-.208.552-.488.72-.84.176-.36.264-.764.264-1.212 0-.44-.088-.836-.264-1.188a1.95 1.95 0 0 0-.72-.84 1.825 1.825 0 0 0-1.056-.312c-.392 0-.744.1-1.056.3a2.08 2.08 0 0 0-.72.828 2.675 2.675 0 0 0-.264 1.212c0 .448.084.852.252 1.212.176.352.416.632.72.84a1.88 1.88 0 0 0 1.068.312Zm5.21.768a.474.474 0 0 1-.347-.144.497.497 0 0 1-.132-.348v-5.232a.474.474 0 0 1 .48-.48.45.45 0 0 1 .348.144c.088.088.132.2.132.336v1.584l-.144-.252a2.51 2.51 0 0 1 .732-1.356c.192-.192.412-.34.66-.444a1.96 1.96 0 0 1 .816-.168c.176 0 .336.044.48.132.152.08.228.196.228.348 0 .168-.044.292-.132.372a.434.434 0 0 1-.3.12.773.773 0 0 1-.3-.06.801.801 0 0 0-.36-.072c-.2 0-.4.056-.6.168a1.887 1.887 0 0 0-.54.456c-.16.2-.292.428-.396.684a2.208 2.208 0 0 0-.144.804v2.916a.474.474 0 0 1-.144.348.436.436 0 0 1-.336.144Zm4.097-6.168h2.82c.128 0 .232.044.312.132a.427.427 0 0 1 .132.312.44.44 0 0 1-.132.324.422.422 0 0 1-.312.12h-2.82a.427.427 0 0 1-.312-.132.44.44 0 0 1-.132-.324c0-.12.044-.22.132-.3a.427.427 0 0 1 .312-.132Zm1.26-1.632c.136 0 .248.048.336.144.088.088.132.2.132.336v5.796c0 .192.028.336.084.432a.48.48 0 0 0 .216.204.872.872 0 0 0 .276.048c.08 0 .148-.012.204-.036a.476.476 0 0 1 .216-.048c.08 0 .152.04.216.12a.39.39 0 0 1 .108.288c0 .144-.084.268-.252.372a1.116 1.116 0 0 1-.564.144c-.112 0-.252-.008-.42-.024a1.252 1.252 0 0 1-.48-.156 1.07 1.07 0 0 1-.408-.432c-.104-.208-.156-.496-.156-.864V59.18c0-.136.048-.248.144-.336a.474.474 0 0 1 .348-.144Zm6.304 1.5c.544 0 .984.14 1.32.42.344.272.572.66.684 1.164h-.18l.084-.216c.096-.224.26-.44.492-.648.232-.208.5-.38.804-.516.304-.136.62-.204.948-.204.528 0 .944.116 1.248.348.304.224.52.528.648.912.136.376.204.8.204 1.272v3.276a.474.474 0 0 1-.144.348.436.436 0 0 1-.336.144.45.45 0 0 1-.348-.144.497.497 0 0 1-.132-.348v-3.252c0-.312-.048-.592-.144-.84a1.169 1.169 0 0 0-.444-.6c-.2-.152-.476-.228-.828-.228-.328 0-.628.076-.9.228a1.672 1.672 0 0 0-.648.6c-.16.248-.24.528-.24.84v3.252a.497.497 0 0 1-.132.348.45.45 0 0 1-.348.144.474.474 0 0 1-.348-.144.497.497 0 0 1-.132-.348V62.72a2.36 2.36 0 0 0-.132-.816 1.13 1.13 0 0 0-.42-.588c-.2-.152-.476-.228-.828-.228-.32 0-.612.076-.876.228a1.73 1.73 0 0 0-.636.588c-.16.24-.24.512-.24.816v3.288a.474.474 0 0 1-.144.348.436.436 0 0 1-.336.144.474.474 0 0 1-.348-.144.497.497 0 0 1-.132-.348v-5.232a.474.474 0 0 1 .48-.48.45.45 0 0 1 .348.144c.088.088.132.2.132.336v.912l-.264.288c.032-.208.112-.416.24-.624a2.671 2.671 0 0 1 1.212-.996c.256-.104.528-.156.816-.156Zm10.896 6.42c-.64 0-1.2-.136-1.68-.408a2.964 2.964 0 0 1-1.128-1.116c-.264-.48-.396-1.032-.396-1.656 0-.696.136-1.288.408-1.776.28-.496.64-.872 1.08-1.128.448-.264.92-.396 1.416-.396.368 0 .724.068 1.068.204.344.136.648.336.912.6.264.256.476.568.636.936.16.36.244.764.252 1.212a.423.423 0 0 1-.144.324.482.482 0 0 1-.336.132h-4.74l-.216-.828h4.62l-.192.168v-.264a1.515 1.515 0 0 0-.336-.84 1.835 1.835 0 0 0-.684-.552 1.9 1.9 0 0 0-.84-.192c-.24 0-.48.044-.72.132-.232.08-.444.216-.636.408a2.14 2.14 0 0 0-.456.72c-.112.296-.168.652-.168 1.068 0 .464.092.872.276 1.224.192.352.456.632.792.84.336.2.728.3 1.176.3.28 0 .524-.036.732-.108.208-.072.388-.16.54-.264.152-.112.28-.224.384-.336a.53.53 0 0 1 .3-.108c.12 0 .216.04.288.12.08.08.12.176.12.288 0 .136-.064.256-.192.36-.224.248-.528.468-.912.66a2.797 2.797 0 0 1-1.224.276Zm7.095-6.48c.544 0 .972.112 1.284.336.312.224.532.524.66.9.136.376.204.796.204 1.26v3.372a.474.474 0 0 1-.144.348.436.436 0 0 1-.336.144.474.474 0 0 1-.348-.144.497.497 0 0 1-.132-.348V62.66c0-.304-.048-.576-.144-.816a1.15 1.15 0 0 0-.456-.588c-.208-.152-.496-.228-.864-.228-.336 0-.644.076-.924.228-.28.144-.504.34-.672.588-.168.24-.252.512-.252.816v3.348a.474.474 0 0 1-.144.348.436.436 0 0 1-.336.144.474.474 0 0 1-.348-.144.497.497 0 0 1-.132-.348v-5.232a.474.474 0 0 1 .48-.48.45.45 0 0 1 .348.144c.088.088.132.2.132.336v.852l-.24.264c.04-.208.132-.416.276-.624a2.45 2.45 0 0 1 .54-.576c.216-.168.456-.3.72-.396.264-.104.54-.156.828-.156Zm3.683.192h2.82c.128 0 .232.044.313.132a.427.427 0 0 1 .132.312.44.44 0 0 1-.133.324.422.422 0 0 1-.312.12h-2.82a.427.427 0 0 1-.312-.132.44.44 0 0 1-.131-.324c0-.12.044-.22.132-.3a.427.427 0 0 1 .311-.132Zm1.26-1.632c.136 0 .248.048.337.144.087.088.131.2.131.336v5.796c0 .192.028.336.084.432a.48.48 0 0 0 .217.204.872.872 0 0 0 .276.048c.08 0 .148-.012.203-.036a.476.476 0 0 1 .217-.048c.08 0 .151.04.215.12a.39.39 0 0 1 .108.288c0 .144-.084.268-.252.372a1.116 1.116 0 0 1-.563.144c-.112 0-.252-.008-.42-.024a1.252 1.252 0 0 1-.48-.156 1.07 1.07 0 0 1-.408-.432c-.105-.208-.157-.496-.157-.864V59.18c0-.136.048-.248.145-.336a.474.474 0 0 1 .348-.144Z"/></svg>