<svg xmlns="http://www.w3.org/2000/svg" width="73" height="84" fill="none"><g fill="#616161" clip-path="url(#a)"><path d="M53.002 36.717h-20.21l-1.038-6.307a1.806 1.806 0 0 1 1.61 1.502c.112.678 1.082.43.983-.162-.397-2.418 3.186-2.845 3.558-.584.097.594 1.094.518.983-.162-.366-2.222 3.008-2.889 3.53-.716.04.8 1.153.59.979-.189a11.955 11.955 0 0 0-4.833-7.668 11.958 11.958 0 0 0-8.907-2.108l-.016.003h-.001l-.034.005h-.002l-.01.002c-6.55 1.077-11.003 7.282-9.926 13.831.105.638 1.169.49 1.06-.174a1.818 1.818 0 0 1 1.486-2.071c.946-.156 1.917.548 2.07 1.486.104.626 1.095.516.984-.162-.361-2.194 2.93-2.927 3.517-.766.194.714 1.107.786 1.01-.07-.08-.705.361-1.5.98-1.813l1.007 6.123H20.005a.498.498 0 0 0 0 .996h11.94l.516 3.133c-1-.69-2.047-1.317-3.196-1.707-1.66-.564-3.547-.567-5.317-.01-1.77.556-3.315 1.64-4.351 3.052a.498.498 0 1 0 .802.59c.912-1.243 2.279-2.199 3.848-2.692 1.569-.494 3.237-.493 4.697.003 1.547.525 2.956 1.565 4.319 2.57 1.92 1.418 3.907 2.884 6.365 3.005.109.005.217.008.325.008 1.365 0 2.652-.412 3.763-.805a.498.498 0 1 0-.332-.939c-1.11.393-2.402.806-3.707.741-2.158-.106-3.938-1.42-5.823-2.81l-.26-.192a.498.498 0 0 0-.006-.096l-.633-3.851h20.047a.498.498 0 1 0 0-.996Zm-20.045-6.95a2.816 2.816 0 0 0-3.45.562c-.27-2.159-.39-4.173-.342-5.807.072-2.429.498-3.15.64-3.214h.001c.162.016.796.565 1.64 2.843.572 1.538 1.104 3.492 1.54 5.632l-.029-.016Zm1.022-.1c-.464-2.294-1.037-4.383-1.654-6.011-.37-.974-.74-1.744-1.103-2.292 1.14.255 2.286 1.005 3.331 2.202 1.218 1.394 2.188 3.264 2.808 5.38a2.81 2.81 0 0 0-1.689-.25 2.786 2.786 0 0 0-1.693.971Zm7.844-1.503a2.819 2.819 0 0 0-3.4.88c-.945-3.485-2.749-6.257-4.857-7.694 1.574.292 3.078.93 4.417 1.89a10.967 10.967 0 0 1 3.84 4.925ZM22.508 30.9a2.93 2.93 0 0 0-1.994.833 11.082 11.082 0 0 1 5.64-9.157c-.544.72-1.004 1.59-1.358 2.594-.215.607.724.938.939.331.624-1.768 1.596-3.065 2.758-3.73-.173.635-.278 1.482-.318 2.557-.065 1.747.062 3.92.36 6.255a2.804 2.804 0 0 0-3.537.463c-.05-1.11.006-2.19.166-3.231.098-.636-.886-.788-.984-.152a17.472 17.472 0 0 0-.164 3.681 2.791 2.791 0 0 0-1.508-.444ZM47.981 23.78a2.76 2.76 0 0 0 2.758-2.758 2.76 2.76 0 0 0-2.758-2.758 2.76 2.76 0 0 0-2.757 2.758 2.76 2.76 0 0 0 2.757 2.758Zm0-4.52c.972 0 1.762.79 1.762 1.762s-.79 1.762-1.762 1.762c-.971 0-1.762-.79-1.762-1.762 0-.971.79-1.762 1.762-1.762ZM47.981 17.678a.498.498 0 0 0 .498-.498v-1.179a.498.498 0 0 0-.996 0v1.18c0 .274.223.497.498.497ZM47.483 24.864v1.179a.498.498 0 1 0 .996 0v-1.18a.498.498 0 0 0-.996 0ZM50.698 18.803a.496.496 0 0 0 .352-.145l.834-.834a.498.498 0 1 0-.705-.704l-.833.833a.498.498 0 0 0 .352.85ZM44.913 23.387l-.834.833a.498.498 0 1 0 .704.704l.834-.833a.498.498 0 1 0-.704-.704ZM51.325 21.022c0 .275.223.498.498.498h1.179a.498.498 0 0 0 0-.996h-1.179a.498.498 0 0 0-.498.498ZM42.96 21.52h1.18a.498.498 0 0 0 0-.996h-1.18a.498.498 0 1 0 0 .996ZM50.346 23.387a.498.498 0 0 0 0 .704l.833.833a.496.496 0 0 0 .704 0 .498.498 0 0 0 0-.704l-.833-.833a.498.498 0 0 0-.704 0ZM44.913 18.658a.496.496 0 0 0 .704 0 .498.498 0 0 0 0-.705l-.834-.833a.498.498 0 1 0-.704.704l.834.834ZM21.781 43.763c-.64 0-.642.996 0 .996.641 0 .642-.996 0-.996ZM28.657 46.543c-.641 0-.642.996 0 .996.64 0 .642-.996 0-.996Z"/><path d="M30.39 42.776c-.642 0-.643.996 0 .996.64 0 .641-.996 0-.996ZM43.586 48.501c-.641 0-.642.996 0 .996.64 0 .642-.996 0-.996ZM49.491 45.732c-.64 0-.642.996 0 .996.641 0 .642-.996 0-.996ZM38.816 41.147a.498.498 0 0 0 0 .996h3.832a.498.498 0 1 0 0-.996h-3.832ZM50.739 39.608a.498.498 0 0 0-.498-.497h-8.565a.498.498 0 1 0 0 .995h8.565a.498.498 0 0 0 .498-.498ZM53.312 44.28c-1.9-1.594-4.128-2.05-6.813-1.392a.498.498 0 0 0 .237.967c2.355-.576 4.296-.188 5.936 1.188a.496.496 0 0 0 .701-.061.498.498 0 0 0-.061-.702Z"/></g><path fill="#616161" d="M4.668 58.1c.704 0 1.244.184 1.62.552.384.36.576.872.576 1.536 0 .352-.08.676-.24.972-.16.296-.396.532-.708.708-.304.176-.68.272-1.128.288l-.024-.336c.28 0 .568.04.864.12.296.08.568.208.816.384.256.176.46.408.612.696.16.288.24.644.24 1.068 0 .456-.076.84-.228 1.152a2.07 2.07 0 0 1-.612.744 2.391 2.391 0 0 1-.84.396c-.304.08-.612.12-.924.12H1.536a.474.474 0 0 1-.348-.144.497.497 0 0 1-.132-.348V58.58a.474.474 0 0 1 .48-.48h3.132Zm-.144.948h-2.58l.144-.216v2.988l-.132-.156h2.592c.352 0 .652-.112.9-.336.256-.232.384-.572.384-1.02 0-.4-.116-.708-.348-.924-.232-.224-.552-.336-.96-.336Zm.096 3.576H2.004l.084-.084v3.132l-.096-.108h2.664c.472 0 .856-.12 1.152-.36.304-.24.456-.612.456-1.116 0-.392-.08-.692-.24-.9a1.206 1.206 0 0 0-.624-.444 2.525 2.525 0 0 0-.78-.12Zm6.964 3.996c-.64 0-1.2-.136-1.68-.408a2.964 2.964 0 0 1-1.128-1.116c-.264-.48-.396-1.032-.396-1.656 0-.696.136-1.288.408-1.776.28-.496.64-.872 1.08-1.128.448-.264.92-.396 1.416-.396.368 0 .724.068 1.068.204.344.136.648.336.912.6.264.256.476.568.636.936.16.36.244.764.252 1.212a.423.423 0 0 1-.144.324.482.482 0 0 1-.336.132h-4.74l-.216-.828h4.62l-.192.168v-.264a1.515 1.515 0 0 0-.336-.84 1.835 1.835 0 0 0-.684-.552 1.9 1.9 0 0 0-.84-.192c-.24 0-.48.044-.72.132-.232.08-.444.216-.636.408a2.14 2.14 0 0 0-.456.72c-.112.296-.168.652-.168 1.068 0 .464.092.872.276 1.224.192.352.456.632.792.84.336.2.728.3 1.176.3.28 0 .524-.036.732-.108.208-.072.388-.16.54-.264.152-.112.28-.224.384-.336a.53.53 0 0 1 .3-.108c.12 0 .216.04.288.12.08.08.12.176.12.288 0 .136-.064.256-.192.36-.224.248-.528.468-.912.66a2.797 2.797 0 0 1-1.224.276Zm9.17-6.384c.136 0 .248.048.336.144.096.088.144.2.144.336v5.292a.474.474 0 0 1-.144.348.436.436 0 0 1-.336.144.45.45 0 0 1-.348-.144.497.497 0 0 1-.132-.348v-1.14l.228-.024c0 .176-.06.368-.18.576-.12.208-.284.404-.492.588a2.822 2.822 0 0 1-.744.444c-.28.112-.584.168-.912.168-.544 0-1.032-.14-1.464-.42a3.1 3.1 0 0 1-1.032-1.164c-.248-.488-.372-1.044-.372-1.668 0-.632.124-1.188.372-1.668.256-.488.6-.868 1.032-1.14.432-.28.912-.42 1.44-.42.344 0 .664.056.96.168.296.112.552.264.768.456.224.192.396.404.516.636.128.232.192.464.192.696l-.312-.072v-1.308c0-.136.044-.248.132-.336a.45.45 0 0 1 .348-.144Zm-2.472 5.496c.4 0 .752-.104 1.056-.312.312-.208.552-.488.72-.84.176-.36.264-.764.264-1.212 0-.44-.088-.836-.264-1.188a1.95 1.95 0 0 0-.72-.84 1.825 1.825 0 0 0-1.056-.312c-.392 0-.744.1-1.056.3a2.08 2.08 0 0 0-.72.828 2.675 2.675 0 0 0-.264 1.212c0 .448.084.852.252 1.212.176.352.416.632.72.84.312.208.668.312 1.068.312Zm7.491-5.592c.408 0 .776.044 1.104.132.328.088.588.208.78.36.192.152.288.324.288.516a.493.493 0 0 1-.108.3.342.342 0 0 1-.288.144.564.564 0 0 1-.276-.06 1.096 1.096 0 0 1-.192-.156.708.708 0 0 0-.24-.168 1.298 1.298 0 0 0-.42-.132 3.216 3.216 0 0 0-.552-.048c-.44 0-.828.104-1.164.312a2.253 2.253 0 0 0-.78.84 2.465 2.465 0 0 0-.288 1.2c0 .448.092.848.276 1.2a2.083 2.083 0 0 0 1.908 1.152c.28 0 .504-.024.672-.072.168-.048.308-.104.42-.168.144-.08.252-.16.324-.24.08-.08.184-.12.312-.12.136 0 .24.044.312.132.08.088.12.196.12.324 0 .144-.1.296-.3.456-.2.16-.472.296-.816.408-.336.112-.72.168-1.152.168-.608 0-1.14-.14-1.596-.42a2.997 2.997 0 0 1-1.068-1.164 3.65 3.65 0 0 1-.372-1.656c0-.608.128-1.156.384-1.644a3.057 3.057 0 0 1 1.092-1.164c.464-.288 1.004-.432 1.62-.432Zm6.463.06c.528 0 .944.116 1.248.348.312.224.532.528.66.912.136.376.204.796.204 1.26v3.288a.474.474 0 0 1-.144.348.436.436 0 0 1-.336.144.474.474 0 0 1-.348-.144.497.497 0 0 1-.132-.348V62.72a2.36 2.36 0 0 0-.132-.816 1.172 1.172 0 0 0-.444-.588c-.2-.152-.476-.228-.828-.228-.328 0-.628.076-.9.228-.272.144-.488.34-.648.588-.16.24-.24.512-.24.816v3.288a.474.474 0 0 1-.144.348.436.436 0 0 1-.336.144.474.474 0 0 1-.348-.144.497.497 0 0 1-.132-.348V58.1a.474.474 0 0 1 .48-.48.45.45 0 0 1 .348.144c.088.088.132.2.132.336v3.588l-.24.264c.04-.208.128-.416.264-.624.136-.216.308-.408.516-.576.208-.168.44-.3.696-.396.256-.104.524-.156.804-.156Zm10.195 0c.528 0 .944.116 1.248.348.312.224.532.528.66.912.136.376.204.796.204 1.26v3.288a.474.474 0 0 1-.144.348.436.436 0 0 1-.336.144.474.474 0 0 1-.348-.144.497.497 0 0 1-.132-.348V62.72a2.36 2.36 0 0 0-.132-.816 1.172 1.172 0 0 0-.444-.588c-.2-.152-.476-.228-.828-.228-.328 0-.628.076-.9.228-.272.144-.488.34-.648.588-.16.24-.24.512-.24.816v3.288a.474.474 0 0 1-.144.348.436.436 0 0 1-.336.144.474.474 0 0 1-.348-.144.497.497 0 0 1-.132-.348V58.1a.474.474 0 0 1 .48-.48.45.45 0 0 1 .348.144c.088.088.132.2.132.336v3.588l-.24.264c.04-.208.128-.416.264-.624.136-.216.308-.408.516-.576.208-.168.44-.3.696-.396.256-.104.524-.156.804-.156Zm9.783 3.18c0 .624-.14 1.18-.42 1.668a3.028 3.028 0 0 1-1.116 1.152c-.464.28-.988.42-1.572.42-.584 0-1.112-.14-1.584-.42a3.118 3.118 0 0 1-1.128-1.152c-.272-.488-.408-1.044-.408-1.668 0-.624.136-1.18.408-1.668.28-.488.656-.872 1.128-1.152.472-.28 1-.42 1.584-.42.584 0 1.108.14 1.572.42.472.28.844.664 1.116 1.152.28.488.42 1.044.42 1.668Zm-.96 0c0-.464-.096-.872-.288-1.224a2.074 2.074 0 0 0-.768-.828c-.32-.2-.684-.3-1.092-.3-.408 0-.776.1-1.104.3-.32.2-.576.476-.768.828-.192.352-.288.76-.288 1.224 0 .456.096.86.288 1.212.192.352.448.632.768.84.328.2.696.3 1.104.3.408 0 .772-.1 1.092-.3a2.16 2.16 0 0 0 .768-.84 2.49 2.49 0 0 0 .288-1.212Zm7.047-3.084a.45.45 0 0 1 .349.144c.087.088.132.2.132.336v3.276c0 .808-.228 1.436-.684 1.884-.448.44-1.076.66-1.884.66-.8 0-1.428-.22-1.884-.66-.448-.448-.672-1.076-.672-1.884v-3.276c0-.136.044-.248.131-.336a.474.474 0 0 1 .349-.144.45.45 0 0 1 .348.144c.088.088.132.2.132.336v3.276c0 .544.14.956.42 1.236.28.28.672.42 1.176.42.52 0 .916-.14 1.188-.42.28-.28.42-.692.42-1.236v-3.276c0-.136.043-.248.131-.336a.474.474 0 0 1 .348-.144Zm1.91 5.22a.496.496 0 0 1-.095-.324c.008-.12.076-.224.204-.312a.412.412 0 0 1 .276-.072c.112.008.212.06.3.156.224.264.48.476.768.636.288.152.64.228 1.056.228a2.41 2.41 0 0 0 .576-.096c.192-.056.352-.152.48-.288a.788.788 0 0 0 .204-.564c0-.224-.068-.4-.204-.528a1.442 1.442 0 0 0-.528-.324 5.255 5.255 0 0 0-.708-.228 12.585 12.585 0 0 1-.78-.24 3.535 3.535 0 0 1-.696-.348 1.82 1.82 0 0 1-.492-.528 1.583 1.583 0 0 1-.18-.78c0-.36.096-.672.288-.936.2-.264.464-.468.792-.612.336-.144.7-.216 1.092-.216.224 0 .456.028.696.084.248.048.488.136.72.264.232.12.436.288.612.504.072.08.112.18.12.3.008.12-.044.228-.156.324a.441.441 0 0 1-.564-.036c-.168-.2-.38-.352-.636-.456a1.99 1.99 0 0 0-.828-.168c-.192 0-.38.028-.564.084a1.05 1.05 0 0 0-.468.288c-.12.128-.18.308-.18.54.008.216.08.392.216.528s.32.248.552.336c.232.08.488.16.768.24.256.064.5.14.732.228.24.08.456.188.648.324s.344.312.456.528c.112.208.168.472.168.792 0 .368-.104.688-.312.96a2.024 2.024 0 0 1-.828.612c-.336.136-.7.204-1.092.204-.44 0-.876-.084-1.308-.252a2.617 2.617 0 0 1-1.104-.852Zm8.9 1.104c-.64 0-1.2-.136-1.68-.408a2.964 2.964 0 0 1-1.127-1.116c-.264-.48-.397-1.032-.397-1.656 0-.696.136-1.288.409-1.776.28-.496.64-.872 1.08-1.128.448-.264.92-.396 1.415-.396.368 0 .724.068 1.068.204.344.136.648.336.912.6.264.256.477.568.636.936.16.36.244.764.252 1.212a.423.423 0 0 1-.144.324.482.482 0 0 1-.335.132h-4.74l-.216-.828h4.62l-.193.168v-.264a1.515 1.515 0 0 0-.336-.84 1.835 1.835 0 0 0-.683-.552 1.9 1.9 0 0 0-.84-.192c-.24 0-.48.044-.72.132-.233.08-.445.216-.636.408a2.14 2.14 0 0 0-.457.72c-.111.296-.167.652-.167 1.068 0 .464.092.872.276 1.224.191.352.456.632.791.84.337.2.728.3 1.177.3.28 0 .524-.036.732-.108.207-.072.387-.16.54-.264.151-.112.28-.224.383-.336a.53.53 0 0 1 .3-.108c.12 0 .216.04.288.12.08.08.12.176.12.288 0 .136-.063.256-.191.36-.225.248-.529.468-.913.66a2.797 2.797 0 0 1-1.223.276Z"/><defs><clipPath id="a"><path fill="#fff" d="M19.5 15.5h34v34h-34z"/></clipPath></defs></svg>