<svg xmlns="http://www.w3.org/2000/svg" width="38" height="84" fill="none"><g fill="#616161" clip-path="url(#a)"><path d="M35.987 31.759a2.262 2.262 0 0 0-.849-1.538l-3.105-2.298V22.3H27.5v2.268l-8.466-6.265L2.885 29.667c-.48.369-.788.903-.866 1.503-.078.601.082 1.195.451 1.675.763.99 2.188 1.177 3.156.432l.341-.236v1.358a1.98 1.98 0 0 0-1.133 1.785 1.98 1.98 0 0 0 1.133 1.784v2.098a1.98 1.98 0 0 0-1.133 1.784 1.98 1.98 0 0 0 1.133 1.785v2.097a1.98 1.98 0 0 0-1.133 1.785c0 1.093.89 1.983 1.983 1.983h24.366c1.094 0 1.984-.89 1.984-1.983a1.98 1.98 0 0 0-1.7-1.955v-1.758a1.98 1.98 0 0 0 1.7-1.954 1.98 1.98 0 0 0-1.7-1.954v-1.758a1.98 1.98 0 0 0 1.7-1.954 1.98 1.98 0 0 0-1.7-1.955v-1.08l.854.622a2.266 2.266 0 0 0 3.666-2.013Zm-7.354-8.325H30.9v3.65l-2.267-1.677v-1.973Zm-13.6 20.4v1.7H7.1v-1.7h7.934ZM7.1 39.866v-1.7h7.934v1.7H7.1ZM6.817 41h8.217v1.7H6.817a.851.851 0 0 1 0-1.7Zm8.217 7.367H6.817a.851.851 0 0 1 0-1.7h8.217v1.7Zm6.8 0h-5.667v-10.2h5.666v10.2Zm1.133-8.5v-1.7h7.366v1.7h-7.366Zm0 5.666v-1.7h7.366v1.7h-7.366Zm9.066 1.984c0 .468-.381.85-.85.85h-8.216v-1.7h8.216c.469 0 .85.381.85.85Zm0-5.667c0 .469-.381.85-.85.85h-8.216V41h8.216c.469 0 .85.382.85.85Zm0-5.666c0 .468-.381.85-.85.85H6.817a.851.851 0 0 1 0-1.7h24.366c.469 0 .85.38.85.85ZM21.267 34.2h-1.7v-1.7h1.7v1.7Zm0-2.833h-1.7v-1.7h1.7v1.7Zm-2.833 0h-1.7v-1.7h1.7v1.7Zm-1.7 1.133h1.7v1.7h-1.7v-1.7Zm7.933 0h5.666v1.7H22.4v-5.666h-6.8V34.2H7.1v-1.7h6.234a.566.566 0 1 0 0-1.133H8.38l2.452-1.7H13.9v-1.133h-1.432l2.452-1.7h7.893l1.357.99.973.71H24.1v1.133h2.595l2.33 1.7h-4.359a.566.566 0 1 0 0 1.133Zm-8.113-6.8 2.413-1.672L21.26 25.7h-4.706Zm18.06 7.011a1.135 1.135 0 0 1-1.593.17l-1.587-1.158-.485-.356h-.003l-2.329-1.7h.001L23.182 25.7l-4.2-3.063-4.417 3.063-5.722 3.967h.002l-2.487 1.724h-.004l-.2.142-1.196.829a1.135 1.135 0 0 1-1.402-1.783l15.461-10.878 8.483 6.277 1.245.921 5.7 4.219c.236.19.384.46.415.761.032.3-.055.596-.245.832Z"/><path d="M17.3 43.833a.567.567 0 1 0 0-1.133.567.567 0 0 0 0 1.133ZM28.633 21.734a.596.596 0 0 0 .403-.165.596.596 0 0 0 .164-.402.595.595 0 0 0-.164-.402.593.593 0 0 0-.805 0 .592.592 0 0 0-.164.402c0 .147.061.295.164.402a.597.597 0 0 0 .402.165ZM30.9 21.734a.566.566 0 0 0 .567-.567V18.9a.566.566 0 1 0-1.134 0v2.267c0 .313.254.567.567.567ZM30.9 17.767a.566.566 0 0 0 .567-.566v-1.134a.566.566 0 1 0-1.134 0v1.134c0 .312.254.566.567.566ZM28.633 20.034a.566.566 0 0 0 .567-.567v-1.133a.566.566 0 1 0-1.133 0v1.133c0 .313.253.567.566.567ZM28.633 17.2a.566.566 0 0 0 .567-.566v-.567a.566.566 0 1 0-1.133 0v.567c0 .313.253.567.566.567Z"/></g><path fill="#616161" d="M7.104 58.652a.4.4 0 0 1 .228.324.483.483 0 0 1-.108.396.357.357 0 0 1-.276.168.64.64 0 0 1-.336-.072 3.529 3.529 0 0 0-.852-.372 3.17 3.17 0 0 0-.96-.144c-.472 0-.904.084-1.296.252-.392.16-.732.388-1.02.684a3.137 3.137 0 0 0-.672 1.056c-.16.408-.24.86-.24 1.356 0 .528.084 1 .252 1.416.168.416.396.772.684 1.068.296.288.636.508 1.02.66.392.152.816.228 1.272.228a3.392 3.392 0 0 0 1.812-.516.56.56 0 0 1 .336-.06.45.45 0 0 1 .288.168.517.517 0 0 1 .108.408.398.398 0 0 1-.228.3c-.2.12-.428.232-.684.336a5.178 5.178 0 0 1-.804.228 4.445 4.445 0 0 1-2.46-.216 4.087 4.087 0 0 1-1.356-.864A4.19 4.19 0 0 1 .876 64.1C.652 63.564.54 62.964.54 62.3c0-.624.108-1.196.324-1.716.216-.52.516-.972.9-1.356a4.318 4.318 0 0 1 1.356-.9 4.336 4.336 0 0 1 1.68-.324c.416 0 .82.056 1.212.168.4.112.764.272 1.092.48Zm6.63 1.584c.136 0 .248.048.336.144.096.088.144.2.144.336v5.292a.474.474 0 0 1-.144.348.436.436 0 0 1-.336.144.45.45 0 0 1-.348-.144.497.497 0 0 1-.132-.348v-1.14l.228-.024c0 .176-.06.368-.18.576-.12.208-.284.404-.492.588a2.822 2.822 0 0 1-.744.444c-.28.112-.584.168-.912.168-.544 0-1.032-.14-1.464-.42a3.1 3.1 0 0 1-1.032-1.164c-.248-.488-.372-1.044-.372-1.668 0-.632.124-1.188.372-1.668.256-.488.6-.868 1.032-1.14.432-.28.912-.42 1.44-.42.344 0 .664.056.96.168.296.112.552.264.768.456.224.192.396.404.516.636.128.232.192.464.192.696l-.312-.072v-1.308c0-.136.044-.248.132-.336a.45.45 0 0 1 .348-.144Zm-2.472 5.496c.4 0 .752-.104 1.056-.312.312-.208.552-.488.72-.84.176-.36.264-.764.264-1.212 0-.44-.088-.836-.264-1.188a1.95 1.95 0 0 0-.72-.84 1.825 1.825 0 0 0-1.056-.312c-.392 0-.744.1-1.056.3a2.08 2.08 0 0 0-.72.828 2.675 2.675 0 0 0-.264 1.212c0 .448.084.852.252 1.212.176.352.416.632.72.84.312.208.668.312 1.068.312Zm7.791-5.592c.544 0 1.032.14 1.464.42.433.272.773.648 1.02 1.128.257.48.385 1.036.385 1.668 0 .632-.128 1.192-.384 1.68a3.005 3.005 0 0 1-1.02 1.164c-.425.28-.905.42-1.44.42a2.64 2.64 0 0 1-.84-.132 3.14 3.14 0 0 1-.709-.372 2.944 2.944 0 0 1-.527-.516 2.1 2.1 0 0 1-.313-.564l.264-.168v1.2a.497.497 0 0 1-.131.348.45.45 0 0 1-.348.144.497.497 0 0 1-.349-.132.513.513 0 0 1-.132-.36v-7.956c0-.136.045-.252.132-.348a.474.474 0 0 1 .349-.144.45.45 0 0 1 .348.144.497.497 0 0 1 .131.348v3.696l-.18-.096c.056-.2.152-.392.288-.576.145-.192.317-.36.517-.504a2.66 2.66 0 0 1 .684-.36 2.42 2.42 0 0 1 .791-.132Zm-.108.888c-.4 0-.756.1-1.067.3a2.08 2.08 0 0 0-.72.828 2.753 2.753 0 0 0-.253 1.2c0 .448.084.852.252 1.212.177.36.416.644.72.852.313.208.669.312 1.069.312.4 0 .752-.104 1.055-.312.304-.208.544-.492.72-.852.177-.36.264-.764.264-1.212 0-.448-.087-.848-.264-1.2a2.08 2.08 0 0 0-.72-.828c-.303-.2-.655-.3-1.056-.3Zm5.344 4.98a.474.474 0 0 1-.144.348.436.436 0 0 1-.336.144.45.45 0 0 1-.348-.144.497.497 0 0 1-.132-.348V60.68a.474.474 0 0 1 .48-.48c.136 0 .248.048.336.144.096.088.144.2.144.336v5.328Zm-.48-6.612c-.2 0-.348-.04-.444-.12-.096-.08-.144-.204-.144-.372v-.168c0-.168.052-.292.156-.372.104-.08.252-.12.444-.12s.336.04.432.12c.096.08.144.204.144.372v.168c0 .168-.052.292-.156.372-.096.08-.24.12-.432.12Zm5.288.744c.544 0 .972.112 1.284.336.312.224.532.524.66.9.136.376.204.796.204 1.26v3.372a.474.474 0 0 1-.144.348.436.436 0 0 1-.336.144.474.474 0 0 1-.348-.144.497.497 0 0 1-.132-.348V62.66c0-.304-.048-.576-.144-.816a1.15 1.15 0 0 0-.456-.588c-.208-.152-.496-.228-.864-.228-.336 0-.644.076-.924.228-.28.144-.504.34-.672.588-.168.24-.252.512-.252.816v3.348a.474.474 0 0 1-.144.348.436.436 0 0 1-.336.144.474.474 0 0 1-.348-.144.497.497 0 0 1-.132-.348v-5.232a.474.474 0 0 1 .48-.48.45.45 0 0 1 .348.144c.088.088.132.2.132.336v.852l-.24.264c.04-.208.132-.416.276-.624a2.45 2.45 0 0 1 .54-.576c.216-.168.456-.3.72-.396.264-.104.54-.156.828-.156Zm3.576 5.376a.496.496 0 0 1-.096-.324c.008-.12.076-.224.204-.312a.412.412 0 0 1 .276-.072c.112.008.212.06.3.156.224.264.48.476.768.636.288.152.64.228 1.056.228a2.41 2.41 0 0 0 .576-.096c.192-.056.352-.152.48-.288a.788.788 0 0 0 .204-.564c0-.224-.068-.4-.204-.528a1.442 1.442 0 0 0-.528-.324A5.255 5.255 0 0 0 35 63.8a12.585 12.585 0 0 1-.78-.24 3.535 3.535 0 0 1-.696-.348 1.82 1.82 0 0 1-.492-.528 1.583 1.583 0 0 1-.18-.78c0-.36.096-.672.288-.936.2-.264.464-.468.792-.612.336-.144.7-.216 1.092-.216.224 0 .456.028.696.084.248.048.488.136.72.264.232.12.436.288.612.504.072.08.112.18.12.3.008.12-.044.228-.156.324a.441.441 0 0 1-.564-.036c-.168-.2-.38-.352-.636-.456a1.99 1.99 0 0 0-.828-.168c-.192 0-.38.028-.564.084a1.05 1.05 0 0 0-.468.288c-.12.128-.18.308-.18.54.008.216.08.392.216.528s.32.248.552.336c.232.08.488.16.768.24.256.064.5.14.732.228.24.08.456.188.648.324s.344.312.456.528c.112.208.168.472.168.792 0 .368-.104.688-.312.96a2.024 2.024 0 0 1-.828.612c-.336.136-.7.204-1.092.204-.44 0-.876-.084-1.308-.252a2.617 2.617 0 0 1-1.104-.852Z"/><defs><clipPath id="a"><path fill="#fff" d="M2 15.5h34v34H2z"/></clipPath></defs></svg>