<svg xmlns="http://www.w3.org/2000/svg" width="51" height="84" fill="none"><path fill="#616161" d="M40.773 41.106a.475.475 0 0 0-.557.372l-.107.584c-1.54-1.673-5.95-6.746-8.393-12.67a.514.514 0 0 0-.425-.292h-8.713l-.239-.319v-1.275c.425.425.93.797 1.461 1.063.24.106.505.026.637-.213.107-.239.027-.531-.212-.637a5.215 5.215 0 0 1-1.886-1.674v-1.062c.319.292.664.531 1.036.717a.47.47 0 0 0 .611-.212c.106-.24.026-.505-.213-.611a3.566 3.566 0 0 1-1.434-1.302v-1.142c.186.16.399.265.611.372.24.106.505.026.637-.213a.484.484 0 0 0-.212-.637c-.69-.372-.956-.85-1.089-1.01a.472.472 0 0 0-.77 0c-.08.08-.372.638-1.09 1.01-.238.106-.318.398-.212.637a.47.47 0 0 0 .611.213 4.69 4.69 0 0 0 .611-.372v1.142a3.97 3.97 0 0 1-1.434 1.302c-.24.106-.346.398-.213.61.133.213.398.346.611.213a4.52 4.52 0 0 0 1.036-.717v1.062a4.77 4.77 0 0 1-1.886 1.674.454.454 0 0 0-.213.61c.107.213.399.32.611.213a5.72 5.72 0 0 0 1.461-1.062v1.275l-.239.318h-1.46a.44.44 0 0 0-.426.293 36.862 36.862 0 0 1-1.567 3.267 6.55 6.55 0 0 1-1.354-1.488V29.87c.425.425.93.797 1.46 1.063a.484.484 0 0 0 .638-.213c.106-.239.027-.53-.212-.637a5.215 5.215 0 0 1-1.886-1.674v-1.062c.318.292.664.531 1.035.717a.485.485 0 0 0 .638-.212c.106-.24.026-.532-.213-.638a3.7 3.7 0 0 1-1.434-1.275v-1.142c.186.16.399.265.611.372a.47.47 0 0 0 .611-.213c.106-.239.026-.504-.213-.61-.69-.373-.956-.85-1.089-1.01a.472.472 0 0 0-.77 0c-.08.08-.372.637-1.089 1.01a.453.453 0 0 0-.186.637c.106.212.372.292.611.212.213-.106.425-.239.611-.372v1.143c-.372.557-.85.982-1.434 1.275a.454.454 0 0 0-.213.61c.106.213.399.32.611.213a4.524 4.524 0 0 0 1.036-.717v1.062a4.77 4.77 0 0 1-1.886 1.674.454.454 0 0 0-.213.61c.107.213.399.32.611.213a5.72 5.72 0 0 0 1.461-1.062v1.328a6.191 6.191 0 0 1-2.31 2.072c-.24.106-.346.372-.213.61.106.24.372.346.61.213h.027c.718-.345 1.355-.85 1.913-1.434v3.692c-1.434 2.045-2.949 3.958-4.595 5.737l-.133-.61a.483.483 0 0 0-.558-.372.463.463 0 0 0-.372.558l.585 2.789a.483.483 0 0 0 .557.371.483.483 0 0 0 .372-.557l-.212-1.063a52.664 52.664 0 0 0 4.276-5.18v.77l-2.231 5.393a.458.458 0 0 0 .425.637h23.773c.32 0 .558-.345.425-.637l-3.001-7.278a50.116 50.116 0 0 0 5.047 6.269l-.213 1.062a.476.476 0 0 0 .372.558.476.476 0 0 0 .558-.372l.584-2.79c.053-.212-.106-.45-.372-.504Zm-17.93 2.763-.159-.717a54.303 54.303 0 0 0 5.047-6.27l-2.895 6.987h-1.992Zm8.9-4.994 1.805 5.02h-1.806v-5.02Zm.743-.664 3.134 3.347-1.275 1.78-1.859-5.127Zm-.744-2.178v-4.117l3.055 7.41-3.055-3.293Zm-15.38-3.347c.266.292.585.558.904.797-.292.505-.585 1.01-.903 1.487v-2.284Zm3.666-2.63h10.546c-2.47 5.605-6.615 10.386-8.102 12.006l-.133-.61a.483.483 0 0 0-.558-.372.483.483 0 0 0-.372.558l.479 2.23h-7.57l5.71-13.812Zm10.785 1.86v11.953h-4.941l4.94-11.953Zm4.303 11.953.983-1.382.584 1.382h-1.567ZM32.3 21.052a.468.468 0 0 0 .106-.638.454.454 0 0 0-.345-.186c-1.913-.133-3.56 1.328-3.692 3.24-.133 1.913 1.328 3.56 3.24 3.693a3.453 3.453 0 0 0 3.135-1.594.465.465 0 0 0-.133-.637c-.106-.08-.266-.08-.372-.053-1.142.345-2.364-.266-2.71-1.408-.291-.93.027-1.886.771-2.418Zm.85 4.807c-1.195.717-2.762.346-3.48-.85-.797-1.328-.239-3.08 1.196-3.665a3.111 3.111 0 0 0 1.275 4.197c.292.132.637.265 1.009.318ZM7.104 58.652a.4.4 0 0 1 .228.324.483.483 0 0 1-.108.396.357.357 0 0 1-.276.168.64.64 0 0 1-.336-.072 3.529 3.529 0 0 0-.852-.372 3.17 3.17 0 0 0-.96-.144c-.472 0-.904.084-1.296.252-.392.16-.732.388-1.02.684a3.137 3.137 0 0 0-.672 1.056c-.16.408-.24.86-.24 1.356 0 .528.084 1 .252 1.416.168.416.396.772.684 1.068.296.288.636.508 1.02.66.392.152.816.228 1.272.228a3.392 3.392 0 0 0 1.812-.516.56.56 0 0 1 .336-.06.45.45 0 0 1 .288.168.517.517 0 0 1 .108.408.398.398 0 0 1-.228.3c-.2.12-.428.232-.684.336a5.178 5.178 0 0 1-.804.228 4.445 4.445 0 0 1-2.46-.216 4.087 4.087 0 0 1-1.356-.864A4.19 4.19 0 0 1 .876 64.1C.652 63.564.54 62.964.54 62.3c0-.624.108-1.196.324-1.716.216-.52.516-.972.9-1.356a4.318 4.318 0 0 1 1.356-.9 4.336 4.336 0 0 1 1.68-.324c.416 0 .82.056 1.212.168.4.112.764.272 1.092.48Zm6.63 1.584c.136 0 .248.048.336.144.096.088.144.2.144.336v5.292a.474.474 0 0 1-.144.348.436.436 0 0 1-.336.144.45.45 0 0 1-.348-.144.497.497 0 0 1-.132-.348v-1.14l.228-.024c0 .176-.06.368-.18.576-.12.208-.284.404-.492.588a2.822 2.822 0 0 1-.744.444c-.28.112-.584.168-.912.168-.544 0-1.032-.14-1.464-.42a3.1 3.1 0 0 1-1.032-1.164c-.248-.488-.372-1.044-.372-1.668 0-.632.124-1.188.372-1.668.256-.488.6-.868 1.032-1.14.432-.28.912-.42 1.44-.42.344 0 .664.056.96.168.296.112.552.264.768.456.224.192.396.404.516.636.128.232.192.464.192.696l-.312-.072v-1.308c0-.136.044-.248.132-.336a.45.45 0 0 1 .348-.144Zm-2.472 5.496c.4 0 .752-.104 1.056-.312.312-.208.552-.488.72-.84.176-.36.264-.764.264-1.212 0-.44-.088-.836-.264-1.188a1.95 1.95 0 0 0-.72-.84 1.825 1.825 0 0 0-1.056-.312c-.392 0-.744.1-1.056.3a2.08 2.08 0 0 0-.72.828 2.675 2.675 0 0 0-.264 1.212c0 .448.084.852.252 1.212.176.352.416.632.72.84.312.208.668.312 1.068.312Zm7.695-5.532c.544 0 .985.14 1.32.42.345.272.572.66.684 1.164h-.18l.085-.216c.096-.224.26-.44.492-.648.232-.208.5-.38.803-.516.304-.136.62-.204.948-.204.528 0 .944.116 1.248.348.305.224.52.528.649.912.136.376.203.8.203 1.272v3.276a.474.474 0 0 1-.143.348.436.436 0 0 1-.336.144.45.45 0 0 1-.349-.144.497.497 0 0 1-.131-.348v-3.252c0-.312-.049-.592-.145-.84a1.169 1.169 0 0 0-.444-.6c-.2-.152-.476-.228-.828-.228-.327 0-.627.076-.9.228a1.672 1.672 0 0 0-.648.6c-.16.248-.24.528-.24.84v3.252a.497.497 0 0 1-.132.348.45.45 0 0 1-.348.144.474.474 0 0 1-.348-.144.497.497 0 0 1-.131-.348V62.72a2.36 2.36 0 0 0-.133-.816 1.13 1.13 0 0 0-.42-.588c-.2-.152-.476-.228-.828-.228-.32 0-.611.076-.875.228a1.73 1.73 0 0 0-.636.588c-.16.24-.24.512-.24.816v3.288a.474.474 0 0 1-.145.348.436.436 0 0 1-.335.144.474.474 0 0 1-.349-.144.497.497 0 0 1-.132-.348v-5.232a.474.474 0 0 1 .48-.48.45.45 0 0 1 .349.144c.088.088.131.2.131.336v.912l-.264.288c.032-.208.113-.416.24-.624a2.671 2.671 0 0 1 1.213-.996c.256-.104.527-.156.816-.156Zm11.089 0a2.69 2.69 0 0 1 1.464.408c.432.272.772.648 1.02 1.128.256.48.384 1.032.384 1.656 0 .616-.128 1.168-.384 1.656-.248.48-.588.86-1.02 1.14a2.61 2.61 0 0 1-1.44.408 2.64 2.64 0 0 1-.84-.132 3.463 3.463 0 0 1-.708-.36 2.648 2.648 0 0 1-.528-.504 2.1 2.1 0 0 1-.312-.564l.264-.168v3.54a.497.497 0 0 1-.132.348.45.45 0 0 1-.348.144.474.474 0 0 1-.48-.492V60.74a.474.474 0 0 1 .48-.48.45.45 0 0 1 .348.144c.088.088.132.2.132.336v1.068l-.18-.096c.056-.2.152-.392.288-.576.144-.184.316-.344.516-.48.208-.144.436-.256.684-.336.256-.08.52-.12.792-.12Zm-.108.888c-.4 0-.756.1-1.068.3a2.1 2.1 0 0 0-.72.816c-.168.344-.252.74-.252 1.188 0 .44.084.836.252 1.188.176.352.416.628.72.828.312.2.668.3 1.068.3s.752-.1 1.056-.3c.304-.2.544-.476.72-.828a2.62 2.62 0 0 0 .264-1.188c0-.448-.088-.844-.264-1.188a2.1 2.1 0 0 0-.72-.816c-.304-.2-.656-.3-1.056-.3Zm5.343 4.92a.474.474 0 0 1-.144.348.436.436 0 0 1-.336.144.45.45 0 0 1-.348-.144.497.497 0 0 1-.132-.348V60.68a.474.474 0 0 1 .48-.48c.136 0 .248.048.336.144.096.088.144.2.144.336v5.328Zm-.48-6.612c-.2 0-.348-.04-.444-.12-.096-.08-.144-.204-.144-.372v-.168c0-.168.052-.292.156-.372.104-.08.252-.12.444-.12s.336.04.432.12c.096.08.144.204.144.372v.168c0 .168-.052.292-.156.372-.096.08-.24.12-.432.12Zm5.288.744c.544 0 .972.112 1.284.336.312.224.532.524.66.9.136.376.204.796.204 1.26v3.372a.474.474 0 0 1-.144.348.436.436 0 0 1-.336.144.474.474 0 0 1-.348-.144.497.497 0 0 1-.132-.348V62.66c0-.304-.048-.576-.144-.816a1.15 1.15 0 0 0-.456-.588c-.208-.152-.496-.228-.864-.228-.336 0-.644.076-.924.228-.28.144-.504.34-.672.588-.168.24-.252.512-.252.816v3.348a.474.474 0 0 1-.144.348.436.436 0 0 1-.336.144.474.474 0 0 1-.348-.144.497.497 0 0 1-.132-.348v-5.232a.474.474 0 0 1 .48-.48.45.45 0 0 1 .348.144c.088.088.132.2.132.336v.852l-.24.264c.04-.208.132-.416.276-.624a2.45 2.45 0 0 1 .54-.576c.216-.168.456-.3.72-.396.264-.104.54-.156.828-.156Zm6.528 0c.344 0 .664.06.96.18.296.112.552.26.768.444.224.184.396.376.516.576.128.2.192.388.192.564l-.228-.144v-1.044c0-.136.044-.248.132-.336a.45.45 0 0 1 .348-.144c.136 0 .248.048.336.144.096.088.144.2.144.336v5.256c0 .656-.14 1.2-.42 1.632a2.55 2.55 0 0 1-1.104.972 3.653 3.653 0 0 1-1.56.324c-.24 0-.504-.032-.792-.096a4.347 4.347 0 0 1-.768-.24c-.224-.088-.368-.18-.432-.276a.526.526 0 0 1-.228-.276.32.32 0 0 1 .06-.276c.072-.112.164-.168.276-.168.12 0 .268.036.444.108.072.024.184.064.336.12.16.056.336.104.528.144.2.048.396.072.588.072.68 0 1.2-.18 1.56-.54.368-.352.552-.82.552-1.404v-1.116l.132.06a1.505 1.505 0 0 1-.3.624 2.377 2.377 0 0 1-.54.516c-.208.144-.44.26-.696.348a2.6 2.6 0 0 1-.78.12c-.56 0-1.064-.14-1.512-.42a3.028 3.028 0 0 1-1.068-1.152c-.256-.488-.384-1.044-.384-1.668 0-.632.128-1.192.384-1.68a2.968 2.968 0 0 1 1.056-1.14c.448-.28.948-.42 1.5-.42Zm.12.888c-.408 0-.776.104-1.104.312-.32.2-.572.476-.756.828a2.675 2.675 0 0 0-.264 1.212c0 .44.088.84.264 1.2.184.352.436.632.756.84.328.208.696.312 1.104.312.416 0 .784-.1 1.104-.3.32-.208.572-.488.756-.84.184-.352.276-.756.276-1.212 0-.464-.092-.872-.276-1.224a2.103 2.103 0 0 0-.756-.828c-.32-.2-.688-.3-1.104-.3Z"/></svg>