<svg xmlns="http://www.w3.org/2000/svg" width="41" height="84" fill="none"><g fill="#616161" clip-path="url(#a)"><path d="M31.125 45.25h-1.594l-1.03-18.063H29a1.594 1.594 0 0 0 .834-2.948l1.732-2.603a.53.53 0 0 0 .09-.292V16.03a.531.531 0 0 0-.531-.531h-2.656a.531.531 0 0 0-.532.531v1.594h-2.125v-1.594a.531.531 0 0 0-.53-.531h-3.188a.531.531 0 0 0-.532.531v1.594h-2.125v-1.594a.531.531 0 0 0-.53-.531h-3.188a.531.531 0 0 0-.531.531v1.594h-2.126v-1.594a.531.531 0 0 0-.53-.531H9.874a.531.531 0 0 0-.531.531v5.313a.53.53 0 0 0 .085.292l1.732 2.603A1.593 1.593 0 0 0 12 27.187h.5L11.494 45.25h-1.62a2.656 2.656 0 0 0-2.656 2.656v1.063a.531.531 0 0 0 .531.531h25.5a.532.532 0 0 0 .531-.531v-1.063a2.656 2.656 0 0 0-2.656-2.656ZM12 16.562v1.594a.531.531 0 0 0 .531.532h3.188a.531.531 0 0 0 .531-.532v-1.593h2.125v1.593a.531.531 0 0 0 .531.532h3.188a.531.531 0 0 0 .531-.532v-1.593h2.125v1.593a.531.531 0 0 0 .531.532h3.188a.531.531 0 0 0 .531-.532v-1.593h1.594v4.25H10.406v-4.25H12Zm18.132 5.313L28.713 24H12.287l-1.419-2.125h19.264Zm-18.663 3.719a.531.531 0 0 1 .531-.532h17a.532.532 0 0 1 0 1.063H12a.532.532 0 0 1-.531-.531Zm1.86 5.843h3.983a.532.532 0 0 0 0-1.062h-3.925l.207-3.188h13.865l.473 8.5h-4.244a.532.532 0 0 0 0 1.063h4.25l.329 5.844H25.28a.531.531 0 1 0 0 1.062h3.07l.086 1.594h-4.75v-2.125a3.187 3.187 0 1 0-6.375 0v2.125h-4.749l.765-13.813Zm9.296 13.813h-4.25v-2.125a2.125 2.125 0 0 1 4.25 0v2.125Zm10.094 3.188H8.28v-.532a1.594 1.594 0 0 1 1.594-1.593h21.25a1.594 1.594 0 0 1 1.594 1.593v.532Z"/><path d="M14.656 37.813h3.188a.531.531 0 0 0 .531-.532v-1.593a2.125 2.125 0 0 0-4.25 0v1.593a.531.531 0 0 0 .531.532Zm.531-2.126a1.062 1.062 0 1 1 2.126 0v1.063h-2.125v-1.063ZM23.156 32.5h3.188a.531.531 0 0 0 .531-.531v-1.594a2.125 2.125 0 0 0-4.25 0v1.594a.531.531 0 0 0 .531.531Zm.532-2.125a1.062 1.062 0 1 1 2.125 0v1.063h-2.125v-1.063ZM22.094 35.688H21.03a.531.531 0 0 0 0 1.062h1.063a.531.531 0 0 0 0-1.063ZM17.313 39.406h4.25a.532.532 0 1 0 0-1.062h-4.25a.532.532 0 1 0 0 1.062ZM22.625 38.875a.532.532 0 0 0 .531.531h1.063a.531.531 0 1 0 0-1.062h-1.063a.531.531 0 0 0-.531.531ZM23.688 33.563h-4.25a.532.532 0 0 0 0 1.062h4.25a.532.532 0 0 0 0-1.063ZM26.344 33.563H25.28a.531.531 0 0 0 0 1.062h1.063a.531.531 0 0 0 0-1.063ZM18.906 31.438h1.063a.531.531 0 0 0 0-1.063h-1.063a.531.531 0 0 0 0 1.063ZM15.719 42.594h-1.063a.531.531 0 1 0 0 1.062h1.063a.531.531 0 1 0 0-1.062ZM17.313 28.25H16.25a.532.532 0 0 0 0 1.063h1.063a.532.532 0 0 0 0-1.063Z"/></g><path fill="#616161" d="M7.104 58.652a.4.4 0 0 1 .228.324.483.483 0 0 1-.108.396.357.357 0 0 1-.276.168.64.64 0 0 1-.336-.072 3.529 3.529 0 0 0-.852-.372 3.17 3.17 0 0 0-.96-.144c-.472 0-.904.084-1.296.252-.392.16-.732.388-1.02.684a3.137 3.137 0 0 0-.672 1.056c-.16.408-.24.86-.24 1.356 0 .528.084 1 .252 1.416.168.416.396.772.684 1.068.296.288.636.508 1.02.66.392.152.816.228 1.272.228a3.392 3.392 0 0 0 1.812-.516.56.56 0 0 1 .336-.06.45.45 0 0 1 .288.168.517.517 0 0 1 .108.408.398.398 0 0 1-.228.3c-.2.12-.428.232-.684.336a5.178 5.178 0 0 1-.804.228 4.445 4.445 0 0 1-2.46-.216 4.087 4.087 0 0 1-1.356-.864A4.19 4.19 0 0 1 .876 64.1C.652 63.564.54 62.964.54 62.3c0-.624.108-1.196.324-1.716.216-.52.516-.972.9-1.356a4.318 4.318 0 0 1 1.356-.9 4.336 4.336 0 0 1 1.68-.324c.416 0 .82.056 1.212.168.4.112.764.272 1.092.48Zm6.63 1.584c.136 0 .248.048.336.144.096.088.144.2.144.336v5.292a.474.474 0 0 1-.144.348.436.436 0 0 1-.336.144.45.45 0 0 1-.348-.144.497.497 0 0 1-.132-.348v-1.14l.228-.024c0 .176-.06.368-.18.576-.12.208-.284.404-.492.588a2.822 2.822 0 0 1-.744.444c-.28.112-.584.168-.912.168-.544 0-1.032-.14-1.464-.42a3.1 3.1 0 0 1-1.032-1.164c-.248-.488-.372-1.044-.372-1.668 0-.632.124-1.188.372-1.668.256-.488.6-.868 1.032-1.14.432-.28.912-.42 1.44-.42.344 0 .664.056.96.168.296.112.552.264.768.456.224.192.396.404.516.636.128.232.192.464.192.696l-.312-.072v-1.308c0-.136.044-.248.132-.336a.45.45 0 0 1 .348-.144Zm-2.472 5.496c.4 0 .752-.104 1.056-.312.312-.208.552-.488.72-.84.176-.36.264-.764.264-1.212 0-.44-.088-.836-.264-1.188a1.95 1.95 0 0 0-.72-.84 1.825 1.825 0 0 0-1.056-.312c-.392 0-.744.1-1.056.3a2.08 2.08 0 0 0-.72.828 2.675 2.675 0 0 0-.264 1.212c0 .448.084.852.252 1.212.176.352.416.632.72.84.312.208.668.312 1.068.312Zm4.383-.216a.496.496 0 0 1-.095-.324c.007-.12.075-.224.204-.312a.412.412 0 0 1 .275-.072c.113.008.212.06.3.156.224.264.48.476.768.636.288.152.64.228 1.056.228a2.41 2.41 0 0 0 .577-.096c.192-.056.351-.152.48-.288a.788.788 0 0 0 .203-.564c0-.224-.067-.4-.204-.528a1.442 1.442 0 0 0-.527-.324 5.255 5.255 0 0 0-.708-.228 12.585 12.585 0 0 1-.78-.24 3.535 3.535 0 0 1-.697-.348 1.82 1.82 0 0 1-.491-.528 1.583 1.583 0 0 1-.18-.78c0-.36.095-.672.287-.936.2-.264.465-.468.793-.612.335-.144.7-.216 1.091-.216.224 0 .456.028.697.084.248.048.488.136.72.264.231.12.435.288.611.504.073.08.113.18.12.3.009.12-.043.228-.155.324a.441.441 0 0 1-.564-.036c-.168-.2-.38-.352-.636-.456a1.99 1.99 0 0 0-.828-.168c-.192 0-.38.028-.564.084a1.05 1.05 0 0 0-.468.288c-.12.128-.18.308-.18.54.008.216.08.392.215.528.137.136.32.248.552.336.233.08.489.16.768.24.256.064.5.14.732.228.24.08.457.188.649.324s.343.312.456.528c.111.208.168.472.168.792 0 .368-.104.688-.313.96a2.024 2.024 0 0 1-.828.612c-.335.136-.7.204-1.091.204-.44 0-.877-.084-1.308-.252a2.617 2.617 0 0 1-1.104-.852Zm5.792-5.184h2.82c.128 0 .232.044.312.132a.427.427 0 0 1 .132.312.44.44 0 0 1-.132.324.422.422 0 0 1-.312.12h-2.82a.427.427 0 0 1-.312-.132.44.44 0 0 1-.132-.324c0-.12.044-.22.132-.3a.427.427 0 0 1 .312-.132Zm1.26-1.632c.136 0 .248.048.336.144.088.088.132.2.132.336v5.796c0 .192.028.336.084.432a.48.48 0 0 0 .216.204.872.872 0 0 0 .276.048c.08 0 .148-.012.204-.036a.476.476 0 0 1 .216-.048c.08 0 .152.04.216.12a.39.39 0 0 1 .108.288c0 .144-.084.268-.252.372a1.116 1.116 0 0 1-.564.144c-.112 0-.252-.008-.42-.024a1.252 1.252 0 0 1-.48-.156 1.07 1.07 0 0 1-.408-.432c-.104-.208-.156-.496-.156-.864V59.18c0-.136.048-.248.144-.336a.474.474 0 0 1 .348-.144Zm4.395 7.308a.474.474 0 0 1-.144.348.474.474 0 0 1-.348.144.436.436 0 0 1-.336-.144.497.497 0 0 1-.132-.348V58.1a.474.474 0 0 1 .48-.48.45.45 0 0 1 .348.144c.088.088.132.2.132.336v7.908Zm4.613.612c-.64 0-1.2-.136-1.68-.408a2.964 2.964 0 0 1-1.128-1.116c-.264-.48-.396-1.032-.396-1.656 0-.696.136-1.288.408-1.776.28-.496.64-.872 1.08-1.128.448-.264.92-.396 1.416-.396.368 0 .724.068 1.068.204.344.136.648.336.912.6.264.256.476.568.636.936.16.36.244.764.252 1.212a.423.423 0 0 1-.144.324.482.482 0 0 1-.336.132h-4.74l-.216-.828h4.62l-.192.168v-.264a1.515 1.515 0 0 0-.336-.84 1.835 1.835 0 0 0-.684-.552 1.9 1.9 0 0 0-.84-.192c-.24 0-.48.044-.72.132-.232.08-.444.216-.636.408a2.14 2.14 0 0 0-.456.72c-.112.296-.168.652-.168 1.068 0 .464.092.872.276 1.224.192.352.456.632.792.84.336.2.728.3 1.176.3.28 0 .524-.036.732-.108.208-.072.388-.16.54-.264.152-.112.28-.224.384-.336a.53.53 0 0 1 .3-.108c.12 0 .216.04.288.12.08.08.12.176.12.288 0 .136-.064.256-.192.36-.224.248-.528.468-.912.66a2.797 2.797 0 0 1-1.224.276Zm3.663-1.104a.496.496 0 0 1-.096-.324c.008-.12.076-.224.204-.312a.412.412 0 0 1 .276-.072c.112.008.212.06.3.156.224.264.48.476.768.636.288.152.64.228 1.056.228a2.41 2.41 0 0 0 .576-.096c.192-.056.352-.152.48-.288a.788.788 0 0 0 .204-.564c0-.224-.068-.4-.204-.528a1.442 1.442 0 0 0-.528-.324 5.255 5.255 0 0 0-.708-.228 12.585 12.585 0 0 1-.78-.24 3.535 3.535 0 0 1-.696-.348 1.82 1.82 0 0 1-.492-.528 1.583 1.583 0 0 1-.18-.78c0-.36.096-.672.288-.936.2-.264.464-.468.792-.612.336-.144.7-.216 1.092-.216.224 0 .456.028.696.084.248.048.488.136.72.264.232.12.436.288.612.504.072.08.112.18.12.3.008.12-.044.228-.156.324a.441.441 0 0 1-.564-.036c-.168-.2-.38-.352-.636-.456a1.99 1.99 0 0 0-.828-.168c-.192 0-.38.028-.564.084a1.05 1.05 0 0 0-.468.288c-.12.128-.18.308-.18.54.008.216.08.392.216.528s.32.248.552.336c.232.08.488.16.768.24.256.064.5.14.732.228.24.08.456.188.648.324s.344.312.456.528c.112.208.168.472.168.792 0 .368-.104.688-.312.96a2.024 2.024 0 0 1-.828.612c-.336.136-.7.204-1.092.204-.44 0-.876-.084-1.308-.252a2.617 2.617 0 0 1-1.104-.852Z"/><defs><clipPath id="a"><path fill="#fff" d="M3.5 15.5h34v34h-34z"/></clipPath></defs></svg>