<svg xmlns="http://www.w3.org/2000/svg" width="68" height="84" fill="none"><g fill="#616161" clip-path="url(#a)"><path d="m24.323 46.8-.426-.974a70.516 70.516 0 0 1 13.177-4.282c.214-.047.43-.088.645-.133V36.75h-.532a.531.531 0 0 1-.375-.907l4.25-4.25a.532.532 0 0 1 .751 0l4.25 4.25a.531.531 0 0 1-.376.907h-.53v3.516a71.427 71.427 0 0 1 5.3-.328L50.48 41a69.44 69.44 0 0 0-13.18 1.581A69.5 69.5 0 0 0 24.323 46.8Zm16.583-5.98c.354-.056.708-.114 1.063-.166v-1.779h-1.063v1.946Zm-2.125.373c.354-.068.708-.13 1.063-.193v-2.656a.532.532 0 0 1 .531-.532H42.5a.53.53 0 0 1 .531.532v2.168c.354-.046.708-.09 1.063-.132v-3.63H38.78v4.443Zm5.624-5.505-2.968-2.968-2.967 2.968h5.935ZM28.258 47.874l-.366-.998a70.533 70.533 0 0 1 9.182-2.676c4.4-.962 8.88-1.5 13.382-1.606l.025 1.062a69.447 69.447 0 0 0-13.18 1.581 69.532 69.532 0 0 0-9.043 2.637ZM33.084 49.017l-.293-1.022a70.507 70.507 0 0 1 17.665-2.685l.025 1.062a69.44 69.44 0 0 0-17.398 2.645ZM21.781 23.386v-3.105h-.531a.531.531 0 0 1-.346-.934l3.719-3.188a.53.53 0 0 1 .691 0l3.72 3.188a.531.531 0 0 1-.346.934h-.532v4.127c1.827.352 3.641.752 5.442 1.202 1.703.428 3.253.857 4.652 1.274V25.01a1.911 1.911 0 0 1-1.594-2.073c0-.83.579-4.887 2.125-4.887 1.547 0 2.125 4.058 2.125 4.887a1.91 1.91 0 0 1-1.593 2.073v2.195c1.42.44 2.663.858 3.718 1.235v-1.836a1.91 1.91 0 0 1-1.593-2.074c0-.829.578-4.886 2.124-4.886 1.547 0 2.126 4.057 2.126 4.886a1.911 1.911 0 0 1-1.594 2.074v2.225c1.203.451 2.093.82 2.64 1.058a71.781 71.781 0 0 1 3.44 1.605l-.474.951a70.859 70.859 0 0 0-3.39-1.582 86.047 86.047 0 0 0-12.97-4.222 99.78 99.78 0 0 0-15.853-2.642l.089-1.058a98.18 98.18 0 0 1 4.205.446Zm22.844 1.145c0-1.2-.634-3.428-1.063-3.797-.428.369-1.062 2.596-1.062 3.797 0 .735.328 1.063 1.063 1.063.734 0 1.062-.328 1.062-1.063Zm-4.781-1.593c0-1.201-.634-3.429-1.063-3.798-.428.37-1.062 2.596-1.062 3.797 0 .735.327 1.063 1.062 1.063.735 0 1.063-.328 1.063-1.063Zm-15.407.825c.355.055.71.108 1.063.166v-1.523h-1.063v1.357Zm-1.593-.233.531.072v-1.727a.53.53 0 0 1 .531-.531h2.125a.529.529 0 0 1 .532.531v2.24c.177.03.354.062.53.094V20.28h-4.25v3.25Zm4.407-4.311-2.282-1.957-2.283 1.957h4.565ZM33.598 28.653c1.052.263 2.13.553 3.205.86l-.293 1.022a99.782 99.782 0 0 0-19.023-3.494l.089-1.059c5.404.458 10.762 1.351 16.022 2.67ZM33.598 31.453l.534.136-.264 1.03-.529-.135a99.78 99.78 0 0 0-15.852-2.643l.089-1.058c5.404.458 10.762 1.35 16.022 2.67ZM31.996 34.108l-.242 1.034a99.78 99.78 0 0 0-14.267-2.258l.089-1.058c4.855.411 9.675 1.174 14.42 2.282Z"/></g><path fill="#616161" d="M7.104 58.652a.4.4 0 0 1 .228.324.483.483 0 0 1-.108.396.357.357 0 0 1-.276.168.64.64 0 0 1-.336-.072 3.529 3.529 0 0 0-.852-.372 3.17 3.17 0 0 0-.96-.144c-.472 0-.904.084-1.296.252-.392.16-.732.388-1.02.684a3.137 3.137 0 0 0-.672 1.056c-.16.408-.24.86-.24 1.356 0 .528.084 1 .252 1.416.168.416.396.772.684 1.068.296.288.636.508 1.02.66.392.152.816.228 1.272.228a3.392 3.392 0 0 0 1.812-.516.56.56 0 0 1 .336-.06.45.45 0 0 1 .288.168.517.517 0 0 1 .108.408.398.398 0 0 1-.228.3c-.2.12-.428.232-.684.336a5.178 5.178 0 0 1-.804.228 4.445 4.445 0 0 1-2.46-.216 4.087 4.087 0 0 1-1.356-.864A4.19 4.19 0 0 1 .876 64.1C.652 63.564.54 62.964.54 62.3c0-.624.108-1.196.324-1.716.216-.52.516-.972.9-1.356a4.318 4.318 0 0 1 1.356-.9 4.336 4.336 0 0 1 1.68-.324c.416 0 .82.056 1.212.168.4.112.764.272 1.092.48Zm7.41 4.728c0 .624-.14 1.18-.42 1.668a3.028 3.028 0 0 1-1.116 1.152c-.464.28-.988.42-1.572.42-.584 0-1.112-.14-1.584-.42a3.118 3.118 0 0 1-1.128-1.152c-.272-.488-.408-1.044-.408-1.668 0-.624.136-1.18.408-1.668.28-.488.656-.872 1.128-1.152.472-.28 1-.42 1.584-.42.584 0 1.108.14 1.572.42.472.28.844.664 1.116 1.152.28.488.42 1.044.42 1.668Zm-.96 0c0-.464-.096-.872-.288-1.224a2.074 2.074 0 0 0-.768-.828c-.32-.2-.684-.3-1.092-.3-.408 0-.776.1-1.104.3-.32.2-.576.476-.768.828-.192.352-.288.76-.288 1.224 0 .456.096.86.288 1.212.192.352.448.632.768.84.328.2.696.3 1.104.3.408 0 .772-.1 1.092-.3a2.16 2.16 0 0 0 .768-.84 2.49 2.49 0 0 0 .288-1.212Zm7.048-3.084a.45.45 0 0 1 .348.144c.088.088.132.2.132.336v3.276c0 .808-.228 1.436-.684 1.884-.448.44-1.076.66-1.884.66-.8 0-1.428-.22-1.884-.66-.448-.448-.672-1.076-.672-1.884v-3.276a.474.474 0 0 1 .48-.48.45.45 0 0 1 .348.144c.088.088.132.2.132.336v3.276c0 .544.14.956.42 1.236.28.28.672.42 1.176.42.52 0 .916-.14 1.188-.42.28-.28.42-.692.42-1.236v-3.276a.474.474 0 0 1 .48-.48Zm5.343-.156c.544 0 .972.112 1.284.336.312.224.532.524.66.9.136.376.204.796.204 1.26v3.372a.474.474 0 0 1-.144.348.436.436 0 0 1-.336.144.474.474 0 0 1-.348-.144.497.497 0 0 1-.132-.348V62.66c0-.304-.048-.576-.144-.816a1.15 1.15 0 0 0-.456-.588c-.208-.152-.496-.228-.864-.228-.336 0-.644.076-.924.228-.28.144-.504.34-.672.588-.168.24-.252.512-.252.816v3.348a.474.474 0 0 1-.144.348.436.436 0 0 1-.336.144.474.474 0 0 1-.348-.144.497.497 0 0 1-.132-.348v-5.232a.474.474 0 0 1 .48-.48.45.45 0 0 1 .348.144c.088.088.132.2.132.336v.852l-.24.264c.04-.208.132-.416.276-.624a2.45 2.45 0 0 1 .54-.576c.216-.168.456-.3.72-.396.264-.104.54-.156.828-.156Zm3.683.192h2.82c.129 0 .233.044.313.132a.427.427 0 0 1 .131.312.44.44 0 0 1-.132.324.422.422 0 0 1-.311.12h-2.82a.427.427 0 0 1-.313-.132.44.44 0 0 1-.131-.324c0-.12.044-.22.132-.3a.427.427 0 0 1 .311-.132Zm1.26-1.632c.136 0 .248.048.336.144.088.088.133.2.133.336v5.796c0 .192.027.336.084.432a.48.48 0 0 0 .216.204.872.872 0 0 0 .276.048c.08 0 .148-.012.203-.036a.476.476 0 0 1 .216-.048c.08 0 .153.04.217.12a.39.39 0 0 1 .107.288c0 .144-.084.268-.252.372a1.116 1.116 0 0 1-.564.144c-.111 0-.252-.008-.42-.024a1.252 1.252 0 0 1-.48-.156 1.07 1.07 0 0 1-.408-.432c-.104-.208-.155-.496-.155-.864V59.18c0-.136.048-.248.144-.336a.474.474 0 0 1 .348-.144Zm3.82 7.8a.474.474 0 0 1-.348-.144.497.497 0 0 1-.132-.348v-5.232a.474.474 0 0 1 .48-.48.45.45 0 0 1 .348.144c.088.088.132.2.132.336v1.584l-.144-.252a2.51 2.51 0 0 1 .732-1.356c.192-.192.412-.34.66-.444a1.96 1.96 0 0 1 .816-.168c.176 0 .336.044.48.132.152.08.228.196.228.348 0 .168-.044.292-.132.372a.434.434 0 0 1-.3.12.773.773 0 0 1-.3-.06.801.801 0 0 0-.36-.072c-.2 0-.4.056-.6.168a1.887 1.887 0 0 0-.54.456c-.16.2-.292.428-.396.684a2.208 2.208 0 0 0-.144.804v2.916a.474.474 0 0 1-.144.348.436.436 0 0 1-.336.144Zm8.98-6.3c.136 0 .248.048.336.144.096.088.144.2.144.336v5.232c0 .672-.132 1.228-.396 1.668-.264.448-.62.78-1.068.996-.44.216-.94.324-1.5.324-.312 0-.612-.032-.9-.096a2.59 2.59 0 0 1-.708-.252.703.703 0 0 1-.324-.276.408.408 0 0 1-.024-.336.547.547 0 0 1 .24-.3.381.381 0 0 1 .348 0c.128.056.312.132.552.228.248.104.524.156.828.156.416 0 .772-.08 1.068-.24.296-.16.524-.396.684-.708.16-.304.24-.684.24-1.14v-.852l.144.3c-.128.248-.3.464-.516.648a2.454 2.454 0 0 1-.744.432c-.28.104-.588.156-.924.156-.456 0-.844-.096-1.164-.288a1.98 1.98 0 0 1-.72-.816 2.9 2.9 0 0 1-.24-1.212V60.68a.474.474 0 0 1 .48-.48.45.45 0 0 1 .348.144c.088.088.132.2.132.336v3.408c0 .544.12.956.36 1.236.24.272.612.408 1.116.408.32 0 .608-.072.864-.216.264-.144.472-.34.624-.588.16-.256.24-.536.24-.84V60.68c0-.136.044-.248.132-.336a.45.45 0 0 1 .348-.144Zm1.793 5.316a.496.496 0 0 1-.096-.324c.008-.12.076-.224.204-.312a.412.412 0 0 1 .276-.072c.112.008.212.06.3.156.224.264.48.476.768.636.288.152.64.228 1.056.228a2.41 2.41 0 0 0 .576-.096c.192-.056.352-.152.48-.288a.788.788 0 0 0 .204-.564c0-.224-.068-.4-.204-.528a1.442 1.442 0 0 0-.528-.324 5.255 5.255 0 0 0-.708-.228 12.585 12.585 0 0 1-.78-.24 3.535 3.535 0 0 1-.696-.348 1.82 1.82 0 0 1-.492-.528 1.583 1.583 0 0 1-.18-.78c0-.36.096-.672.288-.936.2-.264.464-.468.792-.612.336-.144.7-.216 1.092-.216.224 0 .456.028.696.084.248.048.488.136.72.264.232.12.436.288.612.504.072.08.112.18.12.3.008.12-.044.228-.156.324a.441.441 0 0 1-.564-.036c-.168-.2-.38-.352-.636-.456a1.99 1.99 0 0 0-.828-.168c-.192 0-.38.028-.564.084a1.05 1.05 0 0 0-.468.288c-.12.128-.18.308-.18.54.008.216.08.392.216.528s.32.248.552.336c.232.08.488.16.768.24.256.064.5.14.732.228.24.08.456.188.648.324s.344.312.456.528c.112.208.168.472.168.792 0 .368-.104.688-.312.96a2.024 2.024 0 0 1-.828.612c-.336.136-.7.204-1.092.204-.44 0-.876-.084-1.308-.252a2.617 2.617 0 0 1-1.104-.852Zm6.956.492a.474.474 0 0 1-.144.348.436.436 0 0 1-.336.144.45.45 0 0 1-.348-.144.497.497 0 0 1-.132-.348V60.68a.474.474 0 0 1 .48-.48c.136 0 .248.048.336.144.096.088.144.2.144.336v5.328Zm-.48-6.612c-.2 0-.348-.04-.444-.12-.096-.08-.144-.204-.144-.372v-.168c0-.168.052-.292.156-.372.104-.08.252-.12.444-.12s.336.04.432.12c.096.08.144.204.144.372v.168c0 .168-.052.292-.156.372-.096.08-.24.12-.432.12Zm7.316-1.776c.136 0 .248.048.336.144.096.088.144.2.144.336v7.908a.474.474 0 0 1-.144.348.436.436 0 0 1-.336.144.45.45 0 0 1-.348-.144.497.497 0 0 1-.132-.348v-1.14l.228-.084c0 .192-.06.396-.18.612-.12.208-.284.404-.492.588a2.65 2.65 0 0 1-.744.456c-.28.12-.584.18-.912.18-.536 0-1.024-.14-1.464-.42a3.004 3.004 0 0 1-1.032-1.152c-.248-.488-.372-1.044-.372-1.668 0-.632.124-1.192.372-1.68.256-.488.6-.868 1.032-1.14.432-.28.912-.42 1.44-.42.336 0 .652.056.948.168.296.112.552.264.768.456.224.192.4.404.528.636.128.232.192.464.192.696l-.312-.072V58.1c0-.136.044-.248.132-.336a.45.45 0 0 1 .348-.144Zm-2.472 8.112c.4 0 .752-.1 1.056-.3.312-.208.552-.488.72-.84.176-.36.264-.764.264-1.212 0-.456-.088-.86-.264-1.212a1.964 1.964 0 0 0-.72-.828 1.825 1.825 0 0 0-1.056-.312 1.86 1.86 0 0 0-1.056.312 2.08 2.08 0 0 0-.72.828 2.675 2.675 0 0 0-.264 1.212c0 .44.088.84.264 1.2.176.352.416.632.72.84a1.86 1.86 0 0 0 1.056.312Zm7.6.888c-.64 0-1.2-.136-1.68-.408a2.964 2.964 0 0 1-1.128-1.116c-.265-.48-.397-1.032-.397-1.656 0-.696.137-1.288.409-1.776.28-.496.64-.872 1.08-1.128.447-.264.92-.396 1.415-.396.369 0 .725.068 1.069.204.344.136.648.336.912.6.263.256.475.568.635.936.16.36.245.764.253 1.212a.423.423 0 0 1-.144.324.482.482 0 0 1-.337.132h-4.74l-.215-.828h4.62l-.193.168v-.264a1.515 1.515 0 0 0-.335-.84 1.835 1.835 0 0 0-.684-.552 1.9 1.9 0 0 0-.84-.192c-.24 0-.48.044-.72.132-.233.08-.444.216-.636.408a2.14 2.14 0 0 0-.456.72c-.113.296-.169.652-.169 1.068 0 .464.093.872.277 1.224.192.352.456.632.791.84.337.2.728.3 1.177.3.28 0 .523-.036.732-.108.208-.072.388-.16.54-.264.151-.112.28-.224.383-.336a.53.53 0 0 1 .3-.108c.12 0 .217.04.289.12.08.08.12.176.12.288 0 .136-.064.256-.192.36-.225.248-.529.468-.913.66a2.797 2.797 0 0 1-1.224.276Z"/><defs><clipPath id="a"><path fill="#fff" d="M51 15.5H17v34h34z"/></clipPath></defs></svg>