<svg xmlns="http://www.w3.org/2000/svg" width="67" height="84" fill="none"><g fill="#616161" clip-path="url(#a)"><path d="M43.986 15.5a6.522 6.522 0 0 0-6.516 6.514v2.894s-4.637-2.45-4.72-2.496c-.633-.35-.808-.35-1.442 0-.082.045-9.04 4.778-9.04 4.778-.76.4-.867.515-1.188 1.048-.052.088-4.363 6.922-4.363 6.922-.21.334-.27.728-.168 1.11.107.403.387.749.768.95a1.624 1.624 0 0 0 1.874-.255v4.32a.498.498 0 0 0 .996 0V35.47l3.297-5.225c.155-.248.221-.35.299-.42.088-.078.243-.163.575-.339l7.504-3.96.139-.076.029-.016.028.016.14.076s7.849 4.144 7.945 4.204a.98.98 0 0 1 .133.095c.078.07.144.172.299.42l3.297 5.225v10.672h-5.64v-6.928h.84a.923.923 0 0 0 .92-.922V36.87a.923.923 0 0 0-.92-.922h-5.654a.498.498 0 1 0 0 .996h5.579v1.274H25.064v-1.274h6.056a.498.498 0 0 0 0-.996h-6.13a.923.923 0 0 0-.922.922v1.423c0 .508.413.922.921.922h.839v6.928h-5.641v-2.56a.498.498 0 0 0-.996 0v5.082c0 .46.374.835.835.835h29.61a.864.864 0 0 0 .864-.863V22.014a6.521 6.521 0 0 0-6.514-6.514ZM25.828 48.504h-5.641V47.14h5.64v1.364Zm10.61-9.29L32.03 43.19l-4.408-3.974h8.816Zm-9.614.622 4.462 4.023-4.462 4.023v-8.046Zm.798 8.668 4.408-3.974 4.408 3.974h-8.816Zm9.615-.622-4.463-4.023 4.463-4.023v8.046Zm6.635.622h-5.64V47.14h5.64v1.364ZM47.42 35.3a1.455 1.455 0 0 0-.078-.14l-3.449-5.464h5.61v5.604H47.42Zm-8.955-13.287a5.525 5.525 0 0 1 5.52-5.518 5.524 5.524 0 0 1 5.518 5.518v.086H38.466v-.086Zm0 1.082h11.038V28.7h-6.239s-.234-.375-.286-.462c-.321-.534-.428-.649-1.187-1.048l-3.326-1.757v-2.338Zm6.325 11.965-3.372-5.344c-.319-.509-.432-.652-.882-.909-.035-.02-7.964-4.21-8-4.23-.34-.186-.522-.221-.802-.105l-.008.003c-.04.018-7.834 4.13-7.834 4.13-.78.412-.861.485-1.253 1.111l-3.373 5.344-.001.003-.684 1.083c-.158.25-.523.338-.8.192a.532.532 0 0 1-.271-.325.397.397 0 0 1 .048-.322s4.32-6.848 4.375-6.94c.229-.38.229-.38.798-.68 0 0 9.243-4.89 9.297-4.915.055.025 9.298 4.915 9.298 4.915.57.3.57.3.798.68.056.092.12.2.203.331l4.173 6.608a.4.4 0 0 1 .047.323.532.532 0 0 1-.27.325c-.28.148-.64.062-.802-.192l-.683-1.083-.002-.003Zm4.713 13.443h-4.636v-5.605h4.636v5.605Zm-4.636-6.602v-4.94c.486.468 1.246.59 1.875.258.372-.197.647-.532.76-.923h2v5.606h-4.635Z"/><path d="M35.443 31.296a3.418 3.418 0 0 0-3.414-3.414 3.417 3.417 0 0 0-3.412 3.414 3.417 3.417 0 0 0 3.412 3.414 3.418 3.418 0 0 0 3.414-3.414Zm-5.83 0a2.42 2.42 0 0 1 2.416-2.418 2.42 2.42 0 0 1 2.418 2.418 2.42 2.42 0 0 1-2.418 2.418 2.42 2.42 0 0 1-2.416-2.418Z"/></g><path fill="#616161" d="M1.548 66.5a.488.488 0 0 1-.36-.144.497.497 0 0 1-.132-.348V58.58a.474.474 0 0 1 .48-.48h4.212c.136 0 .252.044.348.132.096.088.144.2.144.336a.423.423 0 0 1-.144.324.497.497 0 0 1-.348.132h-3.78l.072-.096v2.94l-.06-.132h3.228c.136 0 .252.048.348.144a.448.448 0 0 1 0 .66.497.497 0 0 1-.348.132H1.956l.084-.108v3.444a.474.474 0 0 1-.144.348.474.474 0 0 1-.348.144Zm11.003-6.264c.136 0 .248.048.336.144.096.088.144.2.144.336v5.292a.474.474 0 0 1-.144.348.436.436 0 0 1-.336.144.45.45 0 0 1-.348-.144.497.497 0 0 1-.132-.348v-1.14l.228-.024c0 .176-.06.368-.18.576-.12.208-.284.404-.492.588a2.822 2.822 0 0 1-.744.444c-.28.112-.584.168-.912.168-.544 0-1.032-.14-1.464-.42a3.1 3.1 0 0 1-1.032-1.164c-.248-.488-.372-1.044-.372-1.668 0-.632.124-1.188.372-1.668.256-.488.6-.868 1.032-1.14.432-.28.912-.42 1.44-.42.344 0 .664.056.96.168.296.112.552.264.768.456.224.192.396.404.516.636.128.232.192.464.192.696l-.312-.072v-1.308c0-.136.044-.248.132-.336a.45.45 0 0 1 .348-.144Zm-2.472 5.496c.4 0 .752-.104 1.056-.312.312-.208.552-.488.72-.84.176-.36.264-.764.264-1.212 0-.44-.088-.836-.264-1.188a1.95 1.95 0 0 0-.72-.84 1.825 1.825 0 0 0-1.056-.312c-.392 0-.744.1-1.056.3a2.08 2.08 0 0 0-.72.828 2.675 2.675 0 0 0-.264 1.212c0 .448.084.852.252 1.212.176.352.416.632.72.84.312.208.668.312 1.068.312Zm5.21.768a.474.474 0 0 1-.347-.144.497.497 0 0 1-.132-.348v-5.232a.474.474 0 0 1 .48-.48.45.45 0 0 1 .348.144c.088.088.132.2.132.336v1.584l-.144-.252a2.51 2.51 0 0 1 .732-1.356c.192-.192.412-.34.66-.444a1.96 1.96 0 0 1 .816-.168c.176 0 .336.044.48.132.152.08.228.196.228.348 0 .168-.044.292-.132.372a.434.434 0 0 1-.3.12.773.773 0 0 1-.3-.06.801.801 0 0 0-.36-.072c-.2 0-.4.056-.6.168a1.887 1.887 0 0 0-.54.456c-.16.2-.292.428-.396.684a2.208 2.208 0 0 0-.144.804v2.916a.474.474 0 0 1-.144.348.436.436 0 0 1-.336.144Zm7.301-6.3c.544 0 .984.14 1.32.42.344.272.572.66.684 1.164h-.18l.084-.216c.096-.224.26-.44.492-.648.232-.208.5-.38.804-.516.304-.136.62-.204.948-.204.528 0 .944.116 1.248.348.304.224.52.528.648.912.136.376.204.8.204 1.272v3.276a.474.474 0 0 1-.144.348.436.436 0 0 1-.336.144.45.45 0 0 1-.348-.144.497.497 0 0 1-.132-.348v-3.252c0-.312-.048-.592-.144-.84a1.169 1.169 0 0 0-.444-.6c-.2-.152-.476-.228-.828-.228-.328 0-.628.076-.9.228a1.672 1.672 0 0 0-.648.6c-.16.248-.24.528-.24.84v3.252a.497.497 0 0 1-.132.348.45.45 0 0 1-.348.144.474.474 0 0 1-.348-.144.497.497 0 0 1-.132-.348V62.72a2.36 2.36 0 0 0-.132-.816 1.13 1.13 0 0 0-.42-.588c-.2-.152-.476-.228-.828-.228-.32 0-.612.076-.876.228a1.73 1.73 0 0 0-.636.588c-.16.24-.24.512-.24.816v3.288a.474.474 0 0 1-.144.348.436.436 0 0 1-.336.144.474.474 0 0 1-.348-.144.497.497 0 0 1-.132-.348v-5.232a.474.474 0 0 1 .48-.48.45.45 0 0 1 .348.144c.088.088.132.2.132.336v.912l-.264.288c.032-.208.112-.416.24-.624a2.671 2.671 0 0 1 1.212-.996c.256-.104.528-.156.816-.156Zm14.333 0c.528 0 .944.116 1.248.348.312.224.532.528.66.912.136.376.204.796.204 1.26v3.288a.474.474 0 0 1-.144.348.436.436 0 0 1-.336.144.474.474 0 0 1-.348-.144.497.497 0 0 1-.132-.348V62.72a2.36 2.36 0 0 0-.132-.816 1.172 1.172 0 0 0-.444-.588c-.2-.152-.476-.228-.828-.228-.328 0-.628.076-.9.228-.272.144-.488.34-.648.588-.16.24-.24.512-.24.816v3.288a.474.474 0 0 1-.144.348.436.436 0 0 1-.336.144.474.474 0 0 1-.348-.144.497.497 0 0 1-.132-.348V58.1a.474.474 0 0 1 .48-.48.45.45 0 0 1 .348.144c.088.088.132.2.132.336v3.588l-.24.264c.04-.208.128-.416.264-.624.136-.216.308-.408.516-.576.208-.168.44-.3.696-.396.256-.104.524-.156.804-.156Zm9.783 3.18c0 .624-.14 1.18-.42 1.668A3.028 3.028 0 0 1 45.17 66.2c-.464.28-.988.42-1.572.42-.584 0-1.112-.14-1.584-.42a3.118 3.118 0 0 1-1.128-1.152c-.272-.488-.408-1.044-.408-1.668 0-.624.136-1.18.408-1.668.28-.488.656-.872 1.128-1.152.472-.28 1-.42 1.584-.42.584 0 1.108.14 1.572.42.472.28.844.664 1.116 1.152.28.488.42 1.044.42 1.668Zm-.96 0c0-.464-.096-.872-.288-1.224a2.074 2.074 0 0 0-.768-.828c-.32-.2-.684-.3-1.092-.3-.408 0-.776.1-1.104.3-.32.2-.576.476-.768.828-.192.352-.288.76-.288 1.224 0 .456.096.86.288 1.212.192.352.448.632.768.84.328.2.696.3 1.104.3.408 0 .772-.1 1.092-.3a2.16 2.16 0 0 0 .768-.84 2.49 2.49 0 0 0 .288-1.212Zm7.048-3.084a.45.45 0 0 1 .348.144c.088.088.132.2.132.336v3.276c0 .808-.228 1.436-.684 1.884-.448.44-1.076.66-1.884.66-.8 0-1.428-.22-1.884-.66-.448-.448-.672-1.076-.672-1.884v-3.276a.474.474 0 0 1 .48-.48.45.45 0 0 1 .348.144c.088.088.132.2.132.336v3.276c0 .544.14.956.42 1.236.28.28.672.42 1.176.42.52 0 .916-.14 1.188-.42.28-.28.42-.692.42-1.236v-3.276a.474.474 0 0 1 .48-.48Zm1.91 5.22a.496.496 0 0 1-.096-.324c.008-.12.076-.224.204-.312a.412.412 0 0 1 .276-.072c.112.008.212.06.3.156.224.264.48.476.768.636.288.152.64.228 1.056.228a2.41 2.41 0 0 0 .576-.096c.192-.056.352-.152.48-.288a.788.788 0 0 0 .204-.564c0-.224-.068-.4-.204-.528a1.442 1.442 0 0 0-.528-.324 5.255 5.255 0 0 0-.708-.228 12.585 12.585 0 0 1-.78-.24 3.535 3.535 0 0 1-.696-.348 1.82 1.82 0 0 1-.492-.528 1.583 1.583 0 0 1-.18-.78c0-.36.096-.672.288-.936.2-.264.464-.468.792-.612.336-.144.7-.216 1.092-.216.224 0 .456.028.696.084.248.048.488.136.72.264.232.12.436.288.612.504.072.08.112.18.12.3.008.12-.044.228-.156.324a.441.441 0 0 1-.564-.036c-.168-.2-.38-.352-.636-.456a1.99 1.99 0 0 0-.828-.168c-.192 0-.38.028-.564.084a1.05 1.05 0 0 0-.468.288c-.12.128-.18.308-.18.54.008.216.08.392.216.528s.32.248.552.336c.232.08.488.16.768.24.256.064.5.14.732.228.24.08.456.188.648.324s.344.312.456.528c.112.208.168.472.168.792 0 .368-.104.688-.312.96a2.024 2.024 0 0 1-.828.612c-.336.136-.7.204-1.092.204-.44 0-.876-.084-1.308-.252a2.617 2.617 0 0 1-1.104-.852Zm8.9 1.104c-.64 0-1.2-.136-1.68-.408a2.964 2.964 0 0 1-1.128-1.116c-.264-.48-.396-1.032-.396-1.656 0-.696.136-1.288.408-1.776.28-.496.64-.872 1.08-1.128.448-.264.92-.396 1.416-.396.368 0 .724.068 1.068.204.344.136.648.336.912.6.264.256.476.568.636.936.16.36.244.764.252 1.212a.423.423 0 0 1-.144.324.482.482 0 0 1-.336.132h-4.74l-.216-.828h4.62l-.192.168v-.264a1.515 1.515 0 0 0-.336-.84 1.835 1.835 0 0 0-.684-.552 1.9 1.9 0 0 0-.84-.192c-.24 0-.48.044-.72.132-.232.08-.444.216-.636.408a2.14 2.14 0 0 0-.456.72c-.112.296-.168.652-.168 1.068 0 .464.092.872.276 1.224.192.352.456.632.792.84.336.2.728.3 1.176.3.28 0 .524-.036.732-.108.208-.072.388-.16.54-.264.152-.112.28-.224.384-.336a.53.53 0 0 1 .3-.108c.12 0 .216.04.288.12.08.08.12.176.12.288 0 .136-.064.256-.192.36-.224.248-.528.468-.912.66a2.797 2.797 0 0 1-1.224.276Z"/><defs><clipPath id="a"><path fill="#fff" d="M16.5 15.5h34v34h-34z"/></clipPath></defs></svg>