<svg xmlns="http://www.w3.org/2000/svg" width="36" height="84" fill="none"><path fill="#616161" d="M32.343 43.192v-.067A2.127 2.127 0 0 0 30.22 41v-9.828l1.912-1.434a.531.531 0 0 0-.005-.854l-4.563-3.335V19.75a.531.531 0 0 0 .53-.531v-2.125a.531.531 0 0 0-.53-.532H22.25a.531.531 0 0 0-.531.532v2.125a.531.531 0 0 0 .531.531v1.917l-3.936-2.877a.531.531 0 0 0-.627 0L3.874 28.884a.532.532 0 0 0-.005.854l1.912 1.434V41a2.127 2.127 0 0 0-2.123 2.192 2.125 2.125 0 0 0 .53 4.183h27.625a2.125 2.125 0 0 0 .53-4.183ZM22.78 17.625h4.25v1.063h-4.25v-1.063Zm.532 4.781V19.75H26.5v5.022l-3.238-2.366h.05ZM18 19.876l12.92 9.442-1.237.928-11.37-8.27a.531.531 0 0 0-.625 0l-11.37 8.27-1.238-.928L18 19.877ZM3.125 45.25a1.064 1.064 0 0 1 1.047-1.063c.028.004.055.008.083.01a.532.532 0 0 0 .533-.712 1.044 1.044 0 0 1-.07-.36 1.064 1.064 0 0 1 1.063-1.063v4.25H4.188a1.064 1.064 0 0 1-1.063-1.062Zm22.844 1.063h-6.375V34.624h6.375v11.688Zm1.062 0v-12.22a.531.531 0 0 0-.53-.53h-7.438a.531.531 0 0 0-.532.53v12.22H6.844V31.177L18 23.063l11.156 8.114v15.136h-2.125Zm4.782 0h-1.594v-4.25a1.064 1.064 0 0 1 1.062 1.062 1.046 1.046 0 0 1-.069.36.532.532 0 0 0 .615.703h.001a1.062 1.062 0 1 1-.015 2.125Z"/><path fill="#616161" d="M15.875 33.563H9.5a.531.531 0 0 0-.531.53v7.438a.531.531 0 0 0 .531.532h6.375a.532.532 0 0 0 .531-.532v-7.437a.531.531 0 0 0-.531-.532Zm-.531 3.718h-2.125v-2.656h2.125v2.656Zm-3.188-2.656v2.656h-2.125v-2.656h2.125Zm-2.125 3.719h2.125V41h-2.125v-2.656ZM13.22 41v-2.656h2.125V41h-2.125ZM21.678 40.14a.531.531 0 1 0-.981-.406.531.531 0 0 0 .981.407ZM1.56 58.1c.136 0 .252.048.348.144a.45.45 0 0 1 .144.348v7.416a.457.457 0 0 1-.156.348.474.474 0 0 1-.348.144.464.464 0 0 1-.36-.144.497.497 0 0 1-.132-.348v-7.416a.45.45 0 0 1 .144-.348.488.488 0 0 1 .36-.144Zm5.532 0a.45.45 0 0 1 .348.144.45.45 0 0 1 .144.348v7.416a.488.488 0 0 1-.504.492.474.474 0 0 1-.348-.144.474.474 0 0 1-.144-.348v-7.416a.45.45 0 0 1 .144-.348.515.515 0 0 1 .36-.144Zm-5.58 3.66h5.592l-.012.936H1.476l.036-.936Zm13.905 1.62c0 .624-.14 1.18-.42 1.668A3.028 3.028 0 0 1 13.88 66.2c-.464.28-.988.42-1.572.42-.584 0-1.112-.14-1.584-.42a3.118 3.118 0 0 1-1.128-1.152c-.272-.488-.408-1.044-.408-1.668 0-.624.136-1.18.408-1.668.28-.488.656-.872 1.128-1.152.472-.28 1-.42 1.584-.42.584 0 1.108.14 1.572.42.472.28.844.664 1.116 1.152.28.488.42 1.044.42 1.668Zm-.96 0c0-.464-.096-.872-.288-1.224a2.074 2.074 0 0 0-.768-.828c-.32-.2-.684-.3-1.092-.3-.408 0-.776.1-1.104.3-.32.2-.576.476-.768.828-.192.352-.288.76-.288 1.224 0 .456.096.86.288 1.212.192.352.448.632.768.84.328.2.696.3 1.104.3.408 0 .772-.1 1.092-.3a2.16 2.16 0 0 0 .768-.84 2.49 2.49 0 0 0 .288-1.212Zm7.048-3.084a.45.45 0 0 1 .348.144c.088.088.132.2.132.336v3.276c0 .808-.228 1.436-.684 1.884-.448.44-1.076.66-1.884.66-.8 0-1.428-.22-1.884-.66-.448-.448-.672-1.076-.672-1.884v-3.276a.474.474 0 0 1 .48-.48.45.45 0 0 1 .348.144c.088.088.132.2.132.336v3.276c0 .544.14.956.42 1.236.28.28.672.42 1.176.42.52 0 .916-.14 1.188-.42.28-.28.42-.692.42-1.236v-3.276a.474.474 0 0 1 .48-.48Zm1.91 5.22a.496.496 0 0 1-.096-.324c.008-.12.076-.224.204-.312a.412.412 0 0 1 .276-.072c.112.008.212.06.3.156.224.264.48.476.768.636.288.152.64.228 1.056.228a2.41 2.41 0 0 0 .576-.096c.192-.056.352-.152.48-.288a.788.788 0 0 0 .204-.564c0-.224-.068-.4-.204-.528a1.442 1.442 0 0 0-.528-.324 5.255 5.255 0 0 0-.708-.228 12.585 12.585 0 0 1-.78-.24 3.535 3.535 0 0 1-.696-.348 1.82 1.82 0 0 1-.492-.528 1.583 1.583 0 0 1-.18-.78c0-.36.096-.672.288-.936.2-.264.464-.468.792-.612.336-.144.7-.216 1.092-.216.224 0 .456.028.696.084.248.048.488.136.72.264.232.12.436.288.612.504.072.08.112.18.12.3.008.12-.044.228-.156.324a.441.441 0 0 1-.564-.036c-.168-.2-.38-.352-.636-.456a1.99 1.99 0 0 0-.828-.168c-.192 0-.38.028-.564.084a1.05 1.05 0 0 0-.468.288c-.12.128-.18.308-.18.54.008.216.08.392.216.528s.32.248.552.336c.232.08.488.16.768.24.256.064.5.14.732.228.24.08.456.188.648.324s.344.312.456.528c.112.208.168.472.168.792 0 .368-.104.688-.312.96a2.024 2.024 0 0 1-.828.612c-.336.136-.7.204-1.092.204-.44 0-.876-.084-1.308-.252a2.617 2.617 0 0 1-1.104-.852Zm8.9 1.104c-.64 0-1.2-.136-1.68-.408a2.964 2.964 0 0 1-1.128-1.116c-.264-.48-.396-1.032-.396-1.656 0-.696.136-1.288.408-1.776.28-.496.64-.872 1.08-1.128.448-.264.92-.396 1.416-.396.368 0 .724.068 1.068.204.344.136.648.336.912.6.264.256.476.568.636.936.16.36.244.764.252 1.212a.423.423 0 0 1-.144.324.482.482 0 0 1-.336.132h-4.74l-.216-.828h4.62l-.192.168v-.264a1.515 1.515 0 0 0-.336-.84 1.835 1.835 0 0 0-.684-.552 1.9 1.9 0 0 0-.84-.192c-.24 0-.48.044-.72.132-.232.08-.444.216-.636.408a2.14 2.14 0 0 0-.456.72c-.112.296-.168.652-.168 1.068 0 .464.092.872.276 1.224.192.352.456.632.792.84.336.2.728.3 1.176.3.28 0 .524-.036.732-.108.208-.072.388-.16.54-.264.152-.112.28-.224.384-.336a.53.53 0 0 1 .3-.108c.12 0 .216.04.288.12.08.08.12.176.12.288 0 .136-.064.256-.192.36-.224.248-.528.468-.912.66a2.797 2.797 0 0 1-1.224.276Z"/></svg>