<svg xmlns="http://www.w3.org/2000/svg" width="34" height="84" fill="none"><path fill="#616161" d="M31.344 38.26h-3.251a23.126 23.126 0 0 0-3.528-5.457.531.531 0 0 0-.797.701 21.893 21.893 0 0 1 3.14 4.756H18.77c-2.36-.462-3.144-1.503-3.146-1.503a3.415 3.415 0 0 0-3.748-1.74c-.845-1.07-1.75-1.59-2.696-1.542-1.213.06-2.086 1.054-2.465 1.58a3.792 3.792 0 0 0-.709-.022c.755-1.625 2.41-4.838 4.273-6.198 1.864-1.238 3.513 1.037 4.608 3.29a9.197 9.197 0 0 0 3.358 3.973c.65.417 3.234 1.787 3.429.66a.531.531 0 0 0-.446-.604 7.142 7.142 0 0 1-4.524-2.99c.99-1.685 2.782-3.316 4.824-1.817.407.239.976 1.18 1.523.623a.53.53 0 0 0-.036-.75c-1.507-1.651-3.986-2.111-5.683-.51-.462.442-.878.93-1.24 1.457a8.987 8.987 0 0 1-.236-.478c-1.448-2.983-3.535-5.406-6.204-3.712-2.552 1.864-4.612 6.56-5 7.482-1.282.717-1.592 2.655-1.506 2.801h-.49a.531.531 0 0 0 0 1.063h28.688a.531.531 0 0 0 0-1.063Zm-27.174 0c.13-1 .786-2.554 2.69-2.104a.534.534 0 0 0 .568-.256c.008-.013.772-1.315 1.808-1.364.655-.037 1.322.443 2.007 1.407a.532.532 0 0 0 .637.183c.068-.029 1.692-.677 2.852 1.208.292.372.651.687 1.06.926H4.17ZM27.934 41.376H6.067a.531.531 0 0 0 0 1.062h21.868a.531.531 0 0 0 0-1.063ZM24.526 44.491H9.475a.531.531 0 0 0 0 1.063h15.05a.531.531 0 0 0 0-1.063ZM24.525 26.73c3.28-.105 3.278-4.859 0-4.963-3.279.104-3.278 4.859 0 4.962Zm0-3.9a1.42 1.42 0 0 1 0 2.837 1.419 1.419 0 0 1 0-2.837ZM24.525 21.024a.523.523 0 0 0 0-1.046.524.524 0 0 0 0 1.046ZM22.245 21.968a.523.523 0 0 0-.74-.74.523.523 0 0 0 .74.74Z"/><path fill="#616161" d="M20.778 24.771a.523.523 0 0 0 0-1.046.523.523 0 0 0 0 1.046ZM22.245 27.268a.523.523 0 0 0-.74-.74.523.523 0 0 0 .74.74ZM24.002 27.996a.524.524 0 0 0 1.047 0 .523.523 0 0 0-1.047 0ZM26.805 26.528a.523.523 0 0 0 .74.74.523.523 0 0 0-.74-.74ZM28.273 24.771a.523.523 0 0 0 0-1.046.523.523 0 0 0 0 1.046ZM27.545 21.968a.524.524 0 0 0-.74-.74.523.523 0 0 0 .74.74ZM2.052 66.008a.457.457 0 0 1-.156.348.474.474 0 0 1-.348.144.464.464 0 0 1-.36-.144.497.497 0 0 1-.132-.348v-7.416a.45.45 0 0 1 .144-.348.488.488 0 0 1 .36-.144c.136 0 .252.048.348.144a.45.45 0 0 1 .144.348v7.416Zm1.593-.492a.496.496 0 0 1-.096-.324c.008-.12.076-.224.204-.312a.412.412 0 0 1 .276-.072c.112.008.212.06.3.156.224.264.48.476.768.636.288.152.64.228 1.056.228a2.41 2.41 0 0 0 .576-.096c.192-.056.352-.152.48-.288a.788.788 0 0 0 .204-.564c0-.224-.068-.4-.204-.528a1.442 1.442 0 0 0-.528-.324 5.255 5.255 0 0 0-.708-.228 12.585 12.585 0 0 1-.78-.24 3.535 3.535 0 0 1-.696-.348 1.82 1.82 0 0 1-.492-.528 1.583 1.583 0 0 1-.18-.78c0-.36.096-.672.288-.936.2-.264.464-.468.792-.612.336-.144.7-.216 1.092-.216.224 0 .456.028.696.084.248.048.488.136.72.264.232.12.436.288.612.504.072.08.112.18.12.3.008.12-.044.228-.156.324a.441.441 0 0 1-.564-.036c-.168-.2-.38-.352-.636-.456a1.99 1.99 0 0 0-.828-.168c-.192 0-.38.028-.564.084a1.05 1.05 0 0 0-.468.288c-.12.128-.18.308-.18.54.008.216.08.392.216.528s.32.248.552.336c.232.08.488.16.768.24.256.064.5.14.732.228.24.08.456.188.648.324s.344.312.456.528c.112.208.168.472.168.792 0 .368-.104.688-.312.96a2.024 2.024 0 0 1-.828.612c-.336.136-.7.204-1.092.204-.44 0-.876-.084-1.308-.252a2.617 2.617 0 0 1-1.104-.852Zm7.088.492a.474.474 0 0 1-.144.348.474.474 0 0 1-.348.144.436.436 0 0 1-.336-.144.497.497 0 0 1-.132-.348V58.1a.474.474 0 0 1 .48-.48.45.45 0 0 1 .348.144c.088.088.132.2.132.336v7.908Zm6.974-5.772c.136 0 .248.048.336.144.096.088.144.2.144.336v5.292a.474.474 0 0 1-.144.348.436.436 0 0 1-.336.144.45.45 0 0 1-.348-.144.497.497 0 0 1-.132-.348v-1.14l.228-.024c0 .176-.06.368-.18.576-.12.208-.284.404-.492.588a2.822 2.822 0 0 1-.744.444c-.28.112-.584.168-.912.168-.544 0-1.032-.14-1.464-.42a3.1 3.1 0 0 1-1.032-1.164c-.248-.488-.372-1.044-.372-1.668 0-.632.124-1.188.372-1.668.256-.488.6-.868 1.032-1.14.432-.28.912-.42 1.44-.42.344 0 .664.056.96.168.296.112.552.264.768.456.224.192.396.404.516.636.128.232.192.464.192.696l-.312-.072v-1.308c0-.136.044-.248.132-.336a.45.45 0 0 1 .348-.144Zm-2.472 5.496c.4 0 .752-.104 1.056-.312.312-.208.552-.488.72-.84.176-.36.264-.764.264-1.212 0-.44-.088-.836-.264-1.188a1.95 1.95 0 0 0-.72-.84 1.825 1.825 0 0 0-1.056-.312c-.392 0-.744.1-1.056.3a2.08 2.08 0 0 0-.72.828 2.675 2.675 0 0 0-.264 1.212c0 .448.084.852.252 1.212.176.352.416.632.72.84.312.208.668.312 1.068.312Zm7.815-5.592c.544 0 .972.112 1.284.336.312.224.532.524.66.9.136.376.204.796.204 1.26v3.372a.474.474 0 0 1-.144.348.436.436 0 0 1-.336.144.474.474 0 0 1-.348-.144.497.497 0 0 1-.132-.348V62.66c0-.304-.048-.576-.144-.816a1.15 1.15 0 0 0-.456-.588c-.208-.152-.496-.228-.864-.228-.336 0-.644.076-.924.228-.28.144-.504.34-.672.588-.168.24-.252.512-.252.816v3.348a.474.474 0 0 1-.144.348.436.436 0 0 1-.336.144.474.474 0 0 1-.348-.144.497.497 0 0 1-.132-.348v-5.232a.474.474 0 0 1 .48-.48.45.45 0 0 1 .348.144c.088.088.132.2.132.336v.852l-.24.264c.04-.208.132-.416.276-.624a2.45 2.45 0 0 1 .54-.576c.216-.168.456-.3.72-.396.264-.104.54-.156.828-.156Zm9.036-2.52c.136 0 .248.048.336.144.096.088.144.2.144.336v7.908a.474.474 0 0 1-.144.348.436.436 0 0 1-.336.144.45.45 0 0 1-.348-.144.497.497 0 0 1-.132-.348v-1.14l.228-.084c0 .192-.06.396-.18.612-.12.208-.284.404-.492.588a2.65 2.65 0 0 1-.744.456c-.28.12-.584.18-.912.18-.536 0-1.024-.14-1.464-.42a3.004 3.004 0 0 1-1.032-1.152c-.248-.488-.372-1.044-.372-1.668 0-.632.124-1.192.372-1.68.256-.488.6-.868 1.032-1.14.432-.28.912-.42 1.44-.42.336 0 .652.056.948.168.296.112.552.264.768.456.224.192.4.404.528.636.128.232.192.464.192.696l-.312-.072V58.1c0-.136.044-.248.132-.336a.45.45 0 0 1 .348-.144Zm-2.472 8.112c.4 0 .752-.1 1.056-.3.312-.208.552-.488.72-.84.176-.36.264-.764.264-1.212 0-.456-.088-.86-.264-1.212a1.964 1.964 0 0 0-.72-.828 1.825 1.825 0 0 0-1.056-.312 1.86 1.86 0 0 0-1.056.312 2.08 2.08 0 0 0-.72.828 2.675 2.675 0 0 0-.264 1.212c0 .44.088.84.264 1.2.176.352.416.632.72.84a1.86 1.86 0 0 0 1.056.312Z"/></svg>