<svg xmlns="http://www.w3.org/2000/svg" width="55" height="84" fill="none"><path fill="#616161" d="M36.748 37.888h-18.46a.398.398 0 0 1-.399-.398V25.537c0-.22.179-.398.399-.398h18.461c.22 0 .398.178.398.398V37.49c0 .22-.178.398-.399.398Zm-18.062-.797H36.35V25.935H18.686v11.156Z"/><path fill="#616161" d="M38.144 25.935h-5.213a.398.398 0 0 1-.311-.15l-3.918-4.91a.398.398 0 0 1 .311-.645h4.67c.112 0 .219.047.294.13l4.461 4.91a.397.397 0 0 1-.294.665Zm-5.022-.796h4.123l-3.738-4.114H29.84l3.282 4.114Zm-11.017.796h-5.213a.398.398 0 0 1-.296-.665l4.462-4.91a.398.398 0 0 1 .294-.131h4.67a.399.399 0 0 1 .31.646l-3.916 4.91a.395.395 0 0 1-.311.15Zm-4.314-.796h4.122l3.282-4.114H21.53l-3.738 4.114Z"/><path fill="#616161" d="M32.931 25.935H22.105a.399.399 0 0 1-.311-.646l5.413-6.784a.398.398 0 0 1 .622 0l5.413 6.784a.398.398 0 0 1-.311.646Zm-9.999-.796h9.172l-4.586-5.748-4.586 5.748Z"/><path fill="#616161" d="M27.518 24.53c-.927 0-1.68-.753-1.68-1.68 0-.926.754-1.68 1.68-1.68.927 0 1.68.755 1.68 1.68 0 .927-.753 1.68-1.68 1.68Zm0-2.564a.885.885 0 1 0 .884.884.885.885 0 0 0-.884-.884ZM38.17 39.53H16.866a.398.398 0 0 1-.398-.399V37.49c0-.22.178-.398.398-.398H38.17c.22 0 .398.179.398.398v1.642c0 .22-.178.398-.398.398Zm-20.906-.797h20.507v-.846H17.264v.846Z"/><path fill="#616161" d="M29.527 37.888h-4.019a.398.398 0 0 1-.398-.398v-5.398c0-.773.63-1.402 1.403-1.402h2.01c.773 0 1.402.628 1.402 1.402v5.398c0 .22-.178.398-.398.398Zm-3.62-.797h3.222v-4.999a.607.607 0 0 0-.607-.606h-2.01a.608.608 0 0 0-.606.606v5ZM23.792 34.642h-4.155a.398.398 0 0 1-.399-.398v-3.363c0-.22.179-.398.399-.398h4.155c.22 0 .398.178.398.398v3.363c0 .22-.178.398-.398.398Zm-3.758-.796h3.36v-2.567h-3.36v2.567Z"/><path fill="#616161" d="M21.715 34.642a.398.398 0 0 1-.399-.398v-3.363a.398.398 0 0 1 .797 0v3.363c0 .22-.179.398-.398.398ZM35.355 34.76h-4.156a.398.398 0 0 1-.398-.398V31c0-.22.178-.398.398-.398h4.155c.22 0 .399.178.399.398v3.363c0 .22-.179.398-.398.398Zm-3.758-.796h3.36v-2.567h-3.36v2.567Z"/><path fill="#616161" d="M33.277 34.76a.398.398 0 0 1-.398-.398V31a.398.398 0 0 1 .796 0v3.363c0 .22-.178.398-.398.398ZM23.792 33.168h-4.155a.398.398 0 0 1 0-.796h4.155a.398.398 0 0 1 0 .796Z"/><path fill="#616161" d="M35.355 33.286h-4.156a.398.398 0 0 1 0-.796h4.155a.398.398 0 0 1 0 .796ZM41.133 39.53h-27.23a.398.398 0 0 1 0-.797h27.23a.398.398 0 0 1 0 .797ZM24.329 42.493c-1.284 0-2.433-.24-3.56-.474-2.074-.432-4.033-.84-6.745.221a.398.398 0 0 1-.29-.741c2.932-1.147 5.1-.696 7.197-.26 1.994.416 3.877.808 6.461-.057 2.788-.934 4.867-.501 6.877-.083 2.074.432 4.032.84 6.744-.221a.397.397 0 1 1 .29.741c-2.933 1.147-5.1.696-7.197.26-1.995-.416-3.878-.808-6.462.057-1.223.41-2.311.557-3.315.557ZM24.329 44.62c-1.284 0-2.433-.239-3.56-.473-2.074-.432-4.033-.84-6.745.221a.398.398 0 1 1-.29-.741c2.932-1.147 5.1-.696 7.197-.26 1.994.416 3.877.808 6.461-.057 2.788-.934 4.867-.501 6.877-.083 2.074.432 4.032.84 6.744-.221a.397.397 0 1 1 .29.741c-2.933 1.147-5.1.696-7.197.26-1.995-.416-3.878-.808-6.462.057-1.223.41-2.311.556-3.315.556ZM24.329 46.748c-1.284 0-2.433-.24-3.56-.475-2.074-.431-4.033-.84-6.745.222a.398.398 0 0 1-.29-.741c2.932-1.147 5.1-.696 7.197-.26 1.994.416 3.877.808 6.461-.057 2.788-.934 4.867-.502 6.877-.083 2.074.432 4.032.84 6.744-.22a.397.397 0 1 1 .29.74c-2.933 1.148-5.1.697-7.197.26-1.995-.416-3.878-.807-6.462.058a10.29 10.29 0 0 1-3.315.556ZM40.526 37.942a2.318 2.318 0 0 1-2.315-2.316c0-.615.248-1.206.678-1.637a1.729 1.729 0 0 1 1.61-2.351 1.729 1.729 0 0 1 1.626 2.311 2.32 2.32 0 0 1 .718 1.677 2.319 2.319 0 0 1-2.317 2.316Zm-.027-5.508a.932.932 0 0 0-.782 1.436.398.398 0 0 1-.096.535c-.39.29-.614.736-.614 1.22 0 .839.682 1.52 1.52 1.52a1.522 1.522 0 0 0 .877-2.761.397.397 0 0 1-.11-.533.931.931 0 0 0-.794-1.417Z"/><path fill="#616161" d="M40.526 39.53a.398.398 0 0 1-.398-.399v-4.34a.398.398 0 0 1 .796 0v4.34c0 .22-.177.398-.398.398Z"/><path fill="#616161" d="M40.527 36.02a.397.397 0 0 1-.274-.685l.733-.698a.398.398 0 0 1 .549.577l-.734.697a.395.395 0 0 1-.274.11Z"/><path fill="#616161" d="M40.526 36.86a.397.397 0 0 1-.274-.11l-.733-.697a.398.398 0 1 1 .549-.577l.733.698a.397.397 0 0 1-.275.686ZM14.51 37.942a2.318 2.318 0 0 1-2.316-2.316c0-.615.248-1.206.678-1.637a1.729 1.729 0 0 1 1.61-2.351 1.729 1.729 0 0 1 1.626 2.311 2.32 2.32 0 0 1 .718 1.677 2.32 2.32 0 0 1-2.317 2.316Zm-.028-5.508a.932.932 0 0 0-.782 1.436.398.398 0 0 1-.097.535c-.39.29-.614.736-.614 1.22 0 .839.682 1.52 1.52 1.52a1.522 1.522 0 0 0 .877-2.761.397.397 0 0 1-.109-.533.93.93 0 0 0-.795-1.417Z"/><path fill="#616161" d="M14.51 39.53a.398.398 0 0 1-.399-.399v-4.34a.398.398 0 0 1 .796 0v4.34c0 .22-.178.398-.398.398Z"/><path fill="#616161" d="M14.51 36.02a.398.398 0 0 1-.274-.686l.732-.697a.398.398 0 0 1 .549.577l-.733.697a.395.395 0 0 1-.275.11Z"/><path fill="#616161" d="M14.509 36.86a.398.398 0 0 1-.275-.11l-.733-.697a.398.398 0 1 1 .549-.577l.733.697a.398.398 0 0 1-.274.687ZM5.688 65.552c.136 0 .252.048.348.144.096.088.144.2.144.336a.436.436 0 0 1-.144.336.497.497 0 0 1-.348.132H1.536a.474.474 0 0 1-.348-.144.497.497 0 0 1-.132-.348V58.58c0-.136.048-.248.144-.336a.488.488 0 0 1 .36-.144c.136 0 .252.048.348.144.096.088.144.2.144.336v7.188l-.24-.216h3.876Zm6.816-5.316c.136 0 .248.048.336.144.096.088.144.2.144.336v5.292a.474.474 0 0 1-.144.348.436.436 0 0 1-.336.144.45.45 0 0 1-.348-.144.497.497 0 0 1-.132-.348v-1.14l.228-.024c0 .176-.06.368-.18.576-.12.208-.284.404-.492.588a2.822 2.822 0 0 1-.744.444c-.28.112-.584.168-.912.168-.544 0-1.032-.14-1.464-.42a3.1 3.1 0 0 1-1.032-1.164c-.248-.488-.372-1.044-.372-1.668 0-.632.124-1.188.372-1.668.256-.488.6-.868 1.032-1.14.432-.28.912-.42 1.44-.42.344 0 .664.056.96.168.296.112.552.264.768.456.224.192.396.404.516.636.128.232.192.464.192.696l-.312-.072v-1.308c0-.136.044-.248.132-.336a.45.45 0 0 1 .348-.144Zm-2.472 5.496c.4 0 .752-.104 1.056-.312.312-.208.552-.488.72-.84.176-.36.264-.764.264-1.212 0-.44-.088-.836-.264-1.188a1.95 1.95 0 0 0-.72-.84 1.825 1.825 0 0 0-1.056-.312c-.392 0-.744.1-1.056.3a2.08 2.08 0 0 0-.72.828 2.675 2.675 0 0 0-.264 1.212c0 .448.084.852.252 1.212.176.352.416.632.72.84.312.208.668.312 1.068.312Zm5.307.768a.45.45 0 0 1-.348-.144.497.497 0 0 1-.132-.348V58.1c0-.136.044-.248.132-.336a.45.45 0 0 1 .348-.144c.136 0 .248.048.336.144.096.088.144.2.144.336v7.908a.474.474 0 0 1-.144.348.436.436 0 0 1-.336.144Zm3.984-6.24c.128 0 .236.052.324.156.096.096.144.196.144.3 0 .136-.064.256-.192.36l-3.888 3.396-.036-1.116 3.312-2.952a.46.46 0 0 1 .336-.144Zm.132 6.228a.495.495 0 0 1-.36-.156l-2.556-2.724.72-.66 2.532 2.712a.515.515 0 0 1 .144.36c0 .144-.056.26-.168.348a.548.548 0 0 1-.312.12Zm4.469.132c-.64 0-1.2-.136-1.68-.408a2.964 2.964 0 0 1-1.128-1.116c-.264-.48-.396-1.032-.396-1.656 0-.696.136-1.288.408-1.776.28-.496.64-.872 1.08-1.128.448-.264.92-.396 1.416-.396.368 0 .724.068 1.068.204.344.136.648.336.912.6.264.256.476.568.636.936.16.36.244.764.252 1.212a.423.423 0 0 1-.144.324.482.482 0 0 1-.336.132h-4.74l-.216-.828h4.62l-.192.168v-.264a1.515 1.515 0 0 0-.336-.84 1.835 1.835 0 0 0-.684-.552 1.9 1.9 0 0 0-.84-.192c-.24 0-.48.044-.72.132-.232.08-.444.216-.636.408a2.14 2.14 0 0 0-.456.72c-.112.296-.168.652-.168 1.068 0 .464.092.872.276 1.224.192.352.456.632.792.84.336.2.728.3 1.176.3.28 0 .524-.036.732-.108.208-.072.388-.16.54-.264.152-.112.28-.224.384-.336a.53.53 0 0 1 .3-.108c.12 0 .216.04.288.12.08.08.12.176.12.288 0 .136-.064.256-.192.36-.224.248-.528.468-.912.66a2.797 2.797 0 0 1-1.224.276Zm6.603-8.976c.136 0 .276.016.42.048.152.032.28.088.384.168.112.08.168.188.168.324 0 .128-.04.236-.12.324a.393.393 0 0 1-.288.12c-.072 0-.172-.02-.3-.06a1.119 1.119 0 0 0-.396-.072.806.806 0 0 0-.456.12.73.73 0 0 0-.252.324 1.223 1.223 0 0 0-.072.432v6.636a.474.474 0 0 1-.144.348.436.436 0 0 1-.336.144.45.45 0 0 1-.348-.144.497.497 0 0 1-.132-.348v-6.624c0-.536.164-.96.492-1.272.336-.312.796-.468 1.38-.468Zm.336 2.748a.44.44 0 0 1 .324.132c.088.08.132.184.132.312a.44.44 0 0 1-.132.324.464.464 0 0 1-.324.12H27.85a.44.44 0 0 1-.324-.132.427.427 0 0 1-.132-.312c0-.136.044-.244.132-.324a.464.464 0 0 1 .324-.12h3.012Zm2.18 6.108a.474.474 0 0 1-.347-.144.497.497 0 0 1-.132-.348v-5.232a.474.474 0 0 1 .48-.48.45.45 0 0 1 .348.144c.088.088.132.2.132.336v1.584l-.144-.252a2.51 2.51 0 0 1 .732-1.356c.192-.192.412-.34.66-.444a1.96 1.96 0 0 1 .816-.168c.176 0 .336.044.48.132.152.08.228.196.228.348 0 .168-.044.292-.132.372a.434.434 0 0 1-.3.12.773.773 0 0 1-.3-.06.801.801 0 0 0-.36-.072c-.2 0-.4.056-.6.168a1.887 1.887 0 0 0-.54.456c-.16.2-.292.428-.396.684a2.208 2.208 0 0 0-.144.804v2.916a.474.474 0 0 1-.144.348.436.436 0 0 1-.336.144Zm9.96-3.12c0 .624-.14 1.18-.42 1.668a3.028 3.028 0 0 1-1.116 1.152c-.464.28-.988.42-1.572.42-.584 0-1.112-.14-1.584-.42a3.118 3.118 0 0 1-1.128-1.152c-.272-.488-.408-1.044-.408-1.668 0-.624.136-1.18.408-1.668.28-.488.656-.872 1.128-1.152.472-.28 1-.42 1.584-.42.584 0 1.108.14 1.572.42.472.28.844.664 1.116 1.152.28.488.42 1.044.42 1.668Zm-.96 0c0-.464-.096-.872-.288-1.224a2.074 2.074 0 0 0-.768-.828c-.32-.2-.684-.3-1.092-.3-.408 0-.776.1-1.104.3-.32.2-.576.476-.768.828-.192.352-.288.76-.288 1.224 0 .456.096.86.288 1.212.192.352.448.632.768.84.328.2.696.3 1.104.3.408 0 .772-.1 1.092-.3a2.16 2.16 0 0 0 .768-.84 2.49 2.49 0 0 0 .288-1.212Zm5.488-3.24c.544 0 .972.112 1.284.336.312.224.532.524.66.9.136.376.204.796.204 1.26v3.372a.474.474 0 0 1-.144.348.436.436 0 0 1-.336.144.474.474 0 0 1-.348-.144.497.497 0 0 1-.132-.348V62.66c0-.304-.048-.576-.144-.816a1.15 1.15 0 0 0-.456-.588c-.208-.152-.496-.228-.864-.228-.336 0-.644.076-.924.228-.28.144-.504.34-.672.588-.168.24-.252.512-.252.816v3.348a.474.474 0 0 1-.144.348.436.436 0 0 1-.336.144.474.474 0 0 1-.348-.144.497.497 0 0 1-.132-.348v-5.232a.474.474 0 0 1 .48-.48.45.45 0 0 1 .348.144c.088.088.132.2.132.336v.852l-.24.264c.04-.208.132-.416.276-.624a2.45 2.45 0 0 1 .54-.576c.216-.168.456-.3.72-.396.264-.104.54-.156.828-.156Zm3.683.192h2.82c.128 0 .232.044.312.132a.427.427 0 0 1 .132.312.44.44 0 0 1-.132.324.422.422 0 0 1-.312.12h-2.82a.427.427 0 0 1-.312-.132.44.44 0 0 1-.132-.324c0-.12.044-.22.132-.3a.427.427 0 0 1 .312-.132Zm1.26-1.632c.136 0 .248.048.336.144.088.088.132.2.132.336v5.796c0 .192.028.336.084.432a.48.48 0 0 0 .216.204.872.872 0 0 0 .276.048c.08 0 .148-.012.204-.036a.476.476 0 0 1 .216-.048c.08 0 .152.04.216.12a.39.39 0 0 1 .108.288c0 .144-.084.268-.252.372a1.116 1.116 0 0 1-.564.144c-.112 0-.252-.008-.42-.024a1.252 1.252 0 0 1-.48-.156 1.07 1.07 0 0 1-.408-.432c-.104-.208-.156-.496-.156-.864V59.18c0-.136.048-.248.144-.336a.474.474 0 0 1 .348-.144Z"/></svg>