<svg xmlns="http://www.w3.org/2000/svg" width="47" height="84" fill="none"><path fill="#616161" d="M39.438 24.531a.532.532 0 0 0 .53-.531v-2.125a.532.532 0 0 0-.53-.531h-.904l-7.833-5.224a.535.535 0 0 0-.295-.089H16.594a.535.535 0 0 0-.295.09l-7.833 5.223h-.903a.531.531 0 0 0-.532.531V24a.531.531 0 0 0 .532.531h.53v12.512a2.12 2.12 0 0 0-1.062 1.832 1.594 1.594 0 0 0 1.594 1.594h4.25a1.594 1.594 0 0 0 1.594-1.594c0-.18-.024-.358-.07-.531H15v1.593a.532.532 0 0 0 .531.532h2.125a.531.531 0 0 0 .532-.532v-1.593h1.871l-1.806 4.52c-7.323.8-11.222 3.246-11.222 5.574a.531.531 0 0 0 .532.53h6.375a.532.532 0 0 0 .53-.53c0-1.11 3.436-2.657 9.032-2.657s9.031 1.547 9.031 2.657a.532.532 0 0 0 .532.53h6.374a.532.532 0 0 0 .532-.53c0-2.328-3.899-4.774-11.22-5.573l-1.808-4.521h1.872v1.593a.532.532 0 0 0 .53.532h2.126a.531.531 0 0 0 .531-.532v-1.593h.601c-.046.173-.07.352-.07.531a1.594 1.594 0 0 0 1.594 1.594h4.25a1.594 1.594 0 0 0 1.594-1.594 2.12 2.12 0 0 0-1.063-1.832V24.53h.532Zm-.532-1.062h-8.712l-1.449-1.063h10.161v1.063Zm-22.843 3.187v-1.062h14.875v1.062H16.063Zm7.437-6.778 6.346 4.653h-2.457l-3.58-2.557a.531.531 0 0 0-.618 0l-3.58 2.557h-2.457l6.346-4.653Zm2.06 4.653h-4.12l2.06-1.472 2.06 1.472Zm-8.807-7.437h13.494l6.375 4.25h-9.326l-3.482-2.554a.532.532 0 0 0-.628 0l-3.482 2.554h-9.326l6.375-4.25Zm-8.66 5.312h10.162l-1.449 1.063H8.094v-1.063Zm4.782 17h-4.25a.531.531 0 0 1-.531-.531 1.062 1.062 0 0 1 1.046-1.063c.014 0 .07.009.084.01a.517.517 0 0 0 .458-.213.531.531 0 0 0 .073-.5.946.946 0 0 1 .062-.832 1.111 1.111 0 0 1 .712-.566c.258-.057.527-.012.752.125a.532.532 0 0 0 .535 0c.229-.14.504-.183.765-.12a1.09 1.09 0 0 1 .808.831 1.049 1.049 0 0 1-.258.91.531.531 0 0 0 0 .71c.177.194.275.446.275.708a.532.532 0 0 1-.531.531Zm1.516-2.125c.082-.303.096-.62.04-.93a2.153 2.153 0 0 0-1.61-1.673 2.058 2.058 0 0 0-1.274.106 2.067 2.067 0 0 0-1.244-.112c-.448.105-.85.352-1.147.705V24.53h6.201l-.14.103a.53.53 0 0 0-.217.428v12.22h-.609Zm1.671 2.125V27.72h1.063v11.687h-1.063Zm10.625-2.125h-1.062v-4.25a2.125 2.125 0 0 0-4.25 0v4.25h-1.063v-4.25a3.188 3.188 0 0 1 6.375 0v4.25Zm-2.125 0h-2.125v-4.25a1.063 1.063 0 0 1 2.125 0v4.25Zm14.231 10.625h-5.287c-.7-2.072-5.485-3.187-10.006-3.187s-9.305 1.115-10.006 3.187H8.207c.888-2.107 6.92-4.25 15.293-4.25 8.372 0 14.405 2.143 15.293 4.25ZM27.56 42.753a50.197 50.197 0 0 0-4.06-.16c-1.445 0-2.797.058-4.06.16l1.763-4.41h4.594l1.763 4.41Zm.19-5.472v-4.25a4.25 4.25 0 0 0-8.5 0v4.25h-1.063V27.72h10.625v9.562H27.75Zm2.125 2.125V27.72h1.063v11.687h-1.063Zm8.5 0h-4.25a.532.532 0 0 1-.531-.531c0-.262.1-.514.276-.707a.531.531 0 0 0 0-.71 1.05 1.05 0 0 1-.257-.91 1.09 1.09 0 0 1 .808-.833 1.03 1.03 0 0 1 .767.121.531.531 0 0 0 .534 0 1.02 1.02 0 0 1 .75-.125 1.112 1.112 0 0 1 .712.567.946.946 0 0 1 .062.832.53.53 0 0 0 .531.712c.014 0 .053-.007.068-.009a1.063 1.063 0 0 1 1.063 1.063.53.53 0 0 1-.533.53Zm-.531-4.03a2.134 2.134 0 0 0-1.147-.703 2.06 2.06 0 0 0-1.244.111 2.054 2.054 0 0 0-1.275-.106 2.153 2.153 0 0 0-1.61 1.674c-.055.309-.041.626.04.93H32v-12.22a.53.53 0 0 0-.217-.428l-.14-.103h6.2v10.846Z"/><path fill="#616161" d="M11.813 25.594a1.594 1.594 0 0 0-1.594 1.593v3.188a.532.532 0 0 0 .531.531h2.125a.532.532 0 0 0 .531-.531v-3.188a1.594 1.594 0 0 0-1.594-1.593Zm.53 4.25h-1.062v-2.657a.532.532 0 0 1 1.063 0v2.657ZM34.125 30.906h2.125a.532.532 0 0 0 .531-.531v-3.188a1.594 1.594 0 0 0-3.187 0v3.188a.532.532 0 0 0 .531.531Zm.531-3.718a.532.532 0 0 1 1.063 0v2.656h-1.063v-2.657ZM1.548 58.088a.51.51 0 0 1 .228.06c.088.04.156.092.204.156l3.18 4.812-.42-.012 3.216-4.8a.446.446 0 0 1 .408-.216c.128.008.24.056.336.144a.45.45 0 0 1 .144.348v7.428a.488.488 0 0 1-.504.492.488.488 0 0 1-.504-.492v-6.516l.3.06-2.832 4.308a.649.649 0 0 1-.18.144.379.379 0 0 1-.204.06.441.441 0 0 1-.216-.06.649.649 0 0 1-.18-.144l-2.796-4.308.252-.312v6.768a.497.497 0 0 1-.132.348.436.436 0 0 1-.336.144.436.436 0 0 1-.336-.144.526.526 0 0 1-.12-.348V58.58c0-.128.044-.24.132-.336a.47.47 0 0 1 .36-.156Zm14.343 2.148c.136 0 .248.048.336.144.096.088.144.2.144.336v5.292a.474.474 0 0 1-.144.348.436.436 0 0 1-.336.144.45.45 0 0 1-.348-.144.497.497 0 0 1-.132-.348v-1.14l.228-.024c0 .176-.06.368-.18.576-.12.208-.284.404-.492.588a2.822 2.822 0 0 1-.744.444c-.28.112-.584.168-.912.168-.544 0-1.032-.14-1.464-.42a3.1 3.1 0 0 1-1.032-1.164c-.248-.488-.372-1.044-.372-1.668 0-.632.124-1.188.372-1.668.256-.488.6-.868 1.032-1.14.432-.28.912-.42 1.44-.42.344 0 .664.056.96.168.296.112.552.264.768.456.224.192.396.404.516.636.128.232.192.464.192.696l-.312-.072v-1.308c0-.136.044-.248.132-.336a.45.45 0 0 1 .348-.144Zm-2.472 5.496c.4 0 .752-.104 1.056-.312.312-.208.552-.488.72-.84.176-.36.264-.764.264-1.212 0-.44-.088-.836-.264-1.188a1.95 1.95 0 0 0-.72-.84 1.825 1.825 0 0 0-1.056-.312c-.392 0-.744.1-1.056.3a2.08 2.08 0 0 0-.72.828 2.675 2.675 0 0 0-.264 1.212c0 .448.084.852.252 1.212.176.352.416.632.72.84.312.208.668.312 1.068.312Zm7.815-5.592c.544 0 .972.112 1.284.336.312.224.532.524.66.9.136.376.204.796.204 1.26v3.372a.474.474 0 0 1-.144.348.436.436 0 0 1-.336.144.474.474 0 0 1-.348-.144.497.497 0 0 1-.132-.348V62.66c0-.304-.048-.576-.144-.816a1.15 1.15 0 0 0-.456-.588c-.208-.152-.496-.228-.864-.228-.336 0-.644.076-.924.228-.28.144-.504.34-.672.588-.168.24-.252.512-.252.816v3.348a.474.474 0 0 1-.144.348.436.436 0 0 1-.336.144.474.474 0 0 1-.348-.144.497.497 0 0 1-.132-.348v-5.232a.474.474 0 0 1 .48-.48.45.45 0 0 1 .348.144c.088.088.132.2.132.336v.852l-.24.264c.04-.208.132-.416.276-.624a2.45 2.45 0 0 1 .54-.576c.216-.168.456-.3.72-.396.264-.104.54-.156.828-.156Zm3.575 5.376a.496.496 0 0 1-.096-.324c.008-.12.076-.224.204-.312a.412.412 0 0 1 .276-.072c.112.008.212.06.3.156.225.264.48.476.769.636.287.152.64.228 1.055.228a2.41 2.41 0 0 0 .576-.096c.192-.056.352-.152.48-.288a.788.788 0 0 0 .204-.564c0-.224-.068-.4-.204-.528a1.442 1.442 0 0 0-.527-.324 5.255 5.255 0 0 0-.709-.228 12.585 12.585 0 0 1-.78-.24 3.535 3.535 0 0 1-.695-.348 1.82 1.82 0 0 1-.492-.528 1.583 1.583 0 0 1-.18-.78c0-.36.096-.672.288-.936.2-.264.463-.468.792-.612.335-.144.7-.216 1.091-.216.224 0 .456.028.697.084.247.048.488.136.72.264.232.12.436.288.611.504.073.08.113.18.12.3.008.12-.044.228-.155.324a.441.441 0 0 1-.564-.036c-.168-.2-.38-.352-.637-.456a1.99 1.99 0 0 0-.828-.168c-.192 0-.38.028-.564.084a1.05 1.05 0 0 0-.468.288c-.12.128-.18.308-.18.54.009.216.08.392.216.528s.32.248.552.336c.232.08.488.16.768.24.256.064.5.14.732.228.24.08.456.188.648.324s.345.312.456.528c.113.208.168.472.168.792 0 .368-.104.688-.311.96a2.024 2.024 0 0 1-.828.612c-.337.136-.7.204-1.093.204-.44 0-.875-.084-1.308-.252a2.617 2.617 0 0 1-1.104-.852Zm6.956.492a.474.474 0 0 1-.144.348.436.436 0 0 1-.336.144.45.45 0 0 1-.348-.144.497.497 0 0 1-.132-.348V60.68a.474.474 0 0 1 .48-.48c.136 0 .248.048.336.144.096.088.144.2.144.336v5.328Zm-.48-6.612c-.2 0-.348-.04-.444-.12-.096-.08-.144-.204-.144-.372v-.168c0-.168.052-.292.156-.372.104-.08.252-.12.444-.12s.336.04.432.12c.096.08.144.204.144.372v.168c0 .168-.052.292-.156.372-.096.08-.24.12-.432.12Zm8.097 3.984c0 .624-.14 1.18-.42 1.668a3.028 3.028 0 0 1-1.116 1.152c-.464.28-.988.42-1.572.42-.584 0-1.112-.14-1.584-.42a3.118 3.118 0 0 1-1.128-1.152c-.272-.488-.408-1.044-.408-1.668 0-.624.136-1.18.408-1.668.28-.488.656-.872 1.128-1.152.472-.28 1-.42 1.584-.42.584 0 1.108.14 1.572.42.472.28.844.664 1.116 1.152.28.488.42 1.044.42 1.668Zm-.96 0c0-.464-.096-.872-.288-1.224a2.074 2.074 0 0 0-.768-.828c-.32-.2-.684-.3-1.092-.3-.408 0-.776.1-1.104.3-.32.2-.576.476-.768.828-.192.352-.288.76-.288 1.224 0 .456.096.86.288 1.212.192.352.448.632.768.84.328.2.696.3 1.104.3.408 0 .772-.1 1.092-.3a2.16 2.16 0 0 0 .768-.84 2.49 2.49 0 0 0 .288-1.212Zm5.488-3.24c.544 0 .972.112 1.284.336.311.224.531.524.66.9.136.376.203.796.203 1.26v3.372a.474.474 0 0 1-.144.348.436.436 0 0 1-.335.144.474.474 0 0 1-.349-.144.497.497 0 0 1-.132-.348V62.66c0-.304-.047-.576-.144-.816a1.15 1.15 0 0 0-.456-.588c-.208-.152-.495-.228-.864-.228-.336 0-.644.076-.924.228-.28.144-.504.34-.672.588-.167.24-.252.512-.252.816v3.348a.474.474 0 0 1-.143.348.436.436 0 0 1-.337.144.474.474 0 0 1-.347-.144.497.497 0 0 1-.133-.348v-5.232a.474.474 0 0 1 .48-.48.45.45 0 0 1 .349.144c.087.088.131.2.131.336v.852l-.24.264c.04-.208.133-.416.276-.624a2.45 2.45 0 0 1 .54-.576c.217-.168.457-.3.72-.396.264-.104.54-.156.828-.156Z"/></svg>