<svg xmlns="http://www.w3.org/2000/svg" width="34" height="84" fill="none"><g fill="#616161" clip-path="url(#a)"><path fill-rule="evenodd" d="m19.023 36.349-7.292 9.778a.567.567 0 1 0 .907.68l7.293-9.781a.567.567 0 0 0-.907-.68l-.001.003Z" clip-rule="evenodd"/><path d="m1.237 39.038 3.025 1.01a.938.938 0 0 0 .815-.081l10.347-6.2c.131.373.29.736.474 1.085l-1.813 2.431a.976.976 0 0 0-.18.716l.149 1.05-1.125.333a.969.969 0 0 0-.699.943c.011.237.04.473.088.705l.044.284-1.133.334a.974.974 0 0 0-.681 1.07l.123.868-1.09.324a1.749 1.749 0 0 0-1.213 2.064l.623 2.763c.094.442.482.76.934.763.025 0 .051 0 .077-.003l3.18-.218a.955.955 0 0 0 .727-.388l7.443-9.979a7.92 7.92 0 0 0 9-10.5 7.074 7.074 0 1 0-10.126-9.367 7.907 7.907 0 0 0-7.964 8.69L9.648 29.3a.977.977 0 0 0-.428.59l-.259 1.025-1.166-.12a.97.97 0 0 0-1.01.605 4.67 4.67 0 0 0-.187.699l-.064.271-1.166-.118a.97.97 0 0 0-1.053.725l-.214.85-1.129-.113a1.714 1.714 0 0 0-1.076.235c-.446.26-.752.706-.837 1.215L.586 37.95a.95.95 0 0 0 .65 1.088ZM28.762 34.6a6.755 6.755 0 0 1-7.504 3.128.567.567 0 0 0-.594.21l-7.617 10.215-2.98.204-.596-2.628a.63.63 0 0 1 .108-.51.623.623 0 0 1 .321-.222l1.226-.364a.963.963 0 0 0 .683-1.07l-.123-.867 1.134-.335a.963.963 0 0 0 .683-1.071l-.067-.438c-.026-.165-.051-.318-.065-.42l1.144-.338a.963.963 0 0 0 .68-1.07l-.16-1.121 1.99-2.67a.567.567 0 0 0 .034-.627 6.8 6.8 0 1 1 11.853-6.661 5.876 5.876 0 0 1-2.077.557 2.26 2.26 0 1 0-.416 1.72c.128-.178.23-.373.3-.58a7.026 7.026 0 0 0 2.638-.655 6.788 6.788 0 0 1-.595 5.613Zm-4.873-6.611a1.123 1.123 0 0 1 1.779.498 5.844 5.844 0 0 1-1.778-.498Zm1.565 1.616a1.126 1.126 0 0 1-1.968-.552c.625.28 1.288.465 1.968.552Zm.904-12.97a5.94 5.94 0 0 1 3.525 10.728 7.799 7.799 0 0 0-1.55-2.015c-.17-.157-.344-.299-.522-.44a7.86 7.86 0 0 0-5.3-5.515c-.335-.1-.675-.179-1.02-.235a5.92 5.92 0 0 1 4.867-2.524ZM2.182 35.35a.61.61 0 0 1 .297-.43.595.595 0 0 1 .377-.084l1.275.13a.951.951 0 0 0 1.034-.726l.214-.85 1.178.121a.978.978 0 0 0 1.04-.736l.1-.42c.04-.165.075-.32.102-.423l1.186.122a.96.96 0 0 0 1.037-.726l.28-1.105 2.855-1.706a.567.567 0 0 0 .27-.567 6.794 6.794 0 0 1 12.8-4.023 7.829 7.829 0 0 0-4.03-.69 7.933 7.933 0 0 0-7.083 9.393L4.561 38.954l-2.83-.946.451-2.657Z"/><path fill-rule="evenodd" d="M13.761 32.12a.567.567 0 0 0-.581-.972L4.117 36.58a.567.567 0 1 0 .582.973l9.063-5.433Z" clip-rule="evenodd"/></g><path fill="#616161" d="M11.772 58.1c.136 0 .244.044.324.132.08.08.12.184.12.312v7.452a.503.503 0 0 1-.144.372.497.497 0 0 1-.348.132.68.68 0 0 1-.216-.036.454.454 0 0 1-.168-.12l-5.136-6.792.24-.144v6.648a.44.44 0 0 1-.132.324.438.438 0 0 1-.324.12.422.422 0 0 1-.312-.12.464.464 0 0 1-.12-.324V58.58a.47.47 0 0 1 .132-.348.482.482 0 0 1 .336-.132c.072 0 .144.016.216.048.08.024.14.064.18.12l5.064 6.696-.156.192v-6.612c0-.128.04-.232.12-.312a.44.44 0 0 1 .324-.132Zm5.25 8.52c-.64 0-1.2-.136-1.68-.408a2.964 2.964 0 0 1-1.128-1.116c-.264-.48-.396-1.032-.396-1.656 0-.696.136-1.288.408-1.776.28-.496.64-.872 1.08-1.128.448-.264.92-.396 1.416-.396.368 0 .724.068 1.068.204.344.136.648.336.912.6.264.256.476.568.636.936.16.36.244.764.252 1.212a.423.423 0 0 1-.144.324.482.482 0 0 1-.336.132h-4.74l-.216-.828h4.62l-.192.168v-.264a1.515 1.515 0 0 0-.336-.84 1.835 1.835 0 0 0-.684-.552 1.9 1.9 0 0 0-.84-.192c-.24 0-.48.044-.72.132-.232.08-.444.216-.636.408a2.14 2.14 0 0 0-.456.72c-.112.296-.168.652-.168 1.068 0 .464.092.872.276 1.224.192.352.456.632.792.84.336.2.728.3 1.176.3.28 0 .524-.036.732-.108.208-.072.388-.16.54-.264.152-.112.28-.224.384-.336a.53.53 0 0 1 .3-.108c.12 0 .216.04.288.12.08.08.12.176.12.288 0 .136-.064.256-.192.36-.224.248-.528.468-.912.66a2.797 2.797 0 0 1-1.224.276Zm11.33-6.432a.44.44 0 0 1 .325.132.45.45 0 0 1 .143.348.556.556 0 0 1-.012.108.213.213 0 0 1-.023.096l-1.849 5.316a.462.462 0 0 1-.203.24.458.458 0 0 1-.288.072c-.184-.008-.325-.112-.42-.312l-1.512-3.792.24.036-1.369 3.756c-.087.2-.227.304-.42.312a.507.507 0 0 1-.3-.072.409.409 0 0 1-.192-.24l-1.884-5.316a.646.646 0 0 1-.036-.204c0-.128.044-.24.133-.336a.464.464 0 0 1 .36-.144c.095 0 .183.024.263.072.08.048.137.124.169.228l1.62 4.728-.253-.012 1.404-3.6c.08-.2.229-.3.444-.3.113 0 .2.028.264.084.073.048.125.12.157.216l1.463 3.6-.3.024 1.62-4.74c.072-.2.224-.3.456-.3Z"/><defs><clipPath id="a"><path fill="#fff" d="M0 15.5h34v34H0z"/></clipPath></defs></svg>