<svg xmlns="http://www.w3.org/2000/svg" width="78" height="84" fill="none"><g fill="#616161" clip-path="url(#a)"><path d="M55.78 37.218a.5.5 0 0 0-.692.132c-.042.062-1.045 1.498-2.888 1.498-1.842 0-2.846-1.436-2.886-1.496-.184-.29-.645-.29-.829 0-.01.015-1.025 1.496-2.884 1.496-1.558 0-2.516-1.027-2.799-1.38v-7.733h12.699a.499.499 0 1 0 0-.998h-4.013V25.1c0-3.3-2.653-6.01-5.913-6.041a5.927 5.927 0 0 0-4.259 1.73 5.975 5.975 0 0 0-1.284 1.875c-.922-2.1-2.997-3.582-5.402-3.605h-.06a5.929 5.929 0 0 0-4.2 1.73 5.929 5.929 0 0 0-1.77 4.241v3.707h-6.063a.499.499 0 1 0 0 .998h6.062v1.97a.499.499 0 1 0 .998 0V25.03c0-1.335.524-2.59 1.476-3.532a4.925 4.925 0 0 1 3.547-1.441c2.715.026 4.925 2.288 4.925 5.043v3.637h-1.262V25.03a3.73 3.73 0 0 0-3.71-3.712c-.964 0-1.877.377-2.577 1.065a3.817 3.817 0 0 0-1.137 2.704v13.394a3.9 3.9 0 0 1-1.262-1.019v-3.76a.499.499 0 1 0-.998 0v3.765c-.284.355-1.242 1.38-2.8 1.38-1.842 0-2.845-1.435-2.886-1.495a.5.5 0 0 0-.828.557c.053.079 1.33 1.937 3.715 1.937 1.63 0 2.743-.868 3.3-1.443.558.575 1.67 1.443 3.3 1.443 1.631 0 2.742-.868 3.3-1.443.557.575 1.67 1.443 3.3 1.443s2.743-.868 3.3-1.443c.558.575 1.67 1.443 3.301 1.443 1.63 0 2.742-.868 3.299-1.443.557.575 1.67 1.443 3.3 1.443 2.385 0 3.662-1.858 3.715-1.937a.498.498 0 0 0-.135-.69Zm-23.923-4.015h7.688V34.6h-7.688v-1.397Zm7.688-.998h-7.688v-2.47h7.688v2.47Zm-6.849-9.11a2.662 2.662 0 0 1 1.922-.779 2.726 2.726 0 0 1 2.667 2.714v3.707h-5.428v-3.65c0-.742.306-1.468.839-1.992Zm3.417 14.257c-.183-.29-.642-.29-.827-.001-.042.061-1.043 1.497-2.885 1.497-.19 0-.372-.016-.544-.044v-3.206h7.688v3.206a3.438 3.438 0 0 1-.545.044c-1.843 0-2.846-1.436-2.887-1.496Zm4.43 1.128V25.03c0-1.335.524-2.59 1.475-3.532a4.925 4.925 0 0 1 3.547-1.441c2.716.026 4.925 2.288 4.925 5.043v3.637h-1.262v-1.11a.499.499 0 1 0-.998 0v1.11h-5.428v-3.65c0-.742.306-1.468.84-1.993a2.66 2.66 0 0 1 1.921-.778 2.727 2.727 0 0 1 2.667 2.714v.601a.499.499 0 0 0 .998 0v-.601a3.73 3.73 0 0 0-3.71-3.712c-.964 0-1.876.377-2.577 1.065a3.817 3.817 0 0 0-1.137 2.704v12.374c-.17.214-.597.686-1.261 1.02ZM35.702 44.944c-1.843 0-2.846-1.437-2.887-1.496-.183-.29-.642-.29-.827-.002-.042.061-1.045 1.498-2.888 1.498-1.842 0-2.846-1.437-2.886-1.496a.499.499 0 1 0-.828.557c.053.079 1.33 1.937 3.714 1.937 1.63 0 2.743-.869 3.3-1.443.559.574 1.671 1.443 3.302 1.443a.499.499 0 1 0 0-.998ZM52.48 43.314a.5.5 0 0 0-.693.133c-.042.061-1.043 1.497-2.885 1.497-1.843 0-2.846-1.436-2.887-1.496-.183-.29-.645-.29-.828 0-.01.015-1.027 1.496-2.887 1.496-1.842 0-2.845-1.436-2.886-1.496-.184-.29-.643-.29-.828-.001-.004.006-.406.588-1.15 1.022a.5.5 0 0 0 .504.862 5.014 5.014 0 0 0 1.06-.833c.557.575 1.67 1.444 3.3 1.444 1.631 0 2.744-.868 3.301-1.443.558.575 1.67 1.443 3.3 1.443 2.386 0 3.66-1.858 3.713-1.937a.498.498 0 0 0-.135-.691Z"/></g><path fill="#616161" d="m3.96 59.348-2.82 6.864a.44.44 0 0 1-.168.228.433.433 0 0 1-.252.084c-.152 0-.264-.04-.336-.12a.416.416 0 0 1-.108-.288.363.363 0 0 1 .024-.18l3.108-7.56c.04-.112.1-.192.18-.24a.458.458 0 0 1 .288-.072.47.47 0 0 1 .276.084.422.422 0 0 1 .18.228l3.096 7.488a.544.544 0 0 1 .036.192.45.45 0 0 1-.144.348.493.493 0 0 1-.324.12.45.45 0 0 1-.264-.084.504.504 0 0 1-.18-.24l-2.856-6.864.264.012Zm-2.22 4.908.408-.936h3.564l.18.936H1.74Zm9.835-4.056c.544 0 .984.14 1.32.42.344.272.572.66.684 1.164h-.18l.084-.216c.096-.224.26-.44.492-.648.232-.208.5-.38.804-.516.304-.136.62-.204.948-.204.528 0 .944.116 1.248.348.304.224.52.528.648.912.136.376.204.8.204 1.272v3.276a.474.474 0 0 1-.144.348.436.436 0 0 1-.336.144.45.45 0 0 1-.348-.144.497.497 0 0 1-.132-.348v-3.252c0-.312-.048-.592-.144-.84a1.169 1.169 0 0 0-.444-.6c-.2-.152-.476-.228-.828-.228-.328 0-.628.076-.9.228a1.672 1.672 0 0 0-.648.6c-.16.248-.24.528-.24.84v3.252a.497.497 0 0 1-.132.348.45.45 0 0 1-.348.144.474.474 0 0 1-.348-.144.497.497 0 0 1-.132-.348V62.72a2.36 2.36 0 0 0-.132-.816 1.13 1.13 0 0 0-.42-.588c-.2-.152-.476-.228-.828-.228-.32 0-.612.076-.876.228a1.73 1.73 0 0 0-.636.588c-.16.24-.24.512-.24.816v3.288a.474.474 0 0 1-.144.348.436.436 0 0 1-.336.144.474.474 0 0 1-.348-.144.497.497 0 0 1-.132-.348v-5.232a.474.474 0 0 1 .48-.48.45.45 0 0 1 .348.144c.088.088.132.2.132.336v.912l-.264.288c.032-.208.112-.416.24-.624a2.67 2.67 0 0 1 1.212-.996c.256-.104.528-.156.816-.156Zm13.14.036c.136 0 .248.048.336.144.096.088.144.2.144.336v5.292a.474.474 0 0 1-.144.348.436.436 0 0 1-.336.144.45.45 0 0 1-.348-.144.497.497 0 0 1-.132-.348v-1.14l.228-.024c0 .176-.06.368-.18.576-.12.208-.284.404-.492.588a2.822 2.822 0 0 1-.744.444c-.28.112-.584.168-.912.168-.544 0-1.032-.14-1.464-.42a3.1 3.1 0 0 1-1.032-1.164c-.248-.488-.372-1.044-.372-1.668 0-.632.124-1.188.372-1.668.256-.488.6-.868 1.032-1.14.432-.28.912-.42 1.44-.42.344 0 .664.056.96.168.296.112.552.264.768.456.224.192.396.404.516.636.128.232.192.464.192.696l-.312-.072v-1.308c0-.136.044-.248.132-.336a.45.45 0 0 1 .348-.144Zm-2.472 5.496c.4 0 .752-.104 1.056-.312.312-.208.552-.488.72-.84.176-.36.264-.764.264-1.212 0-.44-.088-.836-.264-1.188a1.95 1.95 0 0 0-.72-.84 1.825 1.825 0 0 0-1.056-.312c-.392 0-.744.1-1.056.3a2.08 2.08 0 0 0-.72.828 2.675 2.675 0 0 0-.264 1.212c0 .448.084.852.252 1.212.176.352.416.632.72.84.312.208.668.312 1.068.312Zm8.667-.12a.44.44 0 0 1 .324.132c.088.08.132.184.132.312 0 .12-.044.224-.132.312a.44.44 0 0 1-.324.132h-3.888a.4.4 0 0 1-.336-.156.487.487 0 0 1-.12-.288c.008-.08.02-.148.036-.204a.596.596 0 0 1 .108-.192l3.432-4.644.012.132H27.25a.44.44 0 0 1-.324-.132.44.44 0 0 1-.132-.324c0-.12.044-.22.132-.3a.44.44 0 0 1 .324-.132h3.684c.128 0 .232.048.312.144.088.088.132.2.132.336a1.26 1.26 0 0 1-.036.168.808.808 0 0 1-.096.18l-3.396 4.584-.084-.06h3.144Zm2.765.396a.474.474 0 0 1-.144.348.436.436 0 0 1-.336.144.45.45 0 0 1-.348-.144.497.497 0 0 1-.132-.348V60.68a.474.474 0 0 1 .48-.48c.136 0 .248.048.336.144.096.088.144.2.144.336v5.328Zm-.48-6.612c-.2 0-.348-.04-.444-.12-.096-.08-.144-.204-.144-.372v-.168c0-.168.052-.292.156-.372.104-.08.252-.12.444-.12s.336.04.432.12c.096.08.144.204.144.372v.168c0 .168-.052.292-.156.372-.096.08-.24.12-.432.12Zm5.289.744c.544 0 .972.112 1.284.336.312.224.532.524.66.9.136.376.204.796.204 1.26v3.372a.474.474 0 0 1-.144.348.436.436 0 0 1-.336.144.474.474 0 0 1-.348-.144.497.497 0 0 1-.132-.348V62.66c0-.304-.048-.576-.144-.816a1.15 1.15 0 0 0-.456-.588c-.208-.152-.496-.228-.864-.228-.336 0-.644.076-.924.228-.28.144-.504.34-.672.588-.168.24-.252.512-.252.816v3.348a.474.474 0 0 1-.144.348.436.436 0 0 1-.336.144.474.474 0 0 1-.348-.144.497.497 0 0 1-.132-.348v-5.232a.474.474 0 0 1 .48-.48.45.45 0 0 1 .348.144c.088.088.132.2.132.336v.852l-.24.264c.04-.208.132-.416.276-.624a2.45 2.45 0 0 1 .54-.576c.216-.168.456-.3.72-.396.264-.104.54-.156.828-.156Zm6.527 0c.344 0 .664.06.96.18.297.112.553.26.769.444.224.184.395.376.515.576.128.2.192.388.192.564l-.228-.144v-1.044c0-.136.044-.248.133-.336a.45.45 0 0 1 .348-.144c.136 0 .247.048.335.144.097.088.145.2.145.336v5.256c0 .656-.14 1.2-.42 1.632a2.55 2.55 0 0 1-1.104.972 3.653 3.653 0 0 1-1.56.324c-.24 0-.504-.032-.792-.096a4.347 4.347 0 0 1-.769-.24c-.223-.088-.367-.18-.431-.276a.526.526 0 0 1-.228-.276.32.32 0 0 1 .06-.276c.072-.112.163-.168.276-.168.12 0 .267.036.444.108.072.024.184.064.336.12.16.056.336.104.528.144.2.048.395.072.587.072.68 0 1.2-.18 1.56-.54.368-.352.552-.82.552-1.404v-1.116l.133.06a1.505 1.505 0 0 1-.3.624 2.377 2.377 0 0 1-.54.516c-.209.144-.44.26-.697.348a2.6 2.6 0 0 1-.78.12c-.56 0-1.063-.14-1.511-.42a3.028 3.028 0 0 1-1.069-1.152c-.255-.488-.383-1.044-.383-1.668 0-.632.127-1.192.383-1.68a2.968 2.968 0 0 1 1.056-1.14c.448-.28.948-.42 1.5-.42Zm.12.888c-.407 0-.776.104-1.103.312-.32.2-.572.476-.756.828a2.675 2.675 0 0 0-.264 1.212c0 .44.087.84.264 1.2.184.352.436.632.756.84.328.208.696.312 1.104.312.416 0 .784-.1 1.104-.3.32-.208.572-.488.756-.84.184-.352.276-.756.276-1.212 0-.464-.093-.872-.276-1.224a2.103 2.103 0 0 0-.756-.828c-.32-.2-.688-.3-1.104-.3ZM56.32 60.2a2.69 2.69 0 0 1 1.464.408c.432.272.772.648 1.02 1.128.256.48.384 1.032.384 1.656 0 .616-.128 1.168-.384 1.656-.248.48-.588.86-1.02 1.14a2.61 2.61 0 0 1-1.44.408 2.64 2.64 0 0 1-.84-.132 3.463 3.463 0 0 1-.708-.36 2.648 2.648 0 0 1-.528-.504 2.1 2.1 0 0 1-.312-.564l.264-.168v3.54a.497.497 0 0 1-.132.348.45.45 0 0 1-.348.144.474.474 0 0 1-.48-.492V60.74a.474.474 0 0 1 .48-.48.45.45 0 0 1 .348.144c.088.088.132.2.132.336v1.068l-.18-.096c.056-.2.152-.392.288-.576.144-.184.316-.344.516-.48.208-.144.436-.256.684-.336.256-.08.52-.12.792-.12Zm-.108.888c-.4 0-.756.1-1.068.3a2.1 2.1 0 0 0-.72.816c-.168.344-.252.74-.252 1.188 0 .44.084.836.252 1.188.176.352.416.628.72.828.312.2.668.3 1.068.3s.752-.1 1.056-.3c.304-.2.544-.476.72-.828a2.62 2.62 0 0 0 .264-1.188c0-.448-.088-.844-.264-1.188a2.1 2.1 0 0 0-.72-.816c-.304-.2-.656-.3-1.056-.3Zm10.311 2.292c0 .624-.14 1.18-.42 1.668a3.028 3.028 0 0 1-1.116 1.152c-.464.28-.988.42-1.572.42-.584 0-1.112-.14-1.584-.42a3.118 3.118 0 0 1-1.128-1.152c-.272-.488-.408-1.044-.408-1.668 0-.624.136-1.18.408-1.668.28-.488.656-.872 1.128-1.152.472-.28 1-.42 1.584-.42.584 0 1.108.14 1.572.42.472.28.844.664 1.116 1.152.28.488.42 1.044.42 1.668Zm-.96 0c0-.464-.096-.872-.288-1.224a2.074 2.074 0 0 0-.768-.828c-.32-.2-.684-.3-1.092-.3-.408 0-.776.1-1.104.3-.32.2-.576.476-.768.828-.192.352-.288.76-.288 1.224 0 .456.096.86.288 1.212.192.352.448.632.768.84.328.2.696.3 1.104.3.408 0 .772-.1 1.092-.3a2.16 2.16 0 0 0 .768-.84 2.49 2.49 0 0 0 .288-1.212Zm8.296 0c0 .624-.14 1.18-.42 1.668a3.028 3.028 0 0 1-1.116 1.152c-.464.28-.988.42-1.572.42-.584 0-1.112-.14-1.584-.42a3.118 3.118 0 0 1-1.128-1.152c-.272-.488-.408-1.044-.408-1.668 0-.624.136-1.18.408-1.668.28-.488.656-.872 1.128-1.152.472-.28 1-.42 1.584-.42.584 0 1.108.14 1.572.42.472.28.844.664 1.116 1.152.28.488.42 1.044.42 1.668Zm-.96 0c0-.464-.096-.872-.288-1.224a2.074 2.074 0 0 0-.768-.828c-.32-.2-.684-.3-1.092-.3-.408 0-.776.1-1.104.3-.32.2-.576.476-.768.828-.192.352-.288.76-.288 1.224 0 .456.096.86.288 1.212.192.352.448.632.768.84.328.2.696.3 1.104.3.408 0 .772-.1 1.092-.3a2.16 2.16 0 0 0 .768-.84 2.49 2.49 0 0 0 .288-1.212Zm3.46 2.628a.474.474 0 0 1-.144.348.474.474 0 0 1-.348.144.436.436 0 0 1-.336-.144.497.497 0 0 1-.132-.348V58.1a.474.474 0 0 1 .48-.48.45.45 0 0 1 .348.144c.088.088.132.2.132.336v7.908Z"/><defs><clipPath id="a"><path fill="#fff" d="M22 15.5h34v34H22z"/></clipPath></defs></svg>