<svg xmlns="http://www.w3.org/2000/svg" width="40" height="84" fill="none"><path fill="#616161" d="M18.603 44.719h-.925a1.934 1.934 0 0 1-1.928-1.929v-5.705a1.934 1.934 0 0 1 1.928-1.929h.925a1.968 1.968 0 0 1 1.52.74c.266.338.41.758.408 1.189v5.705a1.934 1.934 0 0 1-1.928 1.929Zm-.925-8.5a.864.864 0 0 0-.866.866v5.705a.866.866 0 0 0 .866.866h.925a.866.866 0 0 0 .866-.866v-5.705a.866.866 0 0 0-.659-.84.957.957 0 0 0-.207 0l-.925-.026ZM33.478 44.719h-.925a1.934 1.934 0 0 1-1.928-1.929v-5.705a1.918 1.918 0 0 1 1.466-1.87c.151-.038.307-.058.462-.059h.925a1.935 1.935 0 0 1 1.928 1.929v5.705a1.934 1.934 0 0 1-1.928 1.929Zm-.925-8.5a.956.956 0 0 0-.207 0 .866.866 0 0 0-.658.866v5.705a.866.866 0 0 0 .865.866h.925a.866.866 0 0 0 .866-.866v-5.705a.865.865 0 0 0-.866-.866h-.925ZM14.688 42.063H4.594v-6.376h10.093v6.376ZM5.655 41h7.969v-4.25H5.656V41Z"/><path fill="#616161" d="M13.625 41h1.063v3.719h-1.063V41ZM4.594 41h1.062v3.719H4.594V41ZM30.094 44.719h-9.032a1.594 1.594 0 0 1-1.593-1.594v-3.188h12.218v3.188a1.594 1.594 0 0 1-1.593 1.594ZM20.53 41v2.125a.532.532 0 0 0 .532.531h9.03a.531.531 0 0 0 .532-.531V41H20.531Z"/><path fill="#616161" d="M31.688 41h-12.22v-1.594a2.656 2.656 0 0 1 2.657-2.656h6.906a2.656 2.656 0 0 1 2.657 2.656V41ZM20.53 39.937h10.094v-.53a1.594 1.594 0 0 0-1.594-1.594h-6.906a1.594 1.594 0 0 0-1.594 1.593v.532Z"/><path fill="#616161" d="M31.688 39.406h-1.063a1.594 1.594 0 0 0-1.594-1.593h-6.906a1.594 1.594 0 0 0-1.594 1.593H19.47v-2.321a.866.866 0 0 0-.659-.84l-.404-.095v-4.181a3.719 3.719 0 0 1 3.719-3.719h6.906a3.719 3.719 0 0 1 3.719 3.719v4.18l-.404.096a.866.866 0 0 0-.658.84v2.321Zm-9.563-2.656h6.906c.575 0 1.134.186 1.594.531v-.196a1.912 1.912 0 0 1 1.063-1.722V31.97a2.656 2.656 0 0 0-2.657-2.657h-6.906a2.657 2.657 0 0 0-2.656 2.657v3.394a1.913 1.913 0 0 1 1.062 1.722v.196a2.657 2.657 0 0 1 1.594-.531ZM8.313 38.344h2.656v1.062H8.313v-1.062ZM11.367 36.75H7.914l-1.37-4.781h6.194l-1.37 4.781Zm-2.656-1.063h1.86l.754-2.656H7.957l.754 2.657Z"/><path fill="#616161" d="M9.64 33.031a2.083 2.083 0 0 1-.403-.042 4.303 4.303 0 0 1-3.58-4.208v-.53h.53a4.218 4.218 0 0 1 2.71.966l.196.154v.25c-.003.646.188 1.28.548 1.817a3.241 3.241 0 0 0 .568-1.812v-.25l.197-.154a4.218 4.218 0 0 1 2.688-.972h.531v.531a4.282 4.282 0 0 1-3.644 4.25 1.71 1.71 0 0 1-.34 0Zm1.62-3.16a4.25 4.25 0 0 1-.53 1.81 3.188 3.188 0 0 0 1.811-2.342c-.461.08-.899.264-1.28.537v-.006Zm-4.51-.532a3.268 3.268 0 0 0 1.812 2.343 4.298 4.298 0 0 1-.531-1.812 3.119 3.119 0 0 0-1.28-.526v-.005Z"/><path fill="#616161" d="m9.64 32.983-.377-.371a4.298 4.298 0 0 1 0-6.067l.377-.372.378.372a4.251 4.251 0 0 1 1.253 3.033v.027a4.25 4.25 0 0 1-.977 2.698c-.096.117-.186.213-.276.309l-.378.371Zm0-5.238a3.24 3.24 0 0 0 0 3.666 3.24 3.24 0 0 0 0-3.666ZM15.75 26.125h1.063v12.75H15.75v-12.75Z"/><path fill="#616161" d="M20.584 27.188h-8.606l.632-6.907h7.342l.632 6.907Zm-7.437-1.063h6.269l-.43-4.781h-5.409l-.43 4.781ZM1.608 66.5a.59.59 0 0 1-.396-.144.457.457 0 0 1-.156-.348V58.58a.474.474 0 0 1 .48-.48h3.312c.448 0 .852.104 1.212.312.36.2.644.48.852.84.216.352.324.76.324 1.224 0 .336-.064.652-.192.948-.128.288-.304.54-.528.756-.224.208-.48.368-.768.48l-.264-.192c.272.064.516.18.732.348a1.89 1.89 0 0 1 .744 1.5c.016.296.036.532.06.708.024.176.06.316.108.42a.563.563 0 0 0 .204.228.483.483 0 0 1 .216.288.37.37 0 0 1-.06.348.402.402 0 0 1-.204.156c-.088.024-.176.032-.264.024a.511.511 0 0 1-.228-.072 1.456 1.456 0 0 1-.372-.312c-.12-.144-.22-.348-.3-.612-.08-.264-.12-.624-.12-1.08 0-.256-.04-.468-.12-.636a1.097 1.097 0 0 0-.324-.408 1.2 1.2 0 0 0-.456-.216 2.22 2.22 0 0 0-.516-.06H1.908l.144-.216v3.132c0 .136-.04.252-.12.348a.4.4 0 0 1-.324.144Zm.3-4.272h2.94c.232-.016.448-.096.648-.24.208-.144.376-.344.504-.6a1.91 1.91 0 0 0 .204-.888c0-.424-.136-.776-.408-1.056-.264-.28-.6-.42-1.008-.42H1.956l.096-.228v3.648l-.144-.216Zm12.923 1.152c0 .624-.14 1.18-.42 1.668a3.028 3.028 0 0 1-1.116 1.152c-.464.28-.988.42-1.572.42-.584 0-1.112-.14-1.584-.42a3.118 3.118 0 0 1-1.128-1.152c-.272-.488-.408-1.044-.408-1.668 0-.624.136-1.18.408-1.668.28-.488.656-.872 1.128-1.152.472-.28 1-.42 1.584-.42.584 0 1.108.14 1.572.42.472.28.844.664 1.116 1.152.28.488.42 1.044.42 1.668Zm-.96 0c0-.464-.096-.872-.288-1.224a2.074 2.074 0 0 0-.768-.828c-.32-.2-.684-.3-1.092-.3-.408 0-.776.1-1.104.3-.32.2-.576.476-.768.828-.192.352-.288.76-.288 1.224 0 .456.096.86.288 1.212.192.352.448.632.768.84.328.2.696.3 1.104.3.408 0 .772-.1 1.092-.3a2.16 2.16 0 0 0 .768-.84 2.49 2.49 0 0 0 .288-1.212Zm8.296 0c0 .624-.14 1.18-.42 1.668A3.028 3.028 0 0 1 20.63 66.2c-.464.28-.988.42-1.572.42-.584 0-1.112-.14-1.584-.42a3.118 3.118 0 0 1-1.128-1.152c-.272-.488-.408-1.044-.408-1.668 0-.624.136-1.18.408-1.668.28-.488.656-.872 1.128-1.152.472-.28 1-.42 1.584-.42.584 0 1.108.14 1.572.42.472.28.844.664 1.116 1.152.28.488.42 1.044.42 1.668Zm-.96 0c0-.464-.096-.872-.288-1.224a2.074 2.074 0 0 0-.768-.828c-.32-.2-.684-.3-1.092-.3-.408 0-.776.1-1.104.3-.32.2-.576.476-.768.828-.192.352-.288.76-.288 1.224 0 .456.096.86.288 1.212.192.352.448.632.768.84.328.2.696.3 1.104.3.408 0 .772-.1 1.092-.3a2.16 2.16 0 0 0 .768-.84 2.49 2.49 0 0 0 .288-1.212Zm5.368-3.18c.544 0 .984.14 1.32.42.344.272.572.66.684 1.164h-.18l.084-.216c.096-.224.26-.44.492-.648.232-.208.5-.38.804-.516.304-.136.62-.204.948-.204.528 0 .944.116 1.248.348.304.224.52.528.648.912.136.376.204.8.204 1.272v3.276a.474.474 0 0 1-.144.348.436.436 0 0 1-.336.144.45.45 0 0 1-.348-.144.497.497 0 0 1-.132-.348v-3.252c0-.312-.048-.592-.144-.84a1.169 1.169 0 0 0-.444-.6c-.2-.152-.476-.228-.828-.228-.328 0-.628.076-.9.228a1.672 1.672 0 0 0-.648.6c-.16.248-.24.528-.24.84v3.252a.497.497 0 0 1-.132.348.45.45 0 0 1-.348.144.474.474 0 0 1-.348-.144.497.497 0 0 1-.132-.348V62.72a2.36 2.36 0 0 0-.132-.816 1.13 1.13 0 0 0-.42-.588c-.2-.152-.476-.228-.828-.228-.32 0-.612.076-.876.228a1.73 1.73 0 0 0-.636.588c-.16.24-.24.512-.24.816v3.288a.474.474 0 0 1-.144.348.436.436 0 0 1-.336.144.474.474 0 0 1-.348-.144.497.497 0 0 1-.132-.348v-5.232a.474.474 0 0 1 .48-.48.45.45 0 0 1 .348.144c.088.088.132.2.132.336v.912l-.264.288c.032-.208.112-.416.24-.624a2.671 2.671 0 0 1 1.212-.996c.256-.104.528-.156.816-.156Zm7.68 5.316a.496.496 0 0 1-.096-.324c.008-.12.076-.224.204-.312a.412.412 0 0 1 .276-.072c.112.008.212.06.3.156.224.264.48.476.768.636.288.152.64.228 1.056.228a2.41 2.41 0 0 0 .576-.096c.192-.056.352-.152.48-.288a.788.788 0 0 0 .204-.564c0-.224-.068-.4-.204-.528a1.442 1.442 0 0 0-.528-.324 5.255 5.255 0 0 0-.708-.228 12.585 12.585 0 0 1-.78-.24 3.535 3.535 0 0 1-.696-.348 1.82 1.82 0 0 1-.492-.528 1.583 1.583 0 0 1-.18-.78c0-.36.096-.672.288-.936.2-.264.464-.468.792-.612.336-.144.7-.216 1.092-.216.224 0 .456.028.696.084.248.048.488.136.72.264.232.12.436.288.612.504.072.08.112.18.12.3.008.12-.044.228-.156.324a.441.441 0 0 1-.564-.036c-.168-.2-.38-.352-.636-.456a1.99 1.99 0 0 0-.828-.168c-.192 0-.38.028-.564.084a1.05 1.05 0 0 0-.468.288c-.12.128-.18.308-.18.54.008.216.08.392.216.528s.32.248.552.336c.232.08.488.16.768.24.256.064.5.14.732.228.24.08.456.188.648.324s.344.312.456.528c.112.208.168.472.168.792 0 .368-.104.688-.312.96a2.024 2.024 0 0 1-.828.612c-.336.136-.7.204-1.092.204-.44 0-.876-.084-1.308-.252a2.617 2.617 0 0 1-1.104-.852Z"/></svg>