<svg xmlns="http://www.w3.org/2000/svg" width="59" height="84" fill="none"><g fill="#616161" clip-path="url(#a)"><path d="M14.242 33.201c.198.108.407.197.623.264a2.828 2.828 0 0 0 3.472 3.47 3.362 3.362 0 0 0 2.847 2.344 3.37 3.37 0 0 0 .95 1.409V44.4c0 1.617-.32 3.324-1.172 3.82-.104-1.142-.486-3.34-1.914-4.291a.567.567 0 1 0-.63.943 3.504 3.504 0 0 1 1.185 2.067A3.394 3.394 0 0 0 17.6 46.1c-.31 0-.56.25-.563.559a.57.57 0 0 0 .555.574 2.62 2.62 0 0 1 1.821 1.134h-2.946a.567.567 0 1 0 0 1.133h29.466a.567.567 0 1 0 0-1.133H44.8V24a1.7 1.7 0 0 0 1.7-1.7v-.224c0-.335-.098-.663-.283-.943l-2.873-4.306a1.7 1.7 0 0 0-1.417-.76H27.8a.567.567 0 0 0-.47.251l-.176.263a2.799 2.799 0 0 0-3.157-.052 3.394 3.394 0 0 0-5.282.52 3.354 3.354 0 0 0-.416.933 3.955 3.955 0 0 0-4.07 6.543 2.828 2.828 0 0 0-.596 1.742c.002.421.099.837.284 1.216a3.39 3.39 0 0 0 .325 5.718Zm8.163 15.166c.56-.87.862-2.216.862-3.967v-3.03a3.374 3.374 0 0 0 2.266 0v3.03c0 1.75.301 3.098.862 3.967h-3.99ZM43.667 37.6h-6.8v-1.133h6.8V37.6Zm-7.934 8.5h-3.4v-1.7h3.4v1.7Zm0-2.833h-3.4v-1.7h3.4v1.7Zm0-2.834h-3.4v-1.7h3.4v1.7Zm-3.4 6.8h3.4v1.134h-3.4v-1.134Zm3.4-9.633h-3.4v-6.233a1.7 1.7 0 1 1 3.4 0V37.6Zm-4.533 0h-4.533v-.46c.31-.18.59-.407.83-.673H31.2V37.6Zm-2.19 10.767c.06-.487.333-.922.743-1.19a.567.567 0 0 0-.506-1.015 2.822 2.822 0 0 0-1.372 2.082c-.88-.47-1.208-2.2-1.208-3.844v-5.667H31.2v9.634h-2.19Zm7.857 0v-9.634H41.4v9.634h-4.533Zm5.666 0v-9.634h1.134v9.634h-1.134Zm1.134-13.034h-6.8v-3.966a2.833 2.833 0 0 0-5.667 0v3.966h-3.037c.132-.363.201-.746.204-1.133 0-.148-.01-.295-.03-.442a3.388 3.388 0 0 0 .702-5.383c.301-.458.462-.994.461-1.542a2.852 2.852 0 0 0-1.779-2.62c.014-.07.022-.142.033-.213h15.913v11.333ZM41.927 17.2c.19 0 .366.095.471.252l2.873 4.31a.574.574 0 0 1 .096.314v.224a.567.567 0 0 1-.567.567H27.759a3.984 3.984 0 0 0-1.651-2.675l1.995-2.992h13.824ZM18.103 32.236a.567.567 0 0 0-.78-.184c-.748.52-1.722.58-2.53.16a2.267 2.267 0 0 1-1.16-1.979 2.238 2.238 0 0 1 .964-1.85c.333.298.728.518 1.157.645a.567.567 0 0 0 .321-1.087 1.763 1.763 0 0 1-1.308-1.674 1.686 1.686 0 0 1 1.285-1.644.567.567 0 0 0-.27-1.101 2.8 2.8 0 0 0-.684.276 2.829 2.829 0 0 1 3.085-4.65c.033.43.14.85.317 1.244a.567.567 0 1 0 1.035-.462 2.34 2.34 0 0 1 .13-2.262 2.263 2.263 0 0 1 3.523-.347 2.801 2.801 0 0 0-.393.9.567.567 0 0 0 1.103.258 1.668 1.668 0 0 1 1.635-1.279c.357 0 .704.115.991.325l-1.438 2.158a3.935 3.935 0 0 0-.875-.197.567.567 0 0 0-.108 1.128 2.837 2.837 0 0 1 2.564 2.82 2.767 2.767 0 0 1-.843 1.983.567.567 0 0 0 .793.808c.285-.279.527-.6.717-.95a1.71 1.71 0 0 1 1.033 1.558c0 .317-.09.626-.26.893a3.307 3.307 0 0 0-.777-.264.567.567 0 1 0-.213 1.113 2.27 2.27 0 0 1-.454 4.495.567.567 0 1 0 0 1.133 3.42 3.42 0 0 0 .564-.052c0 .017.003.033.003.05a2.281 2.281 0 0 1-1.356 2.079c-.48.203-1.014.24-1.517.106a.567.567 0 1 0-.305 1.091 3.385 3.385 0 0 0 1.481.072v2.574c-.786.445-1.76.39-2.49-.14a2.227 2.227 0 0 1-.83-2.362.567.567 0 0 0-1.097-.284 3.451 3.451 0 0 0-.1.758 2.247 2.247 0 0 1-1.663-2.64.566.566 0 1 0-1.113-.218c-.033.18-.052.362-.056.545a1.648 1.648 0 0 1-.584.118 1.7 1.7 0 0 1-1.7-1.7c.003-.199.043-.396.117-.58a3.897 3.897 0 0 0 1.902-.604.566.566 0 0 0 .184-.78Z"/><path d="M21.567 33.067a.567.567 0 0 0 .566-.567c0-.313.254-.567.567-.567a.567.567 0 1 0 0-1.133 1.7 1.7 0 0 0-1.7 1.7c0 .313.254.567.567.567ZM19.3 26.267a.567.567 0 0 0 .567-.567c0-.313.253-.567.566-.567a.567.567 0 1 0 0-1.133 1.7 1.7 0 0 0-1.7 1.7c0 .313.254.567.567.567ZM23.833 27.4c.313 0 .567.254.567.567a.567.567 0 1 0 1.133 0 1.7 1.7 0 0 0-1.7-1.7.567.567 0 0 0 0 1.133ZM39.133 29.667H41.4c.626 0 1.133-.508 1.133-1.134v-2.266c0-.626-.507-1.133-1.133-1.133h-2.267c-.626 0-1.133.507-1.133 1.133v2.267c0 .626.507 1.133 1.133 1.133Zm0-3.4H41.4v2.267h-2.267v-2.267ZM28.933 21.733h13.6a.567.567 0 1 0 0-1.133h-13.6a.567.567 0 1 0 0 1.133ZM14.2 49.5a.567.567 0 1 0 0-1.133h-1.133a.567.567 0 1 0 0 1.133H14.2Z"/></g><path fill="#616161" d="M3.66 66.5a.488.488 0 0 1-.504-.492v-7.416h1.02v7.416a.474.474 0 0 1-.144.348.503.503 0 0 1-.372.144ZM.876 59.012a.526.526 0 0 1-.348-.12.455.455 0 0 1-.132-.336c0-.136.044-.244.132-.324a.497.497 0 0 1 .348-.132h5.58c.136 0 .252.044.348.132a.4.4 0 0 1 .144.324.413.413 0 0 1-.144.336.526.526 0 0 1-.348.12H.876ZM7.989 66.5a.474.474 0 0 1-.348-.144.497.497 0 0 1-.132-.348v-5.232a.474.474 0 0 1 .48-.48.45.45 0 0 1 .348.144c.088.088.132.2.132.336v1.584l-.144-.252a2.51 2.51 0 0 1 .732-1.356c.192-.192.412-.34.66-.444a1.96 1.96 0 0 1 .816-.168c.176 0 .336.044.48.132.152.08.228.196.228.348 0 .168-.044.292-.132.372a.434.434 0 0 1-.3.12.773.773 0 0 1-.3-.06.801.801 0 0 0-.36-.072c-.2 0-.4.056-.6.168a1.887 1.887 0 0 0-.54.456c-.16.2-.292.428-.396.684a2.208 2.208 0 0 0-.144.804v2.916a.474.474 0 0 1-.144.348.436.436 0 0 1-.336.144Zm6.935.12c-.64 0-1.2-.136-1.68-.408a2.964 2.964 0 0 1-1.128-1.116c-.264-.48-.396-1.032-.396-1.656 0-.696.136-1.288.408-1.776.28-.496.64-.872 1.08-1.128.448-.264.92-.396 1.416-.396.368 0 .724.068 1.068.204.344.136.648.336.912.6.264.256.476.568.636.936.16.36.244.764.252 1.212a.423.423 0 0 1-.144.324.482.482 0 0 1-.336.132h-4.74l-.216-.828h4.62l-.192.168v-.264a1.515 1.515 0 0 0-.336-.84 1.835 1.835 0 0 0-.684-.552 1.9 1.9 0 0 0-.84-.192c-.24 0-.48.044-.72.132-.232.08-.444.216-.636.408a2.14 2.14 0 0 0-.456.72c-.112.296-.168.652-.168 1.068 0 .464.092.872.276 1.224.192.352.456.632.792.84.336.2.728.3 1.176.3.28 0 .524-.036.732-.108.208-.072.388-.16.54-.264.152-.112.28-.224.384-.336a.53.53 0 0 1 .3-.108c.12 0 .216.04.288.12.08.08.12.176.12.288 0 .136-.064.256-.192.36-.224.248-.528.468-.912.66a2.797 2.797 0 0 1-1.224.276Zm6.879 0c-.64 0-1.2-.136-1.68-.408a2.964 2.964 0 0 1-1.128-1.116c-.264-.48-.396-1.032-.396-1.656 0-.696.136-1.288.408-1.776.28-.496.64-.872 1.08-1.128.448-.264.92-.396 1.416-.396.368 0 .724.068 1.068.204.344.136.648.336.912.6.264.256.476.568.636.936.16.36.244.764.252 1.212a.423.423 0 0 1-.144.324.482.482 0 0 1-.336.132h-4.74l-.216-.828h4.62l-.192.168v-.264a1.515 1.515 0 0 0-.336-.84 1.835 1.835 0 0 0-.684-.552 1.9 1.9 0 0 0-.84-.192c-.24 0-.48.044-.72.132-.232.08-.444.216-.636.408a2.14 2.14 0 0 0-.456.72c-.112.296-.168.652-.168 1.068 0 .464.092.872.276 1.224.192.352.456.632.792.84.336.2.728.3 1.176.3.28 0 .524-.036.732-.108.208-.072.388-.16.54-.264.152-.112.28-.224.384-.336a.53.53 0 0 1 .3-.108c.12 0 .216.04.288.12.08.08.12.176.12.288 0 .136-.064.256-.192.36-.224.248-.528.468-.912.66a2.797 2.797 0 0 1-1.224.276Zm7.01-6.42c.529 0 .945.116 1.249.348.312.224.532.528.66.912.136.376.204.796.204 1.26v3.288a.474.474 0 0 1-.144.348.436.436 0 0 1-.336.144.474.474 0 0 1-.348-.144.497.497 0 0 1-.132-.348V62.72a2.36 2.36 0 0 0-.132-.816 1.172 1.172 0 0 0-.444-.588c-.2-.152-.476-.228-.828-.228-.328 0-.628.076-.9.228-.272.144-.488.34-.648.588-.16.24-.24.512-.24.816v3.288a.474.474 0 0 1-.144.348.436.436 0 0 1-.336.144.474.474 0 0 1-.348-.144.497.497 0 0 1-.132-.348V58.1a.474.474 0 0 1 .48-.48.45.45 0 0 1 .348.144c.088.088.132.2.132.336v3.588l-.24.264c.04-.208.128-.416.264-.624.136-.216.308-.408.516-.576.208-.168.44-.3.696-.396.256-.104.524-.156.804-.156Zm9.783 3.18c0 .624-.14 1.18-.42 1.668A3.028 3.028 0 0 1 37.06 66.2c-.464.28-.988.42-1.572.42-.584 0-1.112-.14-1.584-.42a3.118 3.118 0 0 1-1.128-1.152c-.272-.488-.408-1.044-.408-1.668 0-.624.136-1.18.408-1.668.28-.488.656-.872 1.128-1.152.472-.28 1-.42 1.584-.42.584 0 1.108.14 1.572.42.472.28.844.664 1.116 1.152.28.488.42 1.044.42 1.668Zm-.96 0c0-.464-.096-.872-.288-1.224a2.074 2.074 0 0 0-.768-.828c-.32-.2-.684-.3-1.092-.3-.408 0-.776.1-1.104.3-.32.2-.576.476-.768.828-.192.352-.288.76-.288 1.224 0 .456.096.86.288 1.212.192.352.448.632.768.84.328.2.696.3 1.104.3.408 0 .772-.1 1.092-.3a2.16 2.16 0 0 0 .768-.84 2.49 2.49 0 0 0 .288-1.212Zm7.048-3.084a.45.45 0 0 1 .348.144c.088.088.132.2.132.336v3.276c0 .808-.228 1.436-.684 1.884-.448.44-1.076.66-1.884.66-.8 0-1.428-.22-1.884-.66-.448-.448-.672-1.076-.672-1.884v-3.276a.474.474 0 0 1 .48-.48.45.45 0 0 1 .348.144c.088.088.132.2.132.336v3.276c0 .544.14.956.42 1.236.28.28.672.42 1.176.42.52 0 .916-.14 1.188-.42.28-.28.42-.692.42-1.236v-3.276a.474.474 0 0 1 .48-.48Zm1.91 5.22a.496.496 0 0 1-.095-.324c.008-.12.076-.224.204-.312a.412.412 0 0 1 .276-.072c.112.008.212.06.3.156.224.264.48.476.768.636.288.152.64.228 1.056.228a2.41 2.41 0 0 0 .576-.096c.192-.056.352-.152.48-.288a.788.788 0 0 0 .204-.564c0-.224-.068-.4-.204-.528a1.442 1.442 0 0 0-.528-.324 5.255 5.255 0 0 0-.708-.228 12.585 12.585 0 0 1-.78-.24 3.535 3.535 0 0 1-.696-.348 1.82 1.82 0 0 1-.492-.528 1.583 1.583 0 0 1-.18-.78c0-.36.096-.672.288-.936.2-.264.464-.468.792-.612.336-.144.7-.216 1.092-.216.224 0 .456.028.696.084.248.048.488.136.72.264.232.12.436.288.612.504.072.08.112.18.12.3.008.12-.044.228-.156.324a.441.441 0 0 1-.564-.036c-.168-.2-.38-.352-.636-.456a1.99 1.99 0 0 0-.828-.168c-.192 0-.38.028-.564.084a1.05 1.05 0 0 0-.468.288c-.12.128-.18.308-.18.54.008.216.08.392.216.528s.32.248.552.336c.232.08.488.16.768.24.256.064.5.14.732.228.24.08.456.188.648.324s.344.312.456.528c.112.208.168.472.168.792 0 .368-.104.688-.312.96a2.024 2.024 0 0 1-.828.612c-.336.136-.7.204-1.092.204-.44 0-.876-.084-1.308-.252a2.617 2.617 0 0 1-1.104-.852Zm8.9 1.104c-.64 0-1.2-.136-1.68-.408a2.964 2.964 0 0 1-1.128-1.116c-.264-.48-.396-1.032-.396-1.656 0-.696.136-1.288.408-1.776.28-.496.64-.872 1.08-1.128.448-.264.92-.396 1.416-.396.368 0 .724.068 1.068.204.344.136.648.336.912.6.264.256.476.568.636.936.16.36.244.764.252 1.212a.423.423 0 0 1-.144.324.482.482 0 0 1-.336.132h-4.74l-.216-.828h4.62l-.192.168v-.264a1.515 1.515 0 0 0-.336-.84 1.835 1.835 0 0 0-.684-.552 1.9 1.9 0 0 0-.84-.192c-.24 0-.48.044-.72.132-.232.08-.444.216-.636.408a2.14 2.14 0 0 0-.456.72c-.112.296-.168.652-.168 1.068 0 .464.092.872.276 1.224.192.352.456.632.792.84.336.2.728.3 1.176.3.28 0 .524-.036.732-.108.208-.072.388-.16.54-.264.152-.112.28-.224.384-.336a.53.53 0 0 1 .3-.108c.12 0 .216.04.288.12.08.08.12.176.12.288 0 .136-.064.256-.192.36-.224.248-.528.468-.912.66a2.797 2.797 0 0 1-1.224.276Z"/><defs><clipPath id="a"><path fill="#fff" d="M12.5 15.5h34v34h-34z"/></clipPath></defs></svg>