<svg xmlns="http://www.w3.org/2000/svg" width="46" height="84" fill="none"><g fill="#616161" clip-path="url(#a)"><path d="M28.97 24.198c-.397 0-.823.073-1.163.192-.718-1.659-1.969-2.79-3.721-3.368-2.412-.793-4.235-.451-5.4.03 1.751-1.864 3.966-1.811 5.308-1.543a.864.864 0 0 0 .876-.34.867.867 0 0 0 .059-.94c-.506-.916-1.415-2.095-2.872-2.513-1.148-.329-2.416-.115-3.77.637-1.642.913-2.477 2.382-2.414 4.25.002.073.007.146.012.218-.547-.423-1.275-.82-2.238-1.07a.498.498 0 1 0-.25.965c1.21.314 1.968.89 2.424 1.393-1.702-.216-3.444.38-5.195 1.78-1.604 1.283-2.86 2.982-3.553 4.034-.258-2.12.107-3.835 1.087-5.103.764-.988 1.644-1.328 1.65-1.33a.498.498 0 0 0 .157-.843l-.063-.056c.501-.067.988-.103 1.45-.106a.498.498 0 1 0-.008-.996c-.554.004-1.139.05-1.74.138a.916.916 0 0 0-.754.654.92.92 0 0 0 .017.578 5.59 5.59 0 0 0-1.456 1.3c-.849 1.071-1.76 3.024-1.28 6.24a.864.864 0 0 0 .866.743c.295 0 .57-.148.735-.406.607-.956 1.872-2.756 3.514-4.068 1.354-1.083 2.684-1.618 3.97-1.6-.671.36-1.498.886-2.336 1.627-1.759 1.556-3.892 4.394-4.061 9.072a.871.871 0 0 0 .873.905.871.871 0 0 0 .465-.135c.676-.425 1.915-1.373 3.108-3.153a.866.866 0 0 0 .566.301.866.866 0 0 0 .736-.27c.205-.218.492-.548.807-.977-.313 4.694-.316 11.997 1.719 18.643a.498.498 0 0 0 .952-.292 35.656 35.656 0 0 1-.654-2.456h.537a.498.498 0 0 0 0-.996h-.752a46.967 46.967 0 0 1-.743-5.244h1.005a.498.498 0 1 0 0-.996h-1.083a58.393 58.393 0 0 1-.101-1.992h.656a.498.498 0 1 0 0-.997h-.682a68.658 68.658 0 0 1 .298-7.612c.126-.273.247-.56.356-.862.177.49.381.941.599 1.354.055 1.466.151 2.865.28 4.199h-.515a.498.498 0 1 0 0 .996h.617a62.231 62.231 0 0 0 1.287 7.512H17.93a.498.498 0 1 0 0 .996h1.468c.676 2.632 1.436 4.776 2.128 6.436a.498.498 0 1 0 .92-.383c-1.515-3.635-3.366-9.647-3.883-18.084.239.307.46.56.643.755.19.203.459.302.736.27a.865.865 0 0 0 .566-.3c.434.647.908 1.235 1.415 1.756-.247 1.093-.236 2.15-.185 2.829a.794.794 0 0 0 .796.737.794.794 0 0 0 .68-.383c.7-1.154 2.425-3.5 5.31-4.453-.18.137-.363.286-.547.448-1.415 1.252-3.13 3.534-3.267 7.293a.795.795 0 0 0 1.222.703c.532-.335 1.496-1.07 2.435-2.438a.798.798 0 0 0 1.095-.064c.093-.1.2-.22.315-.357-.06.898-.14 1.785-.24 2.651a.498.498 0 0 0 .99.114c.164-1.42.275-2.894.332-4.383.134-.254.261-.527.377-.818.056.141.115.279.176.412a53.36 53.36 0 0 1 .248 5.305h-.153a.498.498 0 1 0 0 .996h.14c-.008.34-.02.684-.035 1.034h-.441a.498.498 0 1 0 0 .996h.385a38.366 38.366 0 0 1-.661 5.073.498.498 0 1 0 .976.198c.881-4.336.868-8.725.687-11.74.172.217.326.392.446.52a.799.799 0 0 0 1.094.063c.94 1.367 1.904 2.103 2.436 2.438a.795.795 0 0 0 1.221-.703c-.136-3.759-1.852-6.04-3.267-7.293a9.906 9.906 0 0 0-1.504-1.096c.87.092 1.764.502 2.674 1.23 1.295 1.036 2.294 2.458 2.775 3.214a.79.79 0 0 0 .839.352.789.789 0 0 0 .621-.66c.387-2.596-.352-4.176-1.04-5.045a4.547 4.547 0 0 0-1.21-1.073.935.935 0 0 0-.038-.36.913.913 0 0 0-.766-.648c-1.808-.23-3.103.045-4.015.477.169-1.148-.191-2.214-1.063-3.119-.873-.907-1.813-1.376-2.792-1.393Zm-.494 3.191c.746.403 1.462 1.077 1.896 2.198a5.351 5.351 0 0 0-1.9-.678c.033-.521.034-1.029.004-1.52Zm.476-2.195c.704.012 1.408.379 2.092 1.088 1.184 1.23.86 2.564.422 3.424-.824-2.781-3.018-3.577-4.33-3.802.468-.375 1.095-.72 1.816-.71Zm-5.178-3.225c1.485.488 2.54 1.453 3.14 2.867-.306.2-.57.424-.788.633a.791.791 0 0 0-.2.836c.104.297.362.5.674.531.253.025.54.071.844.15.062.587.074 1.207.035 1.85-.077.001-.155.003-.235.007-1.354-2.198-4.24-5.695-9.134-6.354.983-.668 2.863-1.442 5.664-.52Zm-5.003-4.745c.791-.44 1.531-.66 2.211-.66.277 0 .544.037.8.11 1.018.292 1.713 1.104 2.144 1.81-1.601-.262-4.828-.277-6.92 3.145-.286-1.223-.352-3.23 1.765-4.405ZM13.956 30.61l-.247-.427a.498.498 0 0 0-.43-.249h-.001a.498.498 0 0 0-.43.245c-1.101 1.871-2.3 2.892-3.02 3.384.172-3.346 1.411-6.068 3.683-8.095a11.212 11.212 0 0 1 2.812-1.832 9.655 9.655 0 0 0 .06 1.952c-.372 2.471-1.742 4.26-2.427 5.022Zm6.973-.43a.497.497 0 0 0-.86.003l-.248.427c-.953-1.055-2.784-3.567-2.495-7.032.78.337 2.247 1.102 3.601 2.532a.498.498 0 0 0 .724-.686 12.119 12.119 0 0 0-1.698-1.484c3.08 1.047 5.078 3.34 6.198 5.038-.195.04-.396.087-.603.145a5.258 5.258 0 0 0-1.323.568 11.93 11.93 0 0 0-1.161-2.44.498.498 0 0 0-.844.528c.492.786.885 1.648 1.17 2.562-.509.5-.87 1.089-1.123 1.703a12.296 12.296 0 0 1-1.338-1.864Zm1.775 5.095c-.028-1.836.434-4.44 3.114-5.193a6.387 6.387 0 0 1 1.73-.253c1.109 0 1.919.344 2.455.694-3.826.456-6.194 3.129-7.299 4.752Zm6.213 1.655-.126-.218a.498.498 0 0 0-.43-.248h-.001a.498.498 0 0 0-.43.245c-.784 1.332-1.629 2.115-2.202 2.538.176-2.534 1.144-4.604 2.879-6.154a8.836 8.836 0 0 1 2.188-1.434c.159 2.537-1.124 4.405-1.878 5.271Zm7.823 2.318c-.573-.424-1.418-1.207-2.203-2.54a.498.498 0 0 0-.86.004l-.126.218c-.56-.647-1.533-1.999-1.813-3.827.058-.44.08-.903.056-1.389.52.247 1.272.675 2.035 1.35 1.755 1.553 2.733 3.632 2.91 6.184Zm2.233-4.575c-1.161-1.705-3.488-4.474-6.345-4.474-.09 0-.18.003-.271.009.661-.612 1.926-1.267 4.225-1.003a.497.497 0 0 0 .25.734c.026.01 2.478.952 2.141 4.734Z"/><path d="M30.245 45.02h-.502c.184-.856.347-1.73.488-2.62a.498.498 0 1 0-.984-.156 43.704 43.704 0 0 1-1.535 6.538.498.498 0 1 0 .949.306c.118-.37.232-.743.342-1.122h1.042a.498.498 0 1 0 0-.997h-.767c.082-.314.162-.632.239-.953h.728a.498.498 0 1 0 0-.996Z"/></g><path fill="#616161" d="M3.66 66.5a.488.488 0 0 1-.504-.492v-7.416h1.02v7.416a.474.474 0 0 1-.144.348.503.503 0 0 1-.372.144ZM.876 59.012a.526.526 0 0 1-.348-.12.455.455 0 0 1-.132-.336c0-.136.044-.244.132-.324a.497.497 0 0 1 .348-.132h5.58c.136 0 .252.044.348.132a.4.4 0 0 1 .144.324.413.413 0 0 1-.144.336.526.526 0 0 1-.348.12H.876ZM7.989 66.5a.474.474 0 0 1-.348-.144.497.497 0 0 1-.132-.348v-5.232a.474.474 0 0 1 .48-.48.45.45 0 0 1 .348.144c.088.088.132.2.132.336v1.584l-.144-.252a2.51 2.51 0 0 1 .732-1.356c.192-.192.412-.34.66-.444a1.96 1.96 0 0 1 .816-.168c.176 0 .336.044.48.132.152.08.228.196.228.348 0 .168-.044.292-.132.372a.434.434 0 0 1-.3.12.773.773 0 0 1-.3-.06.801.801 0 0 0-.36-.072c-.2 0-.4.056-.6.168a1.887 1.887 0 0 0-.54.456c-.16.2-.292.428-.396.684a2.208 2.208 0 0 0-.144.804v2.916a.474.474 0 0 1-.144.348.436.436 0 0 1-.336.144Zm9.959-3.12c0 .624-.14 1.18-.42 1.668a3.028 3.028 0 0 1-1.116 1.152c-.464.28-.988.42-1.572.42-.584 0-1.112-.14-1.584-.42a3.118 3.118 0 0 1-1.128-1.152c-.272-.488-.408-1.044-.408-1.668 0-.624.136-1.18.408-1.668.28-.488.656-.872 1.128-1.152.472-.28 1-.42 1.584-.42.584 0 1.108.14 1.572.42.472.28.844.664 1.116 1.152.28.488.42 1.044.42 1.668Zm-.96 0c0-.464-.096-.872-.288-1.224a2.074 2.074 0 0 0-.768-.828c-.32-.2-.684-.3-1.092-.3-.408 0-.776.1-1.104.3-.32.2-.576.476-.768.828-.192.352-.288.76-.288 1.224 0 .456.096.86.288 1.212.192.352.448.632.768.84.328.2.696.3 1.104.3.408 0 .772-.1 1.092-.3a2.16 2.16 0 0 0 .768-.84 2.49 2.49 0 0 0 .288-1.212Zm5.464-3.18a2.69 2.69 0 0 1 1.464.408c.432.272.772.648 1.02 1.128.256.48.384 1.032.384 1.656 0 .616-.128 1.168-.384 1.656-.248.48-.588.86-1.02 1.14a2.61 2.61 0 0 1-1.44.408 2.64 2.64 0 0 1-.84-.132 3.463 3.463 0 0 1-.708-.36 2.648 2.648 0 0 1-.528-.504 2.1 2.1 0 0 1-.312-.564l.264-.168v3.54a.497.497 0 0 1-.132.348.45.45 0 0 1-.348.144.474.474 0 0 1-.48-.492V60.74a.474.474 0 0 1 .48-.48.45.45 0 0 1 .348.144c.088.088.132.2.132.336v1.068l-.18-.096c.056-.2.152-.392.288-.576.144-.184.316-.344.516-.48.208-.144.436-.256.684-.336.256-.08.52-.12.792-.12Zm-.108.888c-.4 0-.756.1-1.068.3a2.1 2.1 0 0 0-.72.816c-.168.344-.252.74-.252 1.188 0 .44.084.836.252 1.188.176.352.416.628.72.828.312.2.668.3 1.068.3s.752-.1 1.056-.3c.304-.2.544-.476.72-.828a2.62 2.62 0 0 0 .264-1.188c0-.448-.088-.844-.264-1.188a2.1 2.1 0 0 0-.72-.816c-.304-.2-.656-.3-1.056-.3Zm5.343 4.92a.474.474 0 0 1-.144.348.436.436 0 0 1-.336.144.45.45 0 0 1-.348-.144.497.497 0 0 1-.132-.348V60.68a.474.474 0 0 1 .48-.48c.136 0 .248.048.336.144.096.088.144.2.144.336v5.328Zm-.48-6.612c-.2 0-.348-.04-.444-.12-.096-.08-.144-.204-.144-.372v-.168c0-.168.052-.292.156-.372.104-.08.252-.12.444-.12s.336.04.432.12c.096.08.144.204.144.372v.168c0 .168-.052.292-.156.372-.096.08-.24.12-.432.12Zm4.964.744c.408 0 .776.044 1.104.132.328.088.588.208.78.36.192.152.288.324.288.516a.493.493 0 0 1-.108.3.342.342 0 0 1-.288.144.564.564 0 0 1-.276-.06 1.096 1.096 0 0 1-.192-.156.708.708 0 0 0-.24-.168 1.298 1.298 0 0 0-.42-.132 3.216 3.216 0 0 0-.552-.048c-.44 0-.828.104-1.164.312a2.253 2.253 0 0 0-.78.84 2.465 2.465 0 0 0-.288 1.2c0 .448.092.848.276 1.2a2.083 2.083 0 0 0 1.908 1.152c.28 0 .504-.024.672-.072.168-.048.308-.104.42-.168.144-.08.252-.16.324-.24.08-.08.184-.12.312-.12.136 0 .24.044.312.132.08.088.12.196.12.324 0 .144-.1.296-.3.456-.2.16-.472.296-.816.408-.336.112-.72.168-1.152.168-.608 0-1.14-.14-1.596-.42a2.997 2.997 0 0 1-1.068-1.164 3.65 3.65 0 0 1-.372-1.656c0-.608.128-1.156.384-1.644a3.057 3.057 0 0 1 1.092-1.164c.464-.288 1.004-.432 1.62-.432Zm8.575.096c.136 0 .248.048.336.144.096.088.144.2.144.336v5.292a.474.474 0 0 1-.144.348.436.436 0 0 1-.336.144.45.45 0 0 1-.348-.144.497.497 0 0 1-.132-.348v-1.14l.228-.024c0 .176-.06.368-.18.576-.12.208-.284.404-.492.588a2.822 2.822 0 0 1-.744.444c-.28.112-.584.168-.912.168-.544 0-1.032-.14-1.464-.42a3.1 3.1 0 0 1-1.032-1.164c-.248-.488-.372-1.044-.372-1.668 0-.632.124-1.188.372-1.668.256-.488.6-.868 1.032-1.14.432-.28.912-.42 1.44-.42.344 0 .664.056.96.168.296.112.552.264.768.456.224.192.396.404.516.636.128.232.192.464.192.696l-.312-.072v-1.308c0-.136.044-.248.132-.336a.45.45 0 0 1 .348-.144Zm-2.472 5.496c.4 0 .752-.104 1.056-.312.312-.208.552-.488.72-.84.176-.36.264-.764.264-1.212 0-.44-.088-.836-.264-1.188a1.95 1.95 0 0 0-.72-.84 1.825 1.825 0 0 0-1.056-.312c-.392 0-.744.1-1.056.3a2.08 2.08 0 0 0-.72.828 2.675 2.675 0 0 0-.264 1.212c0 .448.084.852.252 1.212.176.352.416.632.72.84.312.208.668.312 1.068.312Zm5.787.276a.474.474 0 0 1-.144.348.474.474 0 0 1-.348.144.436.436 0 0 1-.336-.144.497.497 0 0 1-.132-.348V58.1a.474.474 0 0 1 .48-.48.45.45 0 0 1 .348.144c.088.088.132.2.132.336v7.908Z"/><defs><clipPath id="a"><path fill="#fff" d="M6 15.5h34v34H6z"/></clipPath></defs></svg>