<svg xmlns="http://www.w3.org/2000/svg" width="34" height="84" fill="none"><mask id="a" fill="#fff"><path d="M0-1.5h34v88H0v-88Z"/></mask><path fill="#0F4E3D" d="M34 81.5H0v10h34v-10Z" mask="url(#a)"/><path fill="#222" d="M30.033 31.367H28.9v-4.534a.565.565 0 0 0-.453-.555l-5.214-1.043v-1.02l1.355.414a.573.573 0 0 0 .708-.38.57.57 0 0 0-.374-.708l-2-.612a.285.285 0 0 0-.085-.04l-2.834-.85-10.2-3.116a.57.57 0 0 0-.708.374c-.09.3.08.617.374.708l1.298.402v4.828l-5.214 1.043a.565.565 0 0 0-.453.555v4.534H3.967a.568.568 0 0 0-.567.566v13.6c0 .312.255.567.567.567H30.033a.568.568 0 0 0 .567-.567v-13.6a.568.568 0 0 0-.567-.566Zm-2.266-4.07v4.07h-4.534V26.39l4.534.907ZM22.1 23.87v7.497H11.9V20.793l7.769 2.329 2.431.748ZM6.233 27.298l4.534-.907v4.976H6.233v-4.07ZM15.3 44.967V39.3h3.4v5.667h-3.4Zm14.167 0h-9.634V39.3h1.134a.568.568 0 0 0 .566-.567.568.568 0 0 0-.566-.566h-7.934a.568.568 0 0 0-.566.566c0 .312.255.567.566.567h1.134v5.667H4.533V32.5h24.934v12.467Z"/><path fill="#222" d="M26.633 34.767h-3.4a.568.568 0 0 0-.566.566v3.4c0 .312.255.567.566.567h3.4a.568.568 0 0 0 .567-.567v-3.4a.568.568 0 0 0-.567-.566Zm-.566 3.4H23.8V35.9h2.267v2.267ZM10.767 34.767h-3.4a.568.568 0 0 0-.567.566v3.4c0 .312.255.567.567.567h3.4a.568.568 0 0 0 .566-.567v-3.4a.568.568 0 0 0-.566-.566Zm-.567 3.4H7.933V35.9H10.2v2.267ZM14.167 29.667h5.666a.568.568 0 0 0 .567-.567v-3.4a.568.568 0 0 0-.567-.566h-5.666a.568.568 0 0 0-.567.566v3.4c0 .312.255.567.567.567Zm5.1-1.134h-1.7v-2.266h1.7v2.267Zm-4.534-2.266h1.7v2.267h-1.7v-2.267ZM12.152 58.088c.136 0 .252.044.348.132a.4.4 0 0 1 .144.324.59.59 0 0 1-.048.216l-3.132 7.428a.548.548 0 0 1-.204.24.504.504 0 0 1-.264.072.589.589 0 0 1-.252-.084.511.511 0 0 1-.18-.228l-3.12-7.416a.469.469 0 0 1-.036-.096.61.61 0 0 1-.012-.12c0-.152.052-.268.156-.348a.53.53 0 0 1 .324-.132c.216 0 .372.112.468.336l2.868 6.84h-.276l2.772-6.864c.096-.2.244-.3.444-.3Zm2.687 7.92a.474.474 0 0 1-.144.348.436.436 0 0 1-.336.144.45.45 0 0 1-.348-.144.497.497 0 0 1-.132-.348V60.68a.474.474 0 0 1 .48-.48c.136 0 .248.048.336.144.096.088.144.2.144.336v5.328Zm-.48-6.612c-.2 0-.348-.04-.444-.12-.096-.08-.144-.204-.144-.372v-.168c0-.168.052-.292.156-.372.104-.08.252-.12.444-.12s.336.04.432.12c.096.08.144.204.144.372v.168c0 .168-.052.292-.156.372-.096.08-.24.12-.432.12Zm3.26 6.612a.474.474 0 0 1-.143.348.474.474 0 0 1-.348.144.436.436 0 0 1-.336-.144.497.497 0 0 1-.132-.348V58.1a.474.474 0 0 1 .48-.48.45.45 0 0 1 .348.144c.088.088.132.2.132.336v7.908Zm2.919 0a.474.474 0 0 1-.144.348.474.474 0 0 1-.348.144.436.436 0 0 1-.336-.144.497.497 0 0 1-.132-.348V58.1a.474.474 0 0 1 .48-.48.45.45 0 0 1 .348.144c.088.088.132.2.132.336v7.908Zm6.974-5.772c.136 0 .248.048.336.144.096.088.144.2.144.336v5.292a.474.474 0 0 1-.144.348.436.436 0 0 1-.336.144.45.45 0 0 1-.348-.144.497.497 0 0 1-.132-.348v-1.14l.228-.024c0 .176-.06.368-.18.576-.12.208-.284.404-.492.588a2.822 2.822 0 0 1-.744.444c-.28.112-.584.168-.912.168-.544 0-1.032-.14-1.464-.42a3.1 3.1 0 0 1-1.032-1.164c-.248-.488-.372-1.044-.372-1.668 0-.632.124-1.188.372-1.668.256-.488.6-.868 1.032-1.14.432-.28.912-.42 1.44-.42.344 0 .664.056.96.168.296.112.552.264.768.456.224.192.396.404.516.636.128.232.192.464.192.696l-.312-.072v-1.308c0-.136.044-.248.132-.336a.45.45 0 0 1 .348-.144Zm-2.472 5.496c.4 0 .752-.104 1.056-.312.312-.208.552-.488.72-.84.176-.36.264-.764.264-1.212 0-.44-.088-.836-.264-1.188a1.95 1.95 0 0 0-.72-.84 1.825 1.825 0 0 0-1.056-.312c-.392 0-.744.1-1.056.3a2.08 2.08 0 0 0-.72.828A2.675 2.675 0 0 0 23 63.368c0 .448.084.852.252 1.212.176.352.416.632.72.84.312.208.668.312 1.068.312Z"/></svg>